/* XPM */
static char *coin32[] = {
/* columns rows colors chars-per-pixel */
"32 32 4 1 ",
"  c #725B31",
". c #EDDB39",
"X c #FFF9C3",
"o c None",
/* pixels */
"oooooooooooo        oooooooooooo",
"oooooooooooo        oooooooooooo",
"oooooooooo  ........    oooooooo",
"oooooooooo  ........    oooooooo",
"oooooooo  ............    oooooo",
"oooooooo  ............    oooooo",
"oooooooo  ....XXXX....    oooooo",
"oooooooo  ....XXXX....    oooooo",
"oooooo  ....XX....  ....    oooo",
"oooooo  ....XX....  ....    oooo",
"oooooo  ....XX....  ....    oooo",
"oooooo  ....XX....  ....    oooo",
"oooooo  ....XX....  ....    oooo",
"oooooo  ....XX....  ....    oooo",
"oooooo  ....XX....  ....    oooo",
"oooooo  ....XX....  ....    oooo",
"oooooo  ....XX....  ....    oooo",
"oooooo  ....XX....  ....    oooo",
"oooooo  ....XX....  ....    oooo",
"oooooo  ....XX....  ....    oooo",
"oooooo  ....XX....  ....    oooo",
"oooooo  ....XX....  ....    oooo",
"oooooo  ....XX....  ....    oooo",
"oooooo  ....XX....  ....    oooo",
"oooooooo  ....    ....    oooooo",
"oooooooo  ....    ....    oooooo",
"oooooooo  ............    oooooo",
"oooooooo  ............    oooooo",
"oooooooooo  ........    oooooooo",
"oooooooooo  ........    oooooooo",
"oooooooooooo        oooooooooooo",
"oooooooooooo        oooooooooooo"
};
