/* XPM */
static char *coin16[] = {
/* columns rows colors chars-per-pixel */
"16 16 4 1 ",
"  c None",
". c #725B31",
"X c #EDDB39",
"o c #FFF9C3",
/* pixels */
"      ....      ",
"     .XXXX..    ",
"    .XXXXXX..   ",
"    .XXooXX..   ",
"   .XXoXX.XX..  ",
"   .XXoXX.XX..  ",
"   .XXoXX.XX..  ",
"   .XXoXX.XX..  ",
"   .XXoXX.XX..  ",
"   .XXoXX.XX..  ",
"   .XXoXX.XX..  ",
"   .XXoXX.XX..  ",
"    .XX..XX..   ",
"    .XXXXXX..   ",
"     .XXXX..    ",
"      ....      "
};
