/* XPM */
static char *_cece54c3abc49e6e4366bec696b0eb1jC5io10VcfEnmqo0[] = {
/* columns rows colors chars-per-pixel */
"64 64 254 2 ",
"   c None",
".  c #0A0602",
"X  c #0B0A04",
"o  c #090A07",
"O  c #140A04",
"+  c #190E06",
"@  c #0E1408",
"#  c #1E150E",
"$  c #0E0E13",
"%  c #110E15",
"&  c #121618",
"*  c #28170C",
"=  c #361B0C",
"-  c #281B13",
";  c #361E11",
":  c #3A210D",
">  c #2D2118",
",  c #392516",
"<  c #171825",
"1  c #1D1C39",
"2  c #201B2D",
"3  c #211F3A",
"4  c #1C2633",
"5  c #242528",
"6  c #3B2B22",
"7  c #21243C",
"8  c #401E0B",
"9  c #45240C",
"0  c #542A0C",
"q  c #482816",
"w  c #552B15",
"e  c #4B311C",
"r  c #5A3219",
"t  c #622B0E",
"y  c #622E12",
"u  c #68371A",
"i  c #74391A",
"p  c #412E20",
"a  c #493526",
"s  c #583925",
"d  c #663925",
"f  c #6C3D23",
"g  c #753E23",
"h  c #623F33",
"j  c #78421C",
"k  c #5C422B",
"l  c #5D4834",
"z  c #694329",
"x  c #794527",
"c  c #72442B",
"v  c #74522F",
"b  c #674934",
"n  c #784B34",
"m  c #6B513B",
"M  c #77523A",
"N  c #1F1D42",
"B  c #1F1F54",
"V  c #1D214E",
"C  c #1F2458",
"Z  c #25254A",
"A  c #222355",
"S  c #23245B",
"D  c #2A275E",
"F  c #2C3155",
"G  c #262865",
"H  c #302A63",
"J  c #2E346B",
"K  c #353467",
"L  c #292E72",
"P  c #2C367C",
"I  c #373A78",
"U  c #403D6F",
"Y  c #384278",
"T  c #5A4F47",
"R  c #675548",
"E  c #795844",
"W  c #645D56",
"Q  c #65605A",
"!  c #796354",
"~  c #4B4267",
"^  c #434273",
"/  c #5C577A",
"(  c #823F1A",
")  c #84431E",
"_  c #90461E",
"`  c #874928",
"'  c #844B2B",
"]  c #944F29",
"[  c #8A512D",
"{  c #96532B",
"}  c #874D35",
"|  c #934E32",
" . c #885638",
".. c #975937",
"X. c #A1562F",
"o. c #A55C36",
"O. c #9A623B",
"+. c #A9663B",
"@. c #B86B3C",
"#. c #B5713E",
"$. c #C26D3A",
"%. c #865644",
"&. c #8B5B43",
"*. c #945C43",
"=. c #985C45",
"-. c #8A6449",
";. c #986547",
":. c #9F724F",
">. c #8C6D58",
",. c #976D54",
"<. c #87715D",
"1. c #997559",
"2. c #A56444",
"3. c #AB6B45",
"4. c #A76848",
"5. c #B46C47",
"6. c #A6724E",
"7. c #B5734C",
"8. c #BB7648",
"9. c #A56B52",
"0. c #B36153",
"q. c #A87757",
"w. c #B77A54",
"e. c #8D7867",
"r. c #9A7B66",
"t. c #A47969",
"y. c #B27D69",
"u. c #C2794A",
"i. c #D37C4A",
"p. c #C36D5D",
"a. c #C47C55",
"s. c #CD7866",
"d. c #AC815D",
"f. c #B6835B",
"g. c #91816B",
"h. c #8F807A",
"j. c #9C8A7C",
"k. c #A98467",
"l. c #B78966",
"z. c #BD936B",
"x. c #A68C76",
"c. c #B58977",
"v. c #A6937C",
"b. c #B8987C",
"n. c #C5814E",
"m. c #D7854B",
"M. c #CB8553",
"N. c #C78759",
"B. c #D38957",
"V. c #D6905E",
"C. c #C68A65",
"Z. c #D28F66",
"A. c #CA9369",
"S. c #D3966A",
"D. c #C68D7B",
"F. c #C89675",
"G. c #D59C72",
"H. c #E09B63",
"J. c #DEA06C",
"K. c #DBA478",
"L. c #2D3780",
"P. c #343C83",
"I. c #3B4485",
"U. c #3B468A",
"Y. c #3D458A",
"T. c #414A8C",
"R. c #5B5C8D",
"E. c #414A90",
"W. c #455593",
"Q. c #605F8E",
"!. c #5C6094",
"~. c #656585",
"^. c #686593",
"/. c #787596",
"(. c #827B98",
"). c #798AB4",
"_. c #9D928A",
"`. c #A79787",
"'. c #B69C87",
"]. c #AA9C92",
"[. c #B29D97",
"{. c #B2A18E",
"}. c #ABA192",
"|. c #B9A897",
" X c #BDB09E",
".X c #8A87A4",
"XX c #918DAA",
"oX c #AAA7A6",
"OX c #B8ABA1",
"+X c #BAB0A8",
"@X c #A7A2B1",
"#X c #C48C81",
"$X c #CE9F80",
"%X c #D49983",
"&X c #C0A38A",
"*X c #DEAC82",
"=X c #DFB68E",
"-X c #C5AB96",
";X c #C8B19A",
":X c #D8B99D",
">X c #E5B48B",
",X c #C8B8A7",
"<X c #D5BCAB",
"1X c #C9B9B3",
"2X c #D0BEB7",
"3X c #EFC59E",
"4X c #D8C1AE",
"5X c #CEC2B7",
"6X c #D9C7BA",
"7X c #D9D0BF",
"8X c #E0C0A6",
"9X c #E4CCBB",
"0X c #E8D1BE",
"qX c #B0A6C2",
"wX c #BCB8C8",
"eX c #C0C3C7",
"rX c #D9CBC6",
"tX c #DED3C8",
"yX c #CBC8D4",
"uX c #D5CDD6",
"iX c #DBD5D9",
"pX c #E2CEC3",
"aX c #E8D6C7",
"sX c #E4D4CC",
"dX c #E3D6D3",
"fX c #E4D7D7",
"gX c #E5DAD5",
"hX c #E9DBD5",
"jX c #E5DCDC",
"kX c #E9DEDB",
"lX c #E7E2DD",
"zX c #EAE2DD",
"xX c #F3E7DC",
"cX c #DBD9E3",
"vX c #E2DDE3",
"bX c #E5E2E2",
"nX c #ECE4E2",
"mX c #EDE9E5",
"MX c #E7E6E9",
"NX c #EEECEB",
"BX c #F1E7E3",
"VX c #F1EAE5",
"CX c #F2EDEB",
"ZX c #EFF0EF",
"AX c #F4F1EE",
"SX c #F8F3EF",
"DX c #ECECF1",
"FX c #F1EEF2",
"GX c #EEF1F3",
"HX c #F5F4F3",
"JX c #F8F6F5",
"KX c #FAF8F6",
"LX c #F7F8F8",
"PX c #FAF9F9",
/* pixels */
"                                                                                                                                ",
"                                                          ).                                                                    ",
"                                                    L P L.L.L.P.P.U.U.W.                                                        ",
"                                              L L L L Y !.P.L.L.L.P.P.P.P.U.                                                    ",
"                                          G G G L G R.cXwXI I P P.P.P.U.P.P.U.P.                                                ",
"                                        G G G G G G D XX(.^ Q.I I P.P.P.U.I.I.I.P.                                              ",
"                                      G G G G G G G D (.XX.XuXI J L.Y I.I.I.U.U.I.                                              ",
"                                    S G G S S S S G D /.XXyXNX^.R.I P.I.I.U.U.U.U.                                              ",
"                                    S G C S S G D H D (.@XMX.XwXcXI Y I.Y.Y.T.T.T.I.                                            ",
"                                    S S S C S A A A / uXDXNXcXHXcXI I I.Y.U.T.T.T.T.                                            ",
"                                    A C S S S B B S K ~ yX/.U yX/.I I I.Y.Y.Y.E.Y.T.                                            ",
"                                  V V B A B S A A Z Z qXMXyX~.vXvX^.I P.Y.Y.E.E.T.T.I.                                          ",
"                                  V V A C A S A S B A K K J I I I I I Y.I.T.T.T.T.Y.I.                                          ",
"                                  C A S C D S S S B D D H H I I I I I.I.U.Y.E.T.T.T.I.                                          ",
"                                  G S S S S S S S A D J K J I I I I I P.I.I.Y.U.E.E.Y                                           ",
"                                  S S S S S S S Z N 3 3 2 < < 5 5 > 5 5 5 4 7 Z F K Y                                           ",
"                                  S S A N 1 < % % % . X X . . . . . . . . O . X @ @ $ & 4                                       ",
"                                  < & o o o . . . . . . O O + + O O . O . . . . . X @ + @ @                                     ",
"                                $ X o o o . . . . . O * 8 9 0 q 9 8 = * + + O O O O O X                                         ",
"                              @ X X o X . X X O + 8 t t i g ) ) ) i i u w r e s s s m                                           ",
"                                  X # * * = : : y i t ( _ { X.X.X.` | ..;.r.1.k.1.q.f.                                          ",
"                                      s z f c d u w u x { +.+.5.+. . .M M E >.1.1.d.d.                                          ",
"                                      k z z 9 , : : w u ` 5.5.a.3.[ ' x v O.q.N.d.f.d.                                          ",
"                                      s s r f r 0 0 0 0 j _ o.3.+.[ j y u [ O.3.w.l.=X                                          ",
"                                      k u f u y 0 : : 8 0 i ) O.o.x u u c :.:...O.w.G.3X&.C.                                    ",
"                                      v z u 0 r f x d 8 9 y ` w.w.*.r q = p k m ,.d.+.o.2.2.A.q.                                ",
"                                  ,.%X6.f r 9 p : = s 9 r u ) 5.N.f.n f f *.q.w.w.f.d.i i | { } &.                              ",
"                                C. .*.x d r q r u f z r r u x @.N.f.6.O. .;.2.+.8.A.l.} t _ 5.+.g 3.                            ",
"                               .d c c u c f x f f f f g f x ` @.M.M.f.A.f.5.o.$.M.K.C.[  .  o.X.O.x '                           ",
"                            n i n g w r c ' | O...| ' x f g ] $.m.M.7.C.C.8.@.$.B.3XA. .      )  .} f c  .%.                  K.",
"                          *...d 2.=.w r c } 2.@.+.] x g i ` 5.i.H.K.u.u.7.| o.i.B.>Xn.O.        g .. .x i ' n ;.              F.",
"                          9.i %.u.}   r c =.3.8.o.` u ' ] ..@.m.H.S.A.Z.N.| i { u.N.#.            ] ..&.} ` j ' } 5.        a.w.",
"                        %.c d M 0.      f [ +.X.( y g x d w ( X.@...z &.A.C.2.g ' 7.;.              j { [ [ | } | 2.a.      a.8.",
"                      ;.} d M  .        s g ` i 0 g ` ' g g y i [ 7.$XF.A.F.C.z.' ` O.                ) { x | 2.7.3.a.C.    0.5.",
"S.                  w.3.r %.;.0.          d u 0 u | } c d w w } f f E -.,.,.d.d.9.x [                   i i } 5.a.f.N.N.f.6.w.3.",
"9.S.            =.5.7.d E w.n.            w 0 9 g g g c c n  .2.3.9.q.k.,.n b v ;.X.                  y w ) 2.5.M.f.f.A.l.q.f.l.",
"  5.          9.w.7.f %.9.M.o.            q u r w e q q q s d h E ,.v.[.t.e %.w.*.O.              f j u i 4.u.8.w.f.d.k.l.k.l.&X",
"  | o.      *.w.7.%.&.5.Z.a.                u g d d q h r.`.-XpXpXxXxXxX:Xc y.f... .              ` g f g 5.u.7.7.;.d.1.z.l.d.b.",
"  } o.    &.2.9.%.%.=.N.Z.8.                q f f n h d c.$X<XpX,X1X2XpXc.q.#Xd. .                  8 w | 7.u.2.4.1.6.d.A.d.l.z.",
"  %.*.} %.=.4.&.|  .s.N.7.3.&.;.w.w.          r d n n } t.<X<X1X4XaXhX6Xy.D.F.6.E                   q g 2.7.7.7.&.q.-.n.S.A.A.S.",
"%.%.%.%.%.=.*.=.*.0.w.3.o.5.w.S.J.M.            s d n } 0.'.c.c.c.#XD.#X%XD.l.,.E                 u d g o.o.2.;.:.-.d.N.n.S.S.S.",
"-.%.} M %.&.&.=.2.4.w.4.5.n.Z.N.3.              R h b n ` =.0.p.p.p.p.s.f.F.l.-.m E +XmX          z g ` [ o.+.2.:.;.N.Z.n.N.G.G.",
"&.-.E E E %.%.9. .w.5.5.Z.C.4.u {           cXcXW h h n n g g ` } | ..5.f.c.d.m l E _.bXZXLXLX      ! v j x [ 3.O.q.M.V.N.u.S.*X",
"%.%.%.&.E -.=.=.&.w.3.5.a.3. .i [       cXcXcXeXW 6 h n g g d u r g ..9.w.z.>.s l R }.lXNXPXPXKXLXLXbX6X>.M x ..+.7.M.M.N.B.C.K.",
" .;.&.;.&.*.%.E 1.;.6.7.7.7.;.*.O.1.rXMXcXuXcXoXW > p b x x } | ..3.w.w.C.d.s e l l }.zXNXLXPXLXLXMXGXJXLXtX-.` { +.8.n.M.M.Z.G.",
"&.&.=.4.=.2.;.%.6.7.7.7.3.w.w.6.7.2.1XcXvXcXuXoXT , - 6 h ' } | o.2.5.7.q.k , e k a ,XmXHXPXLXZXMXLXPXLXKXMX6X-.j { o.@.5.n.Z.K.",
"%.&.;.2.2.4.2.3.7.w.a.7.O.2.+.7.4.x.dXcXvXvXcXoXW 6 - # > s d g ` ] | &.s ; , e k l ,XGXKXKXZXZXKXPXLXNXiXMXLXlXv.v ' [ { X.w.S.",
" .&.2.4.0.5.*.;.&.&. .4.3.O.O.6.[.bXMXvXcXcXcXoX_.a > * # # 6 a s d s q ; : : a l g.5XAXKXGXHXPXPXGXbXuXLXPXKXJXHXgXr.' { { [ a.",
" .*.2.2.5.5.7.2.6.3.n.w.O.;.{.iXcXuXcXbXvXcXdXoX[.].a - - # # * * * = : : , q !  X|.7XHXNXKXKXHXZXZXZXLXLXHXHXGXHXZXlXr.' ..{ ` ",
"&.4.4.4.7.u.8.8.#.8.8.+.q.rXcXjXvXiXuXjXlXgXiXOX].yX2Xe.R a > ; : , , s m <.|.aX,X,XtXAXHXAXAXgXZXPXPXPXGXLXHXAXNXHXZXVX>.X...` ",
"O.4.=.5.u.n.n.$.#.+.O.1.,XyXcXvXvXkXvXuXuXfXvX1X].rXfXrXrXrXrX6X4X4X0X0X0XpXhXaX;X{.xXmXSXxXlXAXKXPXPXJXHXLXHXZXZXLXmXHX'.' ;.9.",
"*.;.9.8.M.n.n.8.+.O.1.pXiXuXuXjXvXnXkXjXdXuXiX5X`.1XjXcXkXhXhXhXaXaXaXaXaXaXaX,X X7XxXAXlXlXSXKXPXPXJXHXKXLXZXZXLXAXiXlXj.b.,X,X",
"&.O.3.u.M.B.n.#.O.k.aXmXlXgXuXiXvXnXvXkXvXgXrX1X_.+XrXfXdXsXsXaXaXaX0X0X0X9X8X;X{.aXaXtXxXSXKXLXPXJXHXLXPXJXAXJXLXmXdXVX{.|.4X;X",
"c ..5.u.B.n.n.6.'.tXlXnXnXjXjXfXiXjXbXbXkXvXgX1X_.,X6XaXsXhXhXhXaXpX0X9X9X0X;X-X,X7X7XlXHXKXKXPXSXJXPXPXPXHXHXLXHXlXlXLXOX|.|.-X",
"s ..w.u.u.M.n.&XrXdXbXnXnXjXhXjXjXvXjXnXzXkXlXdX[.{.2XfXkXfXhXaXhXaXaX9X0X9X&Xv.4X7XaXSXSXKXKXSXAXKXPXKXPXHXLXJXFXvXZXLXHXg.v k ",
"k O.+.o.#.M.F.nXdXkXzXnXnXkXzXkXjXnXbXzXnXzXnXzX1X`.2XnXkXkXhXhXhXaXpX0X9X8X{.b.4XhXmXHXKXJXCXSXKXPXPXLXHXJXLXJXZXlXLXPXSX_.z z ",
"s ` { { +.n.:XmXlXlXnXnXnXnXmXmXnXkXnXmXnXmXMXnXtX|.1XhXBXnXnXkXhXhXsXaXpX;Xx.|.rXmXAXAXAXmXAXKXKXPXKXKXJXJXLXLXCXNXLXLXHX|.z z ",
"z ] { +.8.n.9XmXBXBXNXnXkXbXNXNXCXnXlXnXNXmXVXVXhX|.1XfXBXBXkXhXhXhXsXpX6X`.v.<XlXVXCXxXmXAXSXKXKXKXKXJXKXPXPXHXZXZXLXHXZX5Xb d ",
"c [ x [ 8.f.6XmXBXCXCXmXbXvXBXCXCXCXNXnXnXCXCXCXBX2X XtXBXnXnXkXzXhXsXsX X{.'.tXxXlXlXlXVXAXAXAXHXHXJXLXKXLXPXJXZXLXPXHXGXgXb c ",
"6.O.O.+.n.N.6.1XnXHXCXNXnXlXnXCXAXCXCXCXBXBXCXCXCXpX|.rXBXnXBXnXkXkXsXdX|.v.,XkXgXgXkXmXmXVXVXCXAXAXHXPXPXPXKXJXHXPXPXHXZXnXm z ",
"-X4XA.&Xf.6.b.9XkXNXCXNXnXbXbXNXZXHXAXSXAXCXBXCXAXhX X,XzXBXBXnXnXkXhX2X-Xv.sXdXgXhXzXnXzXnXnXmXmXZXHXJXLXKXPXJXLXPXLXGXGXVXE v ",
"1.k.x.l.;Xb.;XhXgXMXCXNXnXbXnXBXAXHXHXAXAXSXVXBXVXzX5X XkXBXBXnXBXkXfX1Xg.,XsXgXgXlXzXkXjXjXbXnXVXAXHXHXLXPXPXLXPXPXFXNXZXHXe.z ",
"v &.q.A.b.;XpXtXdXlXmXnXbXkXlXzXnXNXSXSXHXHXSXCXBXBXrX XtXBXBXkXnXhXrX{.x.6XdXgXkXkXgXdXgXgXkXzXnXVXAXAXHXKXPXHXPXHXMXNXDXAXj.b ",
"' ' x O.6.b.kXfXdXdXlXnXlXlXmXBXBXlXgXgXzXAXJXSXAXVXpX|.5XBXBXBXkXdX X|.|.sXjXgXdXdXdXsXtX7XtXgXkXnXVXCXHXHXLXLXPXAXnXNXNXHX`.d "
};
