/* XPM */
static char *enemy32[] = {
/* columns rows colors chars-per-pixel */
"32 32 12 1 ",
"  c black",
". c gray24",
"X c #444363",
"o c #505080",
"O c #6B6BAB",
"+ c #8181CE",
"@ c #9797F0",
"# c #C5C5C5",
"$ c gray83",
"% c gray88",
"& c white",
"* c None",
/* pixels */
"********************************",
"************XXXXXXX*************",
"************XXXXXXX*************",
"**********XX@@@@@@@XX***********",
"**********XX@@@@@@@XX***********",
"********XX@@+++++++++XX*********",
"********XX@@+++++++++XX*********",
"*******X@@++OOOOOOOOOOOX********",
"*****XX@++OOOOOOOOOOOOOOXX******",
"*****XX@++OOOOOOOOOOOOOOXX******",
"***XX@@XXXOOOOOOOOOOOXXXOOXX****",
"***XX@@XXXOOOOOOOOOOOXXXOOXX****",
"*XX@@++O$$XXOOOOOOOXX&&OOOOOXX**",
"*XX@@++O$$XXOOOOOOOXX&&OOOOOXX**",
"*XX@@++O$$  XXXXXXX  &&OOOOOXX**",
"*XX@@++O$$  XXXXXXX  &&OOOOOXX**",
"X@@++OOO$$  &&OOO$$  &&OOOOOooXX",
"X@@++OOO$$&&&&OOO$$&&&&OOOOOooXX",
"X@@++OOO$$&&&&OOO$$&&&&OOOOOooXX",
"X@@++OOOOOOOOOOOOOOOOOOOOOooooXX",
"X@@++OOOOOOOOOOOOOOOOOOOOOooooXX",
"*XX++++OOO###########oooooooXX**",
"*XX++++OOO###########oooooooXX**",
"***XXXXX####%%%%%&&&&##XXXXX****",
"*******.##%%&&&&&&&&&.......****",
"*******.##%%&&&&&&&&&.......****",
"*****..   %%&&&&&&&..       ..**",
"*****..   %%&&&&&&&..       ..**",
"*****..     &&&&&..         ..**",
"*****..     &&&&&..         ..**",
"*******.      ***         ..****",
"*******.      ***         ..****"
};
