/* XPM */
static char *enemy16[] = {
/* columns rows colors chars-per-pixel */
"16 16 12 1 ",
"  c black",
". c gray24",
"X c #444363",
"o c #505080",
"O c #6B6BAB",
"+ c #8181CE",
"@ c #9797F0",
"# c #C5C5C5",
"$ c gray83",
"% c gray88",
"& c white",
"* c None",
/* pixels */
"******XXX*******",
"*****X@@@X******",
"****X@++++X*****",
"***X@+OOOOOX****",
"**X@+OOOOOOOX***",
"*X@XXOOOOOXXOX**",
"X@+O$XOOOX&OOOX*",
"X@+O$ XXX &OOOX*",
"@+OO$&&O$&&OOOoX",
"@+OOOOOOOOOOOooX",
"X++OO#####ooooX*",
"*XXX##%%&&#XXX**",
"***.#%&&&&....**",
"**.  %&&&.    .*",
"**.   &&.     .*",
"***.   *     .**"
};
