/* XPM */
static char *exit32[] = {
/* columns rows colors chars-per-pixel */
"32 32 8 1 ",
"  c #1B5717",
". c #32A636",
"X c #38BA3D",
"o c #3FD445",
"O c #85EA88",
"+ c #C6FFC6",
"@ c white",
"# c None",
/* pixels */
"                                ",
" +@@oOOoooooOoooo.o.....X.XoXoo ",
" +@@oOOoooooOoooo.o.....X.XoXoo ",
" +@@oOOoooooOoooo.o.....X.XoXoo ",
" +@@oOOoooooOoooo.o.....X.XoXoo ",
" +@@oOOoooooOoooo.o.....X.XoXoo ",
" +@@oOOoooooOoooo.o.....X.XoXoo ",
" +@@oOOoooooOoooo.o.....X.XoXoo ",
" +@@oOOoooooOoooo.o.....X.XoXoo ",
" +@@oOOoooooOoooo.o.....X.XoXoo ",
" +@@oOOoooooOoooo.o.....X.XoXoo ",
" +@@oOOoooooOoooo.o.....X.XoXoo ",
" +@@oOOoooooOoooo.o.....X.XoXoo ",
" +@@oOOoooooOoooo.o.....X.XoXoo ",
"                                ",
"## O++.XX....X............... ##",
"## +@@oOOooooOoo.o....X.XoXoo ##",
"## +@@oOOooooOoo.o....X.XoXoo ##",
"## +@@oOOooooOoo.o....X.XoXoo ##",
"## +@@oOOooooOoo.o....X.XoXoo ##",
"## +@@oOOooooOoo.o....X.XoXoo ##",
"## +@@oOOooooOoo.o....X.XoXoo ##",
"## +@@oOOooooOoo.o....X.XoXoo ##",
"## +@@oOOooooOoo.o....X.XoXoo ##",
"## +@@oOOooooOoo.o....X.XoXoo ##",
"## +@@oOOooooOoo.o....X.XoXoo ##",
"## +@@oOOooooOoo.o....X.XoXoo ##",
"## +@@oOOooooOoo.o....X.XoXoo ##",
"## +@@oOOooooOoo.o....X.XoXoo ##",
"## +@@oOOooooOoo.o....X.XoXoo ##",
"## +@@oOOooooOoo.o....X.XoXoo ##",
"## +@@oOOooooOoo.o....X.XoXoo ##"
};
