/* XPM */
static char *exit16[] = {
/* columns rows colors chars-per-pixel */
"16 16 20 1 ",
"  c #216B1F",
". c #247623",
"X c #277F27",
"o c #367C33",
"O c #288428",
"+ c #2A8A2A",
"@ c #2B8F2C",
"# c #2D962E",
"$ c #3F9B3F",
"% c #32A636",
"& c #35B03A",
"* c #39BD3E",
"= c #468143",
"- c #71AB6F",
"; c #3CC741",
": c #3FD445",
"> c #62DF67",
", c #8DAB8B",
"< c white",
"1 c None",
/* pixels */
"=,$$##$#++XXO@@.",
"-<>>::>:**%%&;;#",
"-<>>::>:**%%&;;#",
"-<>>::>:**%%&;;#",
"-<>>::>:**%%&;;#",
"-<>>::>:**%%&;;#",
"-<>>::>:**%%&;;#",
"1o-OOXOXXXXXXX 1",
"1-<>>:>:*%%&;;#1",
"1-<>>:>:*%%&;;#1",
"1-<>>:>:*%%&;;#1",
"1-<>>:>:*%%&;;#1",
"1-<>>:>:*%%&;;#1",
"1-<>>:>:*%%&;;#1",
"1-<>>:>:*%%&;;#1",
"1-<>>:>:*%%&;;#1"
};
