/* XPM */
static char *exit64[] = {
/* columns rows colors chars-per-pixel */
"64 64 8 1 ",
"  c #1B5717",
". c #32A636",
"X c #38BA3D",
"o c #3FD445",
"O c #85EA88",
"+ c #C6FFC6",
"@ c white",
"# c None",
/* pixels */
"                                                                ",
"                                                                ",
"  ++@@@@ooOOOOooooooooooOOoooooooo..oo..........XX..XXooXXoooo  ",
"  ++@@@@ooOOOOooooooooooOOoooooooo..oo..........XX..XXooXXoooo  ",
"  ++@@@@ooOOOOooooooooooOOoooooooo..oo..........XX..XXooXXoooo  ",
"  ++@@@@ooOOOOooooooooooOOoooooooo..oo..........XX..XXooXXoooo  ",
"  ++@@@@ooOOOOooooooooooOOoooooooo..oo..........XX..XXooXXoooo  ",
"  ++@@@@ooOOOOooooooooooOOoooooooo..oo..........XX..XXooXXoooo  ",
"  ++@@@@ooOOOOooooooooooOOoooooooo..oo..........XX..XXooXXoooo  ",
"  ++@@@@ooOOOOooooooooooOOoooooooo..oo..........XX..XXooXXoooo  ",
"  ++@@@@ooOOOOooooooooooOOoooooooo..oo..........XX..XXooXXoooo  ",
"  ++@@@@ooOOOOooooooooooOOoooooooo..oo..........XX..XXooXXoooo  ",
"  ++@@@@ooOOOOooooooooooOOoooooooo..oo..........XX..XXooXXoooo  ",
"  ++@@@@ooOOOOooooooooooOOoooooooo..oo..........XX..XXooXXoooo  ",
"  ++@@@@ooOOOOooooooooooOOoooooooo..oo..........XX..XXooXXoooo  ",
"  ++@@@@ooOOOOooooooooooOOoooooooo..oo..........XX..XXooXXoooo  ",
"  ++@@@@ooOOOOooooooooooOOoooooooo..oo..........XX..XXooXXoooo  ",
"  ++@@@@ooOOOOooooooooooOOoooooooo..oo..........XX..XXooXXoooo  ",
"  ++@@@@ooOOOOooooooooooOOoooooooo..oo..........XX..XXooXXoooo  ",
"  ++@@@@ooOOOOooooooooooOOoooooooo..oo..........XX..XXooXXoooo  ",
"  ++@@@@ooOOOOooooooooooOOoooooooo..oo..........XX..XXooXXoooo  ",
"  ++@@@@ooOOOOooooooooooOOoooooooo..oo..........XX..XXooXXoooo  ",
"  ++@@@@ooOOOOooooooooooOOoooooooo..oo..........XX..XXooXXoooo  ",
"  ++@@@@ooOOOOooooooooooOOoooooooo..oo..........XX..XXooXXoooo  ",
"  ++@@@@ooOOOOooooooooooOOoooooooo..oo..........XX..XXooXXoooo  ",
"  ++@@@@ooOOOOooooooooooOOoooooooo..oo..........XX..XXooXXoooo  ",
"  ++@@@@ooOOOOooooooooooOOoooooooo..oo..........XX..XXooXXoooo  ",
"  ++@@@@ooOOOOooooooooooOOoooooooo..oo..........XX..XXooXXoooo  ",
"                                                                ",
"                                                                ",
"####  OO++++..XXXX........XX..............................  ####",
"####  OO++++..XXXX........XX..............................  ####",
"####  ++@@@@ooOOOOooooooooOOoooo..oo........XX..XXooXXoooo  ####",
"####  ++@@@@ooOOOOooooooooOOoooo..oo........XX..XXooXXoooo  ####",
"####  ++@@@@ooOOOOooooooooOOoooo..oo........XX..XXooXXoooo  ####",
"####  ++@@@@ooOOOOooooooooOOoooo..oo........XX..XXooXXoooo  ####",
"####  ++@@@@ooOOOOooooooooOOoooo..oo........XX..XXooXXoooo  ####",
"####  ++@@@@ooOOOOooooooooOOoooo..oo........XX..XXooXXoooo  ####",
"####  ++@@@@ooOOOOooooooooOOoooo..oo........XX..XXooXXoooo  ####",
"####  ++@@@@ooOOOOooooooooOOoooo..oo........XX..XXooXXoooo  ####",
"####  ++@@@@ooOOOOooooooooOOoooo..oo........XX..XXooXXoooo  ####",
"####  ++@@@@ooOOOOooooooooOOoooo..oo........XX..XXooXXoooo  ####",
"####  ++@@@@ooOOOOooooooooOOoooo..oo........XX..XXooXXoooo  ####",
"####  ++@@@@ooOOOOooooooooOOoooo..oo........XX..XXooXXoooo  ####",
"####  ++@@@@ooOOOOooooooooOOoooo..oo........XX..XXooXXoooo  ####",
"####  ++@@@@ooOOOOooooooooOOoooo..oo........XX..XXooXXoooo  ####",
"####  ++@@@@ooOOOOooooooooOOoooo..oo........XX..XXooXXoooo  ####",
"####  ++@@@@ooOOOOooooooooOOoooo..oo........XX..XXooXXoooo  ####",
"####  ++@@@@ooOOOOooooooooOOoooo..oo........XX..XXooXXoooo  ####",
"####  ++@@@@ooOOOOooooooooOOoooo..oo........XX..XXooXXoooo  ####",
"####  ++@@@@ooOOOOooooooooOOoooo..oo........XX..XXooXXoooo  ####",
"####  ++@@@@ooOOOOooooooooOOoooo..oo........XX..XXooXXoooo  ####",
"####  ++@@@@ooOOOOooooooooOOoooo..oo........XX..XXooXXoooo  ####",
"####  ++@@@@ooOOOOooooooooOOoooo..oo........XX..XXooXXoooo  ####",
"####  ++@@@@ooOOOOooooooooOOoooo..oo........XX..XXooXXoooo  ####",
"####  ++@@@@ooOOOOooooooooOOoooo..oo........XX..XXooXXoooo  ####",
"####  ++@@@@ooOOOOooooooooOOoooo..oo........XX..XXooXXoooo  ####",
"####  ++@@@@ooOOOOooooooooOOoooo..oo........XX..XXooXXoooo  ####",
"####  ++@@@@ooOOOOooooooooOOoooo..oo........XX..XXooXXoooo  ####",
"####  ++@@@@ooOOOOooooooooOOoooo..oo........XX..XXooXXoooo  ####",
"####  ++@@@@ooOOOOooooooooOOoooo..oo........XX..XXooXXoooo  ####",
"####  ++@@@@ooOOOOooooooooOOoooo..oo........XX..XXooXXoooo  ####",
"####  ++@@@@ooOOOOooooooooOOoooo..oo........XX..XXooXXoooo  ####",
"####  ++@@@@ooOOOOooooooooOOoooo..oo........XX..XXooXXoooo  ####"
};
