/* XPM */
static char *grass16[] = {
/* columns rows colors chars-per-pixel */
"16 16 16 1 ",
"  c #5EA642",
". c #61AA44",
"X c #339933",
"o c #488D1D",
"O c #5FA843",
"+ c #669933",
"@ c #8FC562",
"# c #87C15E",
"$ c #639831",
"% c #488D1E",
"& c #488E1E",
"* c #349933",
"= c #359A34",
"- c #4BA03B",
"; c #499933",
": c #8CC15E",
/* pixels */
"  ..XXXXXooXX   ",
"  ..XXXXXooXX   ",
"XXXX..O  ++@@   ",
"XXXX..O  ++@@   ",
"XXXX..O  ++@@   ",
"@@++oooooXXXXXXX",
"@@++oooooXXXXXXX",
"##$$oo%&&****===",
"XXooXX-  ..  @@@",
"XXooXX-  ..  @@@",
"oo@@XX-  ooXXXXX",
"oo@@XX-  ooXXXXX",
"oo@@XX-  ooXXXXX",
"  @@++;XXXX  ooo",
"  @@++;XXXX  ooo",
"  ::++;XXXX  ooo"
};
