/* XPM */
static char *grass32[] = {
/* columns rows colors chars-per-pixel */
"32 32 45 1 ",
"  c #5EA642",
". c #61A944",
"X c #61AA44",
"o c #339933",
"O c #488D1D",
"+ c #429023",
"@ c #5FA843",
"# c #669933",
"$ c #71A540",
"% c #8FC562",
"& c #78BA56",
"* c #5E9E38",
"= c #599933",
"- c #51972A",
"; c #50962A",
": c #459933",
"> c #499D37",
", c #53A843",
"< c #429D38",
"1 c #6CA03A",
"2 c #87C15E",
"3 c #699E38",
"4 c #639831",
"5 c #488D1E",
"6 c #488E1E",
"7 c #349933",
"8 c #359A34",
"9 c #458F20",
"0 c #4BA03B",
"q c #60A944",
"w c #85BD58",
"e c #59A039",
"r c #87C05C",
"t c #559933",
"y c #4A9C36",
"u c #429E38",
"i c #3A952C",
"p c #409830",
"a c #4FA13D",
"s c #419124",
"d c #88C05D",
"f c #499933",
"g c #3F9C37",
"h c #85BD5A",
"j c #8CC15E",
/* pixels */
"    .XXXXoooooooooOOOO+oooo     ",
"    .XXXXoooooooooOOOO+oooo     ",
"    .XXXXoooooooooOOOO+oooo     ",
"    .XXXXoooooooooOOOO+oooo     ",
"    .XXXXoooooooooOOOO+oooo     ",
"oooooooooXXXX@    ####$%%%%     ",
"oooooooooXXXX@    ####$%%%%     ",
"oooooooooXXXX@    ####$%%%%     ",
"oooooooooXXXX@    ####$%%%%     ",
"oooooooooXXXX@    ####$%%%%     ",
"&&&&*====----;;;;;::::>,,,,<<<<<",
"%%%%1####OOOOOOOOOoooooooooooooo",
"%%%%1####OOOOOOOOOoooooooooooooo",
"%%%%1####OOOOOOOOOoooooooooooooo",
"%%%%1####OOOOOOOOOoooooooooooooo",
"222234444OOOO5666677777777788888",
"oooo9OOOOoooo0    XXXXq    %%%%%",
"oooo9OOOOoooo0    XXXXq    %%%%%",
"oooo9OOOOoooo0    XXXXq    %%%%%",
"oooo9OOOOoooo0    XXXXq    %%%%%",
"oooo9OOOOoooo0    XXXXq    %%%%%",
"OOOOw%%%%oooo0    OOOO+ooooooooo",
"OOOOw%%%%oooo0    OOOO+ooooooooo",
"OOOOw%%%%oooo0    OOOO+ooooooooo",
"OOOOw%%%%oooo0    OOOO+ooooooooo",
"OOOOw%%%%oooo0    OOOO+ooooooooo",
"eeeer%%%%ttttyuuuuiiiipaaaasssss",
"    d%%%%####foooooooog    OOOOO",
"    d%%%%####foooooooog    OOOOO",
"    d%%%%####foooooooog    OOOOO",
"    d%%%%####foooooooog    OOOOO",
"    hjjjj####foooooooog    OOOOO"
};
