/* XPM */
static char *_cbf0a2e824342329edeaf52f8370ef4643jr6AdJ9bTuLAh[] = {
/* columns rows colors chars-per-pixel */
"64 64 256 2 ",
"   c #134F05",
".  c #154F07",
"X  c #184E0C",
"o  c #0F5200",
"O  c #0F5100",
"+  c #0F5400",
"@  c #125201",
"#  c #105100",
"$  c #105300",
"%  c #155202",
"&  c #125601",
"*  c #115500",
"=  c #125500",
"-  c #135600",
";  c #155601",
":  c #145700",
">  c #165105",
",  c #1B5703",
"<  c #135800",
"1  c #165A01",
"2  c #155900",
"3  c #175D02",
"4  c #195A01",
"5  c #195A01",
"6  c #1C5B03",
"7  c #195D01",
"8  c #1D5E01",
"9  c #215A08",
"0  c #1B6101",
"q  c #1E6101",
"w  c #1E6502",
"e  c #1D6105",
"r  c #1E6504",
"t  c #1F6803",
"y  c #1F6508",
"u  c #216202",
"i  c #246302",
"p  c #226502",
"a  c #256602",
"s  c #206105",
"d  c #216605",
"f  c #256704",
"g  c #286701",
"h  c #226A02",
"j  c #266902",
"k  c #256E03",
"l  c #216804",
"z  c #256A06",
"x  c #236C07",
"c  c #266D05",
"v  c #276D06",
"b  c #296A02",
"n  c #2C6B02",
"m  c #2A6D02",
"M  c #2E6E02",
"N  c #2F6F03",
"B  c #296A05",
"V  c #296E05",
"C  c #2E6E05",
"Z  c #216609",
"A  c #266609",
"S  c #236A09",
"D  c #246A0A",
"F  c #266D09",
"G  c #2F6B0A",
"H  c #296E08",
"J  c #316F00",
"K  c #306F02",
"L  c #316F04",
"P  c #326E05",
"I  c #336E07",
"U  c #346D07",
"Y  c #326D09",
"T  c #366F0A",
"R  c #356F0B",
"E  c #356E0D",
"W  c #277106",
"Q  c #2E7102",
"!  c #2F7000",
"~  c #2F7200",
"^  c #2F7002",
"/  c #2A7206",
"(  c #2E7206",
")  c #2B7404",
"_  c #2D7606",
"`  c #2F7907",
"'  c #2A7209",
"]  c #2D720B",
"[  c #2B7409",
"{  c #2E7609",
"}  c #2F760E",
"|  c #2E7809",
" . c #2F780F",
".. c #317301",
"X. c #307000",
"o. c #307200",
"O. c #307002",
"+. c #327601",
"@. c #317400",
"#. c #327501",
"$. c #337602",
"%. c #357701",
"&. c #347702",
"*. c #327104",
"=. c #317605",
"-. c #377507",
";. c #337801",
":. c #357902",
">. c #357803",
",. c #357D02",
"<. c #377D03",
"1. c #317A06",
"2. c #367A05",
"3. c #327C06",
"4. c #377D05",
"5. c #387F03",
"6. c #397E06",
"7. c #36720A",
"8. c #317609",
"9. c #377408",
"0. c #33730E",
"q. c #317A09",
"w. c #367B08",
"e. c #337D0A",
"r. c #357D0A",
"t. c #327A0E",
"y. c #357B0F",
"u. c #337D0D",
"i. c #357E0D",
"p. c #397F09",
"a. c #3D7B0C",
"s. c #397F0D",
"d. c #327B10",
"f. c #347B10",
"g. c #387E11",
"h. c #348007",
"j. c #398003",
"k. c #3A8106",
"l. c #3B8106",
"z. c #3C8207",
"x. c #3D8506",
"c. c #3F8607",
"v. c #3E8806",
"b. c #368109",
"n. c #37810D",
"m. c #398209",
"M. c #3D8209",
"N. c #3A850A",
"B. c #3E8509",
"V. c #39820E",
"C. c #3A850E",
"Z. c #3B850D",
"A. c #3D860D",
"S. c #3E890A",
"D. c #3F8C0B",
"F. c #3E8A0D",
"G. c #398213",
"H. c #3D8611",
"J. c #3F8017",
"K. c #3C8515",
"L. c #3E8912",
"P. c #3E8814",
"I. c #3E8718",
"U. c #408906",
"Y. c #40870A",
"T. c #42830F",
"R. c #41860D",
"E. c #428A0A",
"W. c #448B0B",
"Q. c #428C0A",
"!. c #458E0A",
"~. c #428A0D",
"^. c #448A0C",
"/. c #428D0D",
"(. c #458E0D",
"). c #46900A",
"_. c #43900D",
"`. c #46920E",
"'. c #47950E",
"]. c #489309",
"[. c #4A970B",
"{. c #49930E",
"}. c #48910E",
"|. c #4A950E",
" X c #4C970E",
".X c #4B980F",
"XX c #4E9A0E",
"oX c #4F9C0E",
"OX c #509D0F",
"+X c #509F0F",
"@X c #438710",
"#X c #468613",
"$X c #408A12",
"%X c #478B11",
"&X c #428D11",
"*X c #458F10",
"=X c #408A15",
"-X c #428D14",
";X c #448E16",
":X c #488F11",
">X c #448819",
",X c #4C8F1B",
"<X c #439010",
"1X c #469212",
"2X c #479411",
"3X c #469115",
"4X c #499211",
"5X c #4A9511",
"6X c #4D9612",
"7X c #499316",
"8X c #4A9616",
"9X c #4D9616",
"0X c #4B9911",
"qX c #4E9A12",
"wX c #4D9B11",
"eX c #4E9E11",
"rX c #4F9D11",
"tX c #4E9D12",
"yX c #4B9817",
"uX c #4D9915",
"iX c #4D9A14",
"pX c #4F9C15",
"aX c #489318",
"sX c #4A9519",
"dX c #4C9718",
"fX c #4D931E",
"gX c #4B951C",
"hX c #4E9919",
"jX c #509A13",
"kX c #519E11",
"lX c #509F11",
"zX c #509D12",
"xX c #519F12",
"cX c #529F12",
"vX c #519B15",
"bX c #519D15",
"nX c #519F14",
"mX c #519E16",
"MX c #509219",
"NX c #55971E",
"BX c #529D19",
"VX c #569E1A",
"CX c #50981D",
"ZX c #549A1D",
"AX c #569E1D",
"SX c #589D1D",
"DX c #4FA10E",
"FX c #51A10D",
"GX c #51A10E",
"HX c #52A00E",
"JX c #4FA011",
"KX c #52A011",
"LX c #51A010",
"PX c #51A012",
"IX c #51A014",
"UX c #579C20",
/* pixels */
"SXVXVXVXVXVXAXT.I I U I U I I I I I I U I U I U I I I I I I I I U 9.SXVXVX,X6 > G I I I I U I U I I Y Y , % >XVXBXVXVXVXH >   X ",
"cXFXFXFX+XF.y.=.X...X.X.X.X.J X.J ..X.X.X.X.X.X.X.X.X.X.X.X.J X.! ~ ~.~.~.M.a s N J J X.X.X.X.X.X.Q f s = + -XDXDXFXLXGXN.{ e . ",
"vXlXLXDXlX[ + u X.X.^ ! X.X.X.J ..! ! X.X.X.X.X.X.X.J J X.X.X.@.X.o.~ Q o.X.! ! ~ ! ! J J J ! o.O.N 1 o O = $X+XHXGXLXHXzXmX] > ",
"f.i.u.S.^.( q b J M O.X.J ..J :.v.c.c.l.J X.X.X.J @.J X.X.! ! +.M.c.U.c.c.l...X.o.J J ~ ~ J z.B.c u W _ _ _ '.KXGXLXF.e.`.LXC.0.",
"@ o O p J ! O.K J X...J K ! ! c.LXPXnX(.! ! X.X.X.o.J J o.J ! 2.jXkXKX+X+X0X:.O.J X.! J X...6XzX6 2 $XIXcX+X+XDXGXIXW + N.LXPXUX",
"] p 8 j ^ X.J 4.B.z.x.<.X.<.M.!.HXXXW.l.X.! J X.J ..X.! ~ J J $.Q.).KXkXFXoXU.N.X.X.X...m.v.wXlXq._ '.GXHXGXLXLXL.i.{ [ q.i.`.VX",
"ZXk.O.J J J ..W.lXHXkX^.J x.cXHXPX!.o.o.J ..J ! X.X.J J ..! X.X.o.;.PXDXGXHXFXrX@.J J +..XHXHXFXGXJXPXHXDXGXHXmXF * C.BXV $ V.AX",
"%X2...<.z.z.M.N.V.`.PX).c.).JX'.V.m.B.x.z.4.o.J K J ! ! X.! o.X.K ..V.A.KX+XGXjXk g p.c.oXHXGXDXFX+XGXFXFXIXF.g.e # q.&XQ 0 ] J.",
"L X.X.!.lXcXzX{ * q.mXLXLXxXxXn.+ / zXLXcX}.X.X.^ ! X.~ K X.X.X.X.b * 0 0XDXKXhX< 2 7XLXHXHXHXLXLXLXHXLXPXBXh o $ # i O.J C 8 > ",
"N ..J M.).wXDXN.V | C.`.LX2XA.q.k m.OXXX).Y.J X.O.X.X.X.J $.l.l.l.<.c _ tXXXS.G.; < 9XHX+XlXS.S.oXkXD.C.A.V.[ x q 8 b K J O.i 9 ",
"P X.! X.@.W.HXnXmX| + } BXi.* / BXxXJX(.@.K J J ..K X.! ! ,.jXLXKXLXcXlXKX2X7 o O < sXJXLXmX0 + 1XiXr @ $ + =XbXp.O.O.X.! J K E ",
"P X.! ..J p.S.'.IX| # D L.F o d H./.].B.J ..! M X.J K J O.<.(.[.HXHXLXDXGX.X/ Z # - g.F.A.V.1 @ i.Z.' A 1 @ $XzXm.X.X.X.! J X.R ",
"P X.X.J M 8 * r.mX| o + @ o O # $ q o.X.M ! J J X.o.! J ! J X.4.oX+XJXLXLXJXIXgX2 $ $ o @ $ $ o $ 2 $XhXr + $XbXk.! o.~ ! ! X.I ",
"P X.K X.J i 6 q.3XV O # O @ 6 5 3 i O.! o.J N O.J o.o.X.J X.J :.*X}.L.P.L.H.P.K.F D S Z % $ y S S F <XPX` z <XlXw.f =.m.6.z.$.T ",
"P X.X.O.X.! M ! ~ u @ O # 8 C C L C X.X.X.J K X.! o.X.! J @.! J o.M * + = = & 3 sXpXtXaXe & ;XpXpXpXJXGXlXrXJXmXF * M.nXkXzXM.E ",
"I X.J X.O.J ! K X.j d r r V 6.+.~ X.X.X.J X.! ;.2.<.<.2.J X.X.! o.m 5 5 5 5 , e uXHXDX0XW l H.-XeXlX1X&XtXGXFXpX| d Q.cX7X-Xw.U ",
"P M ! O.X.J ..^ X.@XhXmXmXBXnXW.J ..X.X.! X.K k.zXcXcX4X..! J ..Q ! J N N C C #.qXHX+XlXmXpX7 & `.eXt < /.+XLXLXIXmXIXJXW * i T ",
"I X.X.J ..! ~ J ! z.<X5XFXFXLX].,.&.J #.<.<.,.U.+XHX+X|.@.^ X.X.X.O.X.X.J ^ J ..$X_.JXGXDXeXt 5 F.1Xf 7 (.HXDXDXGXDX2X&Xm 5 g U ",
"P M ! X.X.J J X.O.u =  .PXFXGXGXIX^...k.OXkXkXkXFXHXDX6Xo.J X.X.X.! ! ! J @.! C : 7 8XKXFXzX;.M o...N ! 5XHXDXHXLXPXW & p C L R ",
"P X.o.J J X.! ! O.i 3 ' &X[.LX+XLXQ.b w.HXHXGXFXLXqX_.R.X.! X.X.X.X.X.J ! J X.M 5 0 7XPX1X$X$.X.X.! Q O.A.<XoXFXDXPXq.r f j ..a.",
"C X.X.X.X.J @.X.K ! M u 2 | pXDXFXM.& ' xXDX+XHXLX*X1 0 N ! ! X.X.o.O.O.! K ! K M @.wX0Xw 1 M J X.K o.X.7 1 &XJXHXHXeXyXV = i.ZX",
"P J X.X.X.X.! X.X.X.O.u < 8.uX0X7Xg.3 ( KXeX5X5X0XH.2 5 N K X.X.X.o.X.K X.X.J X.! ..5X5Xq - m X.J O.J K 8 ; G.2XpXLXGXLX{ 0 V.SX",
"L X.J ..J X.! X.X.X.J N Q X.^ p = ' iXcXPXS.* 7 ~ ~ L M J J X.X.J X.o.X.K J X.! o.! o.^ M Q J J X.! ! O.*.C 7 - L.HXLXLX+XJXxXAX",
"-.%.%.o.X.X.! ! X.! K $.:.:.%.j 8 [ 1XwXxXE.0 t #.:.%.%.:.;.! ! X.K J o.%.$.X.! o.X.X.K X.o.X.X.J X.X.M J L 8 1 L.DXJXGXFXGXFXVX",
"vXzXnXz.J X.X.J X.X.o.B.rXOXkXoXpXn.2 W PXeXtXwXOXrXzXkXKX4X#.! K X.! ;.qX5X$.J o.o.K X.J X.X.X.J ! ! @.o.J M ! (.LXHXFXLXLXHXVX",
"BX X1X4.K X.X.X.X...<.^.+XDXGXFXlXn.= d 3X|.FXHXHXGXFXFXHX|.<.:.o.X.2.5.zX.X%.~ ;.2.:.>.o.K K X.! ! ! ! X.! %.3. XHXFXDX0X*XwXVX",
"mX( 3 j X.J X.J ~ S.jXOXFXGXFXLXLXn.$ @ 3 ) PXJXHXGXGXFX+XHXXX}.#.#.qXoXHXXX;.$.6X6XXX6X2.X.X.X.X.! ! X.X.X.:X.XkXLXLXLX_ 7 Z.SX",
"fXB ; a ! X.! X.! R.jXoXLXGXGXpX9Xd.* # & f sXuXjXuX6XdXsXiXJX X:.,.rXDXHXXX<.,.rXKXwX6X>.J X.o.J M X.o.X.J {.FXFXLXtXsXv - s.NX",
"5 a B M X.J J X.! @.;.S.LXFXHXN.1 * o 6 B f 1 w ..M 1 1 2 h eX+XOXOXJXDXHXHXOXXXLXrX;.+.X.^ X.X.X.Q X.J X.X.2XLXGXPX) 2 l n ~ 9.",
"% g O.J M ~ X.J ! J @.R.vXzXvXe.= = * 8 X.g = 8 o.k 1 = o q tXJXFXLXhXqXkXHXFXJXuX9X:.+.@.+.X.J J @.X.! ! ~ {.LXGXPXH ; f ! J R ",
"G ! J ! ! O.J X.X.X.X.X.;.+.=.~ C H C n ..N V w.jXqXyXI.* q wXLXDX0X3 w XXLXGXuX0 0 aXjXXXuX>.J ! ^ J J o.~ {.LXLXlX6.V M ~ ! E ",
"L ..X.J J ! ! o.J O.J ! X.M Q J J L J ! J J M p.6XoXKX<X7 z 3X0X+X5X* 3 0X+X0X3X0 0 6XcXoX6X;.K J J ! ~ X.O.&X|.lXLXc.;.O.X.J U ",
"L J M ! o.J J X.o.! ! ..K ! ..J X.! X.X.M ! o...:.x.kXOX2XA.r W oX5X* 7 0X0Xh y -X'.JXwXj.>.#...J ! o.X.J N w 0 -XKXoX X6.J O.7.",
"P *.$.#.+.~ X.X.X.J J ! J J ! ! ~ K J X.X.J J X.Q 6.8XeXPX<X3 Z 1X;X* 3 3X-X7 ; dXHXiX5X:.X.J M J J +...$.$.8 = G.uXeXLXx.#.! R ",
"P E. XXX6Xz.X.X.X.X.X.o.! ! J X.X.o.X.M ! X.X...J b 0 k bXrX'.C.w 0 O # 7 7 @ & uXiXd w m K J ! ! ..(.6XXX6X=.V u 0 D.KXoX[.z.T ",
"L ].+XJXpXM.X.X.X.X.J X.X.X.! X.X.X.O.X.J J J X.K f $ w mXJXnX-X; O @ O # $ @ < 9XhX3 ; b ! ! @.J ..:XnXKXKX5.~ 5 = Z.HXFXKXz.U ",
"6X+XzX` 3 j J X.X.X.X.! ! X.o.J J X.X.X.X.Q ! ..X.X.b M >.( 7 5 O @ B n b b n n =.:.b n K J 4X0X>.^ q e *XGXoX6Xw.n (.HXDXlXB.T ",
"mXoXuXW < j #.@.X.X.....J J ~ ! J J O.X.#.#.#.@.~ #.J J O.b = = @ ; N O.J X.K ~ J J X.X.X...1XuX:...0 1 $XXX+XGXk.+.].kXGXGXc.7.",
"BX` l e.-X2X{.k.X.M.5XB.! ! ..J ! X.! <. X X|.'.|.W.#.K X.M j B g n O.X.X.X.X.X.J ^ ! X.J ..y l ~.|.*X$XV w 1XLXXX|.oXDXFXHXXXMX",
"CXc & N.LXGXqXc.J E.JXE.....! ! J ....z.+XFXHXGXkX*X@.! J ! K K X.o.X.X.X.X.! ! X.J o.X.Q ^ 1 & 1XFXkXxXh < $XLXGXFXHXGXzXiXlXVX",
"u e.&X0XGXQ.,.+.o.U.LXoX|.M.~ K J 6.|.XXHXGX+X[.j.:.J J K o.X.! J X.o.J X.X.X.! ! ! ~ ..(.4XQ m |.DXFXGX`.D.tXGXGXDXGXHX3.t F.AX",
"  C.PXeXbXM.J X.@.E.KXLXLXE.~ X.X.M.KXGXDXHXBX:XQ X.X.! X.o.X.J J ! ~ X.X.J X.X.! J o.;..XpX;...6XmXlXGXDXGXPXcXnXmXcXLXV + n.UX",
"# Z.cXh.d V J X.o.U.LX+XHXoX4XY.o.k.FXHXPX_.t a ^ ..X.o.! X.o.J ! X.o.J X.! X.X.X.o.`.|.OXkX;...l h `.+XLXKXv.,.W w Q.IXp.b ..a.",
"% V.hXH $ p J K ..R.pXJXcXLXpX~...M.pXeXJXS.- 7 ~ ~ ~ o.K J X.X.X.! ~ o.o.~ @.J X.+.qXDXFXnX$.M 1 1 (.DXDXcXj.J 8 = Z.vXl.! J T ",
"A l A z z n ..X.! m S C.IXF.S v N V z i.JX.XL.&X}.{.}.~.@.X.M ^ X.%.4X}.}.}.{.*X#.+.0XHXGXpXp 5 G.$XwX+XFXKX6.N j f =.l.#.O.J R ",
"G 8 # i J ! ! ! N q &  .vXt.* q C u = W eXDXKXPXLXLXzX2Xo.X.X.^ ! $.bXlXHXkXHXzX+.%.iXzXrXlX0 * 3XGXHXHXJXpX5.^ ! J J J ..X.! R ",
"C b a n J O.X.X.^ m a ( l.=.a u 5 V C._.KXGXGXHXGX1Xv v K J X.J X...l.c.OXGXFX+X].(./ / |.LXS.F.wXFXFXPX` F m ..^ X.! ! J J K R ",
"P J O.O.! J O.O.J X.J ! X.K X.i + ' BXzXJXxXIXIXcXL.; 1 L ! ! J L ! J ;.wXcXLXHXLXdX3 3 -XmX+X+XGXFXcXmXw @ f ! X.X.J X.! X.^ U ",
"P ! Q J ..X.Q J X.X.J ! O.j.).~.C.3.H c c v F ( x.3.g g M O.X.K ! X.! Q m _ 0XDXHXyX3 + d W .XGXGXeX1.c p a M ! X.X.X.! J X.O.7.",
"I X.X.! ..X.o.! J o.X.O.O.v.cXkXPXn.$ o o o + 5 M ! J J ^ ! X.X.X.X.! m - 0 7X+X+XhX7 o O 2 '.LXkXuXt = b ^ X.X.X.J J o.J K ! Y ",
"P M ! o...p.(.l.X.! ! l.!.[.KXGXFXi.+ e g.V.V.e.X...X.X.X.! X.O.X.X.o.M a d H | wXzXA.n.G.C.wXlXq.H f i M ! X.X.K X.! ! J X.J R ",
"P J J J J Q.mXc.o.K ..Y.HXHXDXLXxXn.& H nXcXcX}.~ X.X.X.O.X.X.J X.O.X.J O.V - 3 sXHXLXDX+XDXDXzX0 : j ! X.O.X.X.X.X.X...X.! M R ",
"L K X.J o._ ] 6./.k.! B.PXGXKX/.[ | i.F.KX'.[ ' M J o.X.X.X.X.K ! J X.! ....r.n.tXFXGXDXDXFXFXlXN.n.R.!.:.X.X.X.O.X.X.! ! J J 7.",
"L X...! X.8 + e.nXU...U.KXGX+Xn.* ' IXlXnXA.= 5 Q o.o.X.K K o.! ! ! O.J Q &.XXDXGXHXKXKXIXcXLXJXDXDXmXpX5.X.X.X.X.X.X.J O.! M R ",
"P z.E.E.E.z O i.PX{.Q.'.LXHXHX`.u.D.rX_._ _ u.m.E.M.J X.X.%.E.M.@.X.O.#.Y.!.oXGXDXzX3.[ ` ` 0XLXFX+Xb._ O.K X...X.X.K X.~ X.J T ",
"L :XnXzXIX' + r.DXGXGXGXFXJXHXGXDXPXLXC.* j pXcXnX4X@.X.M 4.vX6X+.Q X.;.wXHXPXIXDXiX3 # o < 4XcXJXiXd - g ^ M O.X.X.J J ..! ! I ",
"@Xw.` (.PXL.t._.DXGXFXHXLXFXGXFXFXLXFX'.u.S.JX'.q.8...O.! ^ 8.w.Y.E.Y.!.LXXXh.q.tXtXn. .l p l.c.D.c.c u n J @.X.K K X.! ! J J R ",
"BXv + G.PXPXLXDXGXLXPXHXHXLXJXLXGXGXLXDXJXJXIXA.= 5 M Q O.B = r 6XDX+XLXGX1X3 3 yX+X+XuX2.! ~ X.M ! ! N X.! ! X.J o.X.o.J ! ! I ",
"BXF + D d.<X+XLXLX<Xd.&XPX<Xd.F.HXFXDX+XHX5Xd.t. .u.Y.p.u d } i.kXDXFXHXFXwXi.e.iX+XQ.S.=.J X.O.J ! X.X.X.X.X.X.z.Y.2.X.! o.6.#X",
"BXz o O @ n.LXGXpX| +  .pXr.< / mXKXGXGX+XA.$ z pXcXnX;X@ d hXmXcXKXHXDXDXJXJXJXLX+X;.! @.J ! M ..X.X.X.X.K ..Q :XcXp.K ..O.Q.SX",
"mXB @ 5 q A.lXQ.d.H q 8.~.=.e z f.F.DX.X/.6.0 8.zX5Xi.} s p t.d.t.i.^.!.HXHXDXGXGX+XU.c.v.z.j u M ! l.c.c.Y.m u *XcX=.p ;.c.'.SX",
"ZXv $ i K Q.IX_ $ q N O.o.! N p = ' kX(...X.! k.bX=X; 2 C b - o o ; ~ ;.rXHXLXlXHXLXIXcXKXhX0 $ n ..4XcXlXBXt = K.mXF = Z.PXLXVX",
"y._ [ 6.x.U.~.=.q a J J @.X.N j u / ^.z.J ..! 2.^.s.q u N n 8 u ' _ x.M.b.i.i.m.eXrXN.n.S.^.i q n ~ 2.b.0XcXh.) 2XLXb.) _.+XGXSX",
"@ C.mXmXzXB.J J N *.X.J O.X.K J J J X.J K K J M ..J M *.J J L 2.vXmXmX1X1 o $ & uXdX7 ; m ! ! L N M 1 & &XKXlXmXLXKXlXxXKXKX+XVX"
};
