/* XPM */
static char *_e6084da7e1c418bea8bfe937f9629c6op3ZsQM4oukXR0zM[] = {
/* columns rows colors chars-per-pixel */
"64 64 255 2 ",
"   c None",
".  c #3A0B01",
"X  c #3B1508",
"o  c #2D1513",
"O  c #3D1B17",
"+  c #471807",
"@  c #561D0E",
"#  c #481D16",
"$  c #601E06",
"%  c #48220F",
"&  c #5D200B",
"*  c #4B2518",
"=  c #56291B",
"-  c #59301E",
";  c #682A15",
":  c #762F19",
">  c #69311D",
",  c #793419",
"<  c #4F2620",
"1  c #582B22",
"2  c #41322F",
"3  c #563428",
"4  c #462D30",
"5  c #483737",
"6  c #593D38",
"7  c #673927",
"8  c #773A27",
"9  c #7D3C23",
"0  c #613B30",
"q  c #5F443D",
"w  c #6D412D",
"e  c #73432E",
"r  c #7C432C",
"t  c #7B492B",
"y  c #6A4336",
"u  c #744633",
"i  c #7A4736",
"p  c #7C4B34",
"a  c #7D533D",
"s  c #574341",
"d  c #624745",
"f  c #734E42",
"g  c #6D514D",
"h  c #795448",
"j  c #6D5853",
"k  c #775B55",
"l  c #75645C",
"z  c #852817",
"x  c #922A1F",
"c  c #883D1B",
"v  c #853D27",
"b  c #89441B",
"n  c #91431C",
"m  c #8B4223",
"M  c #85462A",
"N  c #8B442C",
"B  c #8B4B2D",
"V  c #964728",
"C  c #934B2B",
"Z  c #87512F",
"A  c #97522D",
"S  c #834432",
"D  c #844C34",
"F  c #8C4C33",
"G  c #894A36",
"H  c #974936",
"J  c #944C34",
"K  c #8C5336",
"L  c #83533A",
"P  c #895539",
"I  c #945333",
"U  c #985937",
"Y  c #94553C",
"T  c #9B543C",
"R  c #9B5A3C",
"E  c #A04A2F",
"W  c #A7532D",
"Q  c #B05C2E",
"!  c #A64C37",
"~  c #A65837",
"^  c #A35D3C",
"/  c #AB5D3C",
"(  c #B25B3A",
")  c #9D613A",
"_  c #A2623D",
"`  c #AB623E",
"'  c #AF683E",
"]  c #B3613E",
"[  c #C8582B",
"{  c #D35A3B",
"}  c #C3673C",
"|  c #8A4B42",
" . c #984241",
".. c #8B5A43",
"X. c #895945",
"o. c #965945",
"O. c #935C44",
"+. c #9C5C42",
"@. c #A35D43",
"#. c #A85945",
"$. c #AA5C45",
"%. c #B65D47",
"&. c #8D614B",
"*. c #946145",
"=. c #9D6344",
"-. c #94654C",
";. c #9C654B",
":. c #8B6656",
">. c #976A57",
",. c #8F705E",
"<. c #9A735C",
"1. c #A36443",
"2. c #AC6442",
"3. c #AB6943",
"4. c #A4654A",
"5. c #AA654A",
"6. c #A56A49",
"7. c #AC6B4C",
"8. c #B46543",
"9. c #B36B44",
"0. c #BA6845",
"q. c #B36D4B",
"w. c #BB6D4B",
"e. c #AB724B",
"r. c #B3724B",
"t. c #B77648",
"y. c #BD724B",
"u. c #A86A52",
"i. c #B36D54",
"p. c #BC6E52",
"a. c #BB6858",
"s. c #A77558",
"d. c #BC7253",
"f. c #B7775A",
"g. c #8E6960",
"h. c #976E62",
"j. c #9B7465",
"k. c #A47865",
"l. c #AA7B64",
"z. c #B77A65",
"x. c #C36C45",
"c. c #C26E4A",
"v. c #C4734C",
"b. c #CA754C",
"n. c #C9784B",
"m. c #D4774C",
"M. c #C76C54",
"N. c #C47452",
"B. c #CA7552",
"V. c #C57953",
"C. c #CC7A53",
"Z. c #C77B5B",
"A. c #D17C54",
"S. c #D67E58",
"D. c #E17C5A",
"F. c #C47C65",
"G. c #D47B65",
"H. c #B9814B",
"J. c #BC8656",
"K. c #AC8569",
"L. c #B98569",
"P. c #BA9060",
"I. c #AE8A77",
"U. c #BA8B78",
"Y. c #B89170",
"T. c #C2804E",
"R. c #D4814F",
"E. c #C78756",
"W. c #CC845C",
"Q. c #D58155",
"!. c #DA8457",
"~. c #D28857",
"^. c #D5825B",
"/. c #DA855B",
"(. c #D28B5B",
"). c #DD8A5C",
"_. c #CA935A",
"`. c #D2965E",
"'. c #E38659",
"]. c #E28D5E",
"[. c #E3915F",
"{. c #D3A45E",
"}. c #C38463",
"|. c #C98867",
" X c #C48B6D",
".X c #D28664",
"XX c #DC8C62",
"oX c #D68A68",
"OX c #CC9866",
"+X c #D49363",
"@X c #DB9364",
"#X c #D39C64",
"$X c #DC946B",
"%X c #D5986B",
"&X c #DB9B6C",
"*X c #C48B73",
"=X c #D98C72",
"-X c #C99478",
";X c #D39573",
":X c #D79977",
">X c #DD9B73",
",X c #DB9C7A",
"<X c #E28D64",
"1X c #E38C68",
"2X c #E49263",
"3X c #E99965",
"4X c #E3956C",
"5X c #EA966C",
"6X c #E79968",
"7X c #EA9B6C",
"8X c #F19F6F",
"9X c #E78B78",
"0X c #E59676",
"qX c #E49C74",
"wX c #EB9C73",
"eX c #E49D7A",
"rX c #F09F71",
"tX c #CCA267",
"yX c #D3A464",
"uX c #D7A66B",
"iX c #DAAC6C",
"pX c #CAA77A",
"aX c #D6A874",
"sX c #DDA27C",
"dX c #DDB373",
"fX c #DBB778",
"gX c #EBA16E",
"hX c #E4A273",
"jX c #ECA374",
"kX c #E4A47C",
"lX c #ECA47B",
"zX c #E7A97C",
"xX c #F1A473",
"cX c #F4A97D",
"vX c #E2BA75",
"bX c #E3B479",
"nX c #B69887",
"mX c #C99B86",
"MX c #D59D84",
"NX c #E49989",
"BX c #F39A88",
"VX c #DBA385",
"CX c #D8BA88",
"ZX c #DBAD95",
"AX c #CCBA96",
"SX c #D4BD95",
"DX c #E7A581",
"FX c #EBAA83",
"GX c #F6AB82",
"HX c #E9BA84",
"JX c #F6BF8D",
"KX c #F0AF9B",
"LX c #F9BB93",
"PX c #FBCB94",
"IX c #D1C2A1",
/* pixels */
"                                                                                                                                ",
"                                                                                                                                ",
"                                                          *.*.*.L L p Z t t                                                     ",
"                                                    l.>.-.....L p L p e p i a e                                                 ",
"                                                k.>.X.a a X...X...p a 7 7 7 0 y w                                               ",
"                                              <.,.a X.&.>.-.;...P K P G u u 7 7 w w                                             ",
"                                            ,.>.h.-.s.f.J.f.+.Y ;.+.Y K D p i w y 7 u                                           ",
"                                          j.>.K.s.f. X}.|.f.7.7.f.4.1.+.Y K D u e 0 - w w                                       ",
"                                        k.j.L.s.z.*X*X.X.Xf.d.i.a.i.u.@.@.4.Y K e e e 7 u e                                     ",
"                                      k.l.U.L.F.|.}.oX=XG.F.i.i.5.4.@.T @.^ ^ R B t p u u w e                                   ",
"                                    l.l.l. XL.f.|.Z..X.XZ.f.5.#.;.o.T T T ^ T C B F K p u e u h                                 ",
"                                K.L.K.P. X X}.q.q..X.X|.a.u.o.o.S r | G N B F T B 9 M r t Z P u k                               ",
"                              I.K.L.P.|.}.z.d.d..X$XoX.XZ.d.i.u.o.o.Y T T T R R I N 9 B r Z P p p a                             ",
"                              K.L.}.P. X}.J.d..X$XeX0X=XoXG.G.M.a.%.$.$.#.#.5.T U J F B Z K ) P Z a                             ",
"                            nX*XP. X|.W.W.V..X1X0XeX0X9X=XG.G.M.%.%.%.%.! H V H T T N B C B _ 3.K Z ..                          ",
"                          I.:X%X%X$XE.' y.W..X4X5XG.G.9X9XM.%.] _ ^ / A V H !  .v v A C A A _ 3.1.I ) ..                        ",
"                          mX;X%X>X&XE.t.' V.^.1XG.M.G.M.M.(.aXPXbXzXFXaXr.r.N M , : S B I ) ) ' 3.) P *.X.                      ",
"                        mX,XOX%X%X$XE.y.` ` N.Z.~ V.zXJXJXPXHXPXHXbXzXhXT.W.3.r...@ @ : B B I e.r.3.U =.*.                      ",
"                        VXsXsX%XqX@XT.r.^ C v > G KXFXLXhXrX$XlXoXc.C.v.~ ! C U 9 @ . @ 8 F U b e.i.I ) ;.                      ",
"                      nXsX&X&X&X&XoXA V.R 9 & ; G p.f.p.p.] 8.%.( ! E V H E H H V | S S S I Y , ^ ` ) I =.-.                    ",
"                      mXsXaX+X&X@XW.C Z.f.i.f.F.=X=X9X=X9XZ.p.p.%.%.#.$.#.T  .J S G S r G D M ; 8.7.^ 1.6.=.                    ",
"                    KXMXsXaX+XhX@XV.m 5.f.f.z.F.F.=XF.F.F.5.$.T H N , | J S v 8 > 8 8 8 8 r 9 , 8.2.^ _ 1.6.                    ",
"                  FXeX:XzXkX>XhXqXoXw.V F +.F.F.z.z.z.u.4.Y I 5.}.N.a.i., ; ; ; > 9 9 9 , m V 0.8.2.@._ =.*.                    ",
"                  eX>X,XaXkX>XkXeX0XZ.p.V H #.z.|.F.z.7.Y I d.=X/.n.c.w.2.@.+.F 9 9 , m n E 0.0.8./ ^ @.4.>.                    ",
"                  eXeX>XzXkXhXhXDXeX4X/.c.( H %.Z.G..XwXlXlXjXwX1XS.M.w./ ~ ` 2.2.C V n ] c.c.x.%.] $.1.;.;.                    ",
"                0XlX%X;XzXzXzXzXDXFXDXwX1XG.} ( ( !.5XcXGXlXGXGXwX<XS.B.w.$.3.w.` V V } b.B.Z.B.p.q.q.1.;.4.k                   ",
"                1X9X8.%XzXFXzXFXzXFXGXeXwX1XA.x.} x.'.8X7XwXlXcXwX1X/.N.w.` ' ' V C W v.m.C.C.B.d.p.q.6.;.;.|                   ",
"                D.jXc.%XsXzXFXFXFXFXlXlXwX5X/.Q.D.m.b.R.[.5XrXcXrX1X^.N.8.` / U W ~ ] b.C.A.A.C.y.p.3._ ;.+.S  .                ",
"              BX'.xXm.%XDXFXzXzXFXGXcXjX5X<X'.D.'.'.'.<X3X7X7X7XrX1XD.c./ / ` ` ` ( x.b.b.A.A.n.v.w._ _ =.+.G x ,.              ",
"            ,X{ ].GXwX;XsXzXzXzXFXjX5X5X5X].!.m.m.).].[.7XrX8X8X5X1XA.0.` 2./ ~ / ~ ] 0.} v.v.v.x.9.' ) O.O...z h.              ",
"            D.[ ].GXGX+XkXzXzXjXhX7X6X].!.b.} } c.C.^.).XX7XrXxXwX1XS.x.$.^ / ~ V m n c c n n n V ) ) U P O.X.v g.              ",
"            D.[ 1XGXeX;X,X>XhXlXhX6X)./.m.x.Q W W ~ 8.v.Q.XX7XrX5X1XS.c.8.~ A V , , v A E E ~ C A m B Z D ..u T :.              ",
"            ZX} /..X@.l.,XsX+XW.+XXX.X|.d.Z.p.8.T H v N H y.~.2XrX5X).C.( V : & X % * 1 < * * X . + r r D ..0 k                 ",
"              NXNXz.X.X.L.:X:X+XW.H.b K | i i u = % * + $ ` C.<X7X7XXXn.W c ; ; @ # O O O # # * > p S D L :.3                   ",
"                U.I.h -.s.MX>X|.E.|.C ; = X s 4 o X # $ 9 / v.XXgX5X/.v.W c , : S r 8 N N N | T Y K G p L :.3                   ",
"                    k g.s.MXVX;X X}.|.F. Xf.i.5._ ~ ~ ` ` w.N.W.4XwX<XC.( A N 9 S S G Y ;.;.-.r 8 i 7 w X.&.q 5                 ",
"                    l h.>.MXsX:X Xs.f.*X*Xi.u.5.6.T T @.1.+.A ~ A.0X1XA.8.` J 8 - = < * < # < < 1 1 7 p *.-.f 2                 ",
"                    g j.k.-XVXeX:X XO.o.&.D 7 = * = - 7 ; r J / N.1X1XA.v.y.$.F - 1 * O * * = - 7 i =.+.O.;.h 5                 ",
"                    d k.l.-XVXDX,XVX Xs.o.D e 7 = - 7 - - F 2.c.C.1X1X^.B.C.w.2.+.Y D w i i | O.=.4.4.=.=.-.f 2                 ",
"                    j j.l.L.,XFXkXkXeX,X;XJ.}.7.6.4._ +.d.Z.^.XX^./.1X/.^.^.A.n.V.V.y.r.q.r.w.r.9.3.3.1.=.*.f 5                 ",
"                      h.K.U.:XVXDXeXlXjXgXgX6X7X7XhX7X4XwX4X5X<X^.).1X).)./.S.A.C.C.v.y.0.0.9.8.' ` 3.1.=.O.f s                 ",
"                      j.z.*X;XkXkXlXzXjXgXgXgXgX7X7XgX7X7X7X7X2XXX).].)././.~.A.C.C.n.v.y.9.9.9.' 3.3.1.=.P f                   ",
"                      g.L.L.;XeXsXDXlXlXgXgXxXgXjXxXxXgX3X7X5X<X/./.).!.).Q.Q.A.A.C.C.n.w.w.9.9.3.3.3._ ;.*.q                   ",
"                      j k.L.;X>XeXkXlXlXlXlXjXxXgX8XgXgX3X[.3X).!.).).).!.!.!.R.A.A.C.n.v.y.y.9.' 3.3.;.;.O.s                   ",
"                        h.z.|.>X$XlXzXcXlXjXjXjXxXxXgX3X2X[.[.!.!.!.~.'.).).!.~.A.A.C.C.v.v.w.9.9.q.6.4.;.&.                    ",
"                        k k. X>XhXeXlXlXlXjXcXjXxXgX3X3X[.].[.!.).!././.).).Q.R.^.Q.A.C.V.w.y.q.q.r.7.1.>.k                     ",
"                        d ,.L.%X>XqXwXlXjXlXcXgXxXgX7X3X3X[.].!.!.R./.)./././.Q.!.R.Q.C.V.y.y.q.q.r.u.;.h.q                     ",
"                          q &.;X>X>XqXqXwXjXjXxXxX3X3X[.3X[.).].).!././.(.)././.^.Q.Q.C.V.N.y.r.r.7.u.>.d                       ",
"                            6 z.%X>X4X0XqXqX7X6X3X3X3X3X[.[.).).~.).).)././././././.Q.C.V.v.d.t.e.7.>.j                         ",
"                            l :. X>X$X$X4XqXgX6X3X2X3X[.[.[.).].).)./.^.^./..X^.^.A.A.A.C.v.d.q.e.u.j.                          ",
"                              I.Z J.%X%X$X4X6X2X3X6X2X[.[.].).).).[.XX^.^.^.^.^.^.A.A.V.N.y.r.r.s.s.                            ",
"                              AXs.U W.$XXX@X@X2X2X2X[.[.[.).).[.XX/.^.^.A.C.A.A.W.A.R.V.v.H.t.r.s.<.                            ",
"                              SXVXP.H.W.+X$X).@X].@X2XXX].@X[.@X~.(.R.E.n.C.C.n.C.n.V.t.t.t.e.s.<.                              ",
"                              IXCXpX_.+X#X`.(.W.(.XX).@X).@X@X`.6X`._.R.T.n.y.t.t.t.t.e.e.e.e.<.                                ",
"                                AXCXfXtX#X#X&X&X@X(.(.(.%X#X@X#X`.E.T.E.T.T.H.T.H.t.e.3.e.e.K.                                  ",
"                                  SXHXCXuXuXuXuX#X`._.(.uX#X#X`.H._._._._.E.H.H.J.P.H.e.s.K.                                    ",
"                                    SXCXdXaXtXuXuX#X_.{.iXyXtX#XOXtX#XOX_.H.H.J.J.H.H.k.K.                                      ",
"                                      AXCXfXdXyX{.iXiXyXdXyXvXdXiXdX{.{._._.uX_.P.P.Y.                                          ",
"                                        AXCXfXdXvXfXvXdXvXvXvXvXdXiX{.iX{.{.tX_.tXmX                                            ",
"                                          IXSXfXfXvXvXdXvXfXvXvXfXiXiX{.{.iXaXtXpX                                              ",
"                                              AXSXSXCXCXCXfXfXaXaXtXuXdXaXpXpXpX                                                ",
"                                                                                                                                ",
"                                                                                                                                ",
"                                                                                                                                "
};
