/* XPM */
static char *_d0934933f6c4a55c1fda1c2e8b7b72fi9dTv6Ko8n0wk26d[] = {
/* columns rows colors chars-per-pixel */
"64 64 255 2 ",
"   c None",
".  c #3A0B01",
"X  c #3B1508",
"o  c #2D1513",
"O  c #3D1B17",
"+  c #471807",
"@  c #561D0E",
"#  c #481D16",
"$  c #601E06",
"%  c #48220F",
"&  c #5D200B",
"*  c #4B2518",
"=  c #56291B",
"-  c #59301E",
";  c #682A15",
":  c #762F19",
">  c #69311D",
",  c #793419",
"<  c #4F2620",
"1  c #582B22",
"2  c #41322F",
"3  c #563428",
"4  c #462D30",
"5  c #483737",
"6  c #593D38",
"7  c #673927",
"8  c #773A27",
"9  c #7D3C23",
"0  c #613B30",
"q  c #5F443D",
"w  c #6D412D",
"e  c #73432E",
"r  c #7C432C",
"t  c #7B492B",
"y  c #6A4336",
"u  c #744633",
"i  c #7A4736",
"p  c #7C4B34",
"a  c #7D533D",
"s  c #574341",
"d  c #624745",
"f  c #734E42",
"g  c #6D514D",
"h  c #795448",
"j  c #6D5853",
"k  c #775B55",
"l  c #75645C",
"z  c #852817",
"x  c #922A1F",
"c  c #883D1B",
"v  c #853D27",
"b  c #89441B",
"n  c #91431C",
"m  c #8B4223",
"M  c #85462A",
"N  c #8B442C",
"B  c #8B4B2D",
"V  c #964728",
"C  c #934B2B",
"Z  c #87512F",
"A  c #97522D",
"S  c #834432",
"D  c #844C34",
"F  c #8C4C33",
"G  c #894A36",
"H  c #974936",
"J  c #944C34",
"K  c #8C5336",
"L  c #83533A",
"P  c #895539",
"I  c #945333",
"U  c #985937",
"Y  c #94553C",
"T  c #9B543C",
"R  c #9B5A3C",
"E  c #A04A2F",
"W  c #A7532D",
"Q  c #B05C2E",
"!  c #A64C37",
"~  c #A65837",
"^  c #A35D3C",
"/  c #AB5D3C",
"(  c #B25B3A",
")  c #9D613A",
"_  c #A2623D",
"`  c #AB623E",
"'  c #AF683E",
"]  c #B3613E",
"[  c #C8582B",
"{  c #D35A3B",
"}  c #C3673C",
"|  c #8A4B42",
" . c #984241",
".. c #8B5A43",
"X. c #895945",
"o. c #965945",
"O. c #935C44",
"+. c #9C5C42",
"@. c #A35D43",
"#. c #A85945",
"$. c #AA5C45",
"%. c #B65D47",
"&. c #8D614B",
"*. c #946145",
"=. c #9D6344",
"-. c #94654C",
";. c #9C654B",
":. c #8B6656",
">. c #976A57",
",. c #8F705E",
"<. c #9A735C",
"1. c #A36443",
"2. c #AC6442",
"3. c #AB6943",
"4. c #A4654A",
"5. c #AA654A",
"6. c #A56A49",
"7. c #AC6B4C",
"8. c #B46543",
"9. c #B36B44",
"0. c #BA6845",
"q. c #B36D4B",
"w. c #BB6D4B",
"e. c #AB724B",
"r. c #B3724B",
"t. c #B77648",
"y. c #BD724B",
"u. c #A86A52",
"i. c #B36D54",
"p. c #BC6E52",
"a. c #BB6858",
"s. c #A77558",
"d. c #BC7253",
"f. c #B7775A",
"g. c #8E6960",
"h. c #976E62",
"j. c #9B7465",
"k. c #A47865",
"l. c #AA7B64",
"z. c #B77A65",
"x. c #C36C45",
"c. c #C26E4A",
"v. c #C4734C",
"b. c #CA754C",
"n. c #C9784B",
"m. c #D4774C",
"M. c #C76C54",
"N. c #C47452",
"B. c #CA7552",
"V. c #C57953",
"C. c #CC7A53",
"Z. c #C77B5B",
"A. c #D17C54",
"S. c #D67E58",
"D. c #E17C5A",
"F. c #C47C65",
"G. c #D47B65",
"H. c #B9814B",
"J. c #BC8656",
"K. c #AC8569",
"L. c #B98569",
"P. c #BA9060",
"I. c #AE8A77",
"U. c #BA8B78",
"Y. c #B89170",
"T. c #C2804E",
"R. c #D4814F",
"E. c #C78756",
"W. c #CC845C",
"Q. c #D58155",
"!. c #DA8457",
"~. c #D28857",
"^. c #D5825B",
"/. c #DA855B",
"(. c #D28B5B",
"). c #DD8A5C",
"_. c #CA935A",
"`. c #D2965E",
"'. c #E38659",
"]. c #E28D5E",
"[. c #E3915F",
"{. c #D3A45E",
"}. c #C38463",
"|. c #C98867",
" X c #C48B6D",
".X c #D28664",
"XX c #DC8C62",
"oX c #D68A68",
"OX c #CC9866",
"+X c #D49363",
"@X c #DB9364",
"#X c #D39C64",
"$X c #DC946B",
"%X c #D5986B",
"&X c #DB9B6C",
"*X c #C48B73",
"=X c #D98C72",
"-X c #C99478",
";X c #D39573",
":X c #D79977",
">X c #DD9B73",
",X c #DB9C7A",
"<X c #E28D64",
"1X c #E38C68",
"2X c #E49263",
"3X c #E99965",
"4X c #E3956C",
"5X c #EA966C",
"6X c #E79968",
"7X c #EA9B6C",
"8X c #F19F6F",
"9X c #E78B78",
"0X c #E59676",
"qX c #E49C74",
"wX c #EB9C73",
"eX c #E49D7A",
"rX c #F09F71",
"tX c #CCA267",
"yX c #D3A464",
"uX c #D7A66B",
"iX c #DAAC6C",
"pX c #CAA77A",
"aX c #D6A874",
"sX c #DDA27C",
"dX c #DDB373",
"fX c #DBB778",
"gX c #EBA16E",
"hX c #E4A273",
"jX c #ECA374",
"kX c #E4A47C",
"lX c #ECA47B",
"zX c #E7A97C",
"xX c #F1A473",
"cX c #F4A97D",
"vX c #E2BA75",
"bX c #E3B479",
"nX c #B69887",
"mX c #C99B86",
"MX c #D59D84",
"NX c #E49989",
"BX c #F39A88",
"VX c #DBA385",
"CX c #D8BA88",
"ZX c #DBAD95",
"AX c #CCBA96",
"SX c #D4BD95",
"DX c #E7A581",
"FX c #EBAA83",
"GX c #F6AB82",
"HX c #E9BA84",
"JX c #F6BF8D",
"KX c #F0AF9B",
"LX c #F9BB93",
"PX c #FBCB94",
"IX c #D1C2A1",
/* pixels */
"                                                                                                                                ",
"                                                                                                                                ",
"                                                                                                                                ",
"                                                                                                                                ",
"                                                                                                                                ",
"                                                                                                                                ",
"                                                                                                                                ",
"                                                        ,.h.g.:.                                                                ",
"                                                       .x z v T k     5 2 5 2 5 s                                               ",
"                                                  k | S G ..X.u 0 3 3 q f h f f f f q s                                         ",
"                                      -.=.6.*.>.;.4.;.+.+.O.O.....:.:.&.-.;.-.*.O.P *.O.&.k q                                   ",
"                                X.*.;.=.6.1.=.4.;.;.;.;.=.O.P D D L L X.*.O.=.=.=.=.;.;.;.>.h.d                                 ",
"                              ..*.=.) I 1._ _ @.1.1.6._ _ ) U Z r D p w p +.=.1.1.1._ ;.4.1.;.>.j                               ",
"                            ..) P U I ) ^ ^ @.^ $.q.q.3._ ' ) B r S G 7 7 =.4.3.3.3.3.3.6.7.u.u.>.j.                            ",
"                        a a Z I ) 3.i.` 7.2.2./ ] q.p.p.w.9.) m + p K i 1 i 4.3.` 3.3.3.q.r.r.7.7.u.s.<.                        ",
"                      k p Z K 1.3.r.e.^ 8.8.8.8.%.p.d.y.v.x.V A . > Y 8 1 7 =.9.' ' 3.' 9.q.q.r.e.e.s.s.<.                      ",
"                    h u p P 3.3.' e.b , ; , 0.0.x.B.B.C.n.v.n C X * T r < - O.r.8.9.9.9.9.q.q.r.t.q.r.r.s.<.                    ",
"                  e u P P ) _ _ ) I U Y M 9 V 0.c.Z.C.A.A.v.n ~ * # | -.< = | w.9.9.9.y.w.y.y.y.d.d.r.t.e.e.K.                  ",
"                e w e Z Z K B A ) B F I D r m E c.B.C.A.A.v.n E * # N ;.# * i r.0.9.w.y.v.w.y.N.v.v.y.H.t.e.e.K.                ",
"              w u u u t r Z C A I B 8 S G 8 , n ] b.m.C.b.} c E < O N ;.< * i q.0.y.w.v.v.V.V.V.V.C.N.v.t.e.e.s.K.              ",
"              w 7 u p r B B B C B : @ S r 8 9 m n } v.b.b.0.c A 1 O N Y * O w r.y.v.n.n.C.C.C.C.C.A.V.V.t.e.3.e.k.              ",
"            u - e p K M 9 F N A S @ . S S 8 9 , V V W ] x.] n v * O 8 G < * D y.v.n.C.C.C.A.Q.Q.Q.A.A.R.V.t.e.H.H.Y.            ",
"          w 7 0 e t F 9 N J T v : @ @ | G 8 9 9 C V C ~ ( ~ m , % # r S = 1 Y V.C.C.C.A.A.Q.R.Q./.A.A.A.n.t.t.P.H.P.mX          ",
"        w w y e e B B B I U T v , ..9 V S > > 9 2.` V W ` / V , X @ S S - - +.V.C.C.A.A.A.^.!.^./.^.^.W.C.t.H.J.J.P.tXpX        ",
"      e y 7 w u K R C T R T H  .M r.U H J 8 ; F 2.w.' U ` ~ ~ V & ; : 9 8 F 2.n.A.A.A.R.~.R.Q././.^.^.A.n.t.T.H.J._._.tXpX      ",
"      a 0 7 i D Y ^ T F R 5.V ! N 3.C H  .v ; +.` 3.' / ` / / A : ; , N J $.w.A.S.~.Q.!.!.Q./././..X^.A.C.y.H.H.H.uXtXaXpX      ",
"    t i 7 u p K 4.^ ^ B T #.H H r.W.! E T S ; @.~ $.` ` / 2.^ ~ V c c A ` y.C.^././.Q.!.).)./.)././.^.C.C.n.T.E.H._.{.iXpX      ",
"    t p 7 u D Y @.@.T N T #.! V r.T.~ H #.J , 2./ w.w.8./ ` $.8.( W W ( 8.v.B.^.)./.).!.).)./.(./.^.^.A.n.T.T._._._.{.{.aX      ",
"    Z e 7 G K +.@.T T G T $.%.A aXhXv.V $.| i.w.w.B.N.N.c.0.x.c.C.n.v.C.A.A.^./.).).!.).'./.)./.).^.^.^.E.R.E._.OX{.iX{.dX      ",
"    p p a P Y 1.u.@.T | Y $.%./ FXzXC.E #., a.c.M.S./.^.D.A.S.S.).XX/.<X1X1X1X1X1X].).).~./././.)./.XX^.R._.T._.#X{.{.iXuX      ",
"    L L p K +.4.i.4.o.r o.%.%.^ zXbXc.! %.N N.n.S.<X1X1X1X1X1X1X5X7X5XwX0X1X1X/.).)./.).!.!.R.!.).).[./.(.`.E._.tXdXiXiXtX      ",
"    L p ..P ;.f.a.5.;.S o.a.%._ bXHXoX( %.H }./.1XwXwXrXrX5XwX5XrX7XgX4XA.N.C.^.^.XX/.!.!.).!.).~.).).XX~.6X`.H.OXiXdXfXaX      ",
"    *.L X...Y 7.i.i.#.o.u.M.M.] PXPXlX%.p.T 5.=XwXGXcXcX7X8XxXrX2X<XXXW.~ / c.XX<X2X<X).!.!.!.].).].).[.@X`.#X`.#XdXvXvXaX      ",
"    *.....;.+.7.d.i.5.o.i.G.G.%.aXHX$X8.p.$.I d.jXGXlXrX7X8XrX7X~.C.v.N.A J 2.^.5X7X5X3X[.[.].).).).).).[.@X@X#XtXvXvXvXfX      ",
"    *...X.-.f.f.f.F.f.u.d.G.G.M.(.PXrX] Z.5.Y I lXlXwX5X7XrX7XXXy.` / w.+.r F Z.4X7X7X[.[.].[.[.[.[.].).@X@X#X#XyXyXvXfXfX      ",
"      -.a >.J.|..XG.Z.a.Z.oX=X9XM.JXhXp.9XF.4.Y lXGX7X[.3X7XXXQ.H $ 9 ` 1.; - d.wX7X3X3X2X[.3X3X[.[.[.[.].).%XuXiXdXvXvXCX      ",
"      >.a &.f.}..X=X.X|..X=X9X9XM.JXLXp.=XF.u.7.wXcX8XR.<X[.).v.N + $ ` @.7 - +.4X7XgXgX3X3X3X[.3X[.[.[.XX@X(.(.{.yXdXdXCX      ",
"      l.X.X.s. X*XoX.X.XoX0X0XG.G.zXFXf.9XF.z.z..X5X'.b.'.].^.8.v * # ~ T - 7 _ 7XgXxXgXgX3X7X3X3X3X2X[.2X).(._._.iXvXvXCX      ",
"        >.a -.f.*X}.Z..X$XeXeXG.M.V.KXp.=X=Xz.F.G.!.x.m.'.).C.~ H % X ~ T = - 4.hX7XxX8XxXgXgX3X3X2X6X2X@XXX(.`.#XiXfXvXSX      ",
"        k.,.h.s.z.|.|.q..X$X0X5XG.~ G G =XF.z.|.Z.( } D.'.m.c.W T = o _ 6.* = 6.7X7XjXgXxXxXxXxX3X3X3X2X].(.@X#XuX{.vXfXSX      ",
"          <.>.K.s.F.f.q.d..X1X4X1XZ.> ; F.F.F.z.%.( x.Q.D.m.} W 8.u 4 5.5.= 7 7.7XgXgXxXjXjXgXxX6X6X2X2X@XW.&XuXuXyXdXfXAX      ",
"            ,.>.L.L.L.}.d.d..X.X^.N.v & f.z.F.#.H } A./.'.!.} Q p.i s i.u.7 e }.6XgXxXjXjXcXcXjX7XgX6X@X).(.&XuXtXdXfXSX        ",
"              j.j.U. X Xz.J.V.W.V.` C 9 i.f.+.H ( G.1X5X<X].b.x.Z.i X f.i.D D J.gXgXgXlXjXjXlXjXqXqX4X@X$X`.#XuXaXfXCXIX        ",
"                k.l.l. X}.}.W.y.' ` ^ R f.f.F V c.1XwXwX5X5X!.m.d.| =  X*X&.o.;XgXgXgXlXlXlXjXwXqX4X$XXX+X#X#XuXdXCXAX          ",
"                  k.l.P.|. XW.' t.y.r.V.Z.5.V p./.wXeXlXjX5X]./.|.K ; F.*Xo.s.,XjXjXlXlXcXlXlXqX0X$X%X$XW.+XtXCXCXAX            ",
"                    l.K.P.P.|.E.E.E.T.A C m w.Z.4XDXGXlXcX5X6X)..Xb C |.f.O. XeXlXzXlXlXzXlXwXqX4X$X%XW.H._.fXHXSX              ",
"                      L.L.}. X$X&X$X@XoXW.V.oX0XeXFXFXFXGXjX7X6XXXH.|.}.s. XVXkXeXlXDXkXlXeXqX>X>X>XJ.U P.pXCXSX                ",
"                      K.K.L.P.%X>X%XqX&X@X@XqXeXDXDXzXFXFXFXhXhX+XW.E. X X:X,XkXDXkXsXeX$XhX>X>X%X XZ s.VXCXAX                  ",
"                        I.K.*X%X%X%X%X&X&XhXhXkXhXzXFXFXzXzXjXlXW.+X|.;X:XeXDXFXVXkXeX>X>X>X%X;Xz.:.I.AXSXIX                    ",
"                            nX:X;XOXsX&X+X+X>X>XhXzXzXFXzXzXzXhX+X:X>XVXsXVXVX,X:X;X;X;X|. XL.&.6 l                             ",
"                              I.mX,XsX&XaXaXkXkXkXzXFXzXFXzXzX>XsX:XMXMXMX-X-XL.U.*XL.L.z.k.,.q                                 ",
"                                  mXVXsXsXsXzXaXzXzXzXsXDXsXkX,X,XL.s.s.>.k.l.l.K.z.L.k.h.k d                                   ",
"                                      nXmXMX:X,X>X;X%X%X%X;X+X;Xl.X.-.g.h.j.k.j.h.j.g.j                                         ",
"                                          KXeX>XeX%X8.c.m.wXGXeX@.X.h k l g d j                                                 ",
"                                            FXeXeXlX9XjXxXGXGXGX.Xz.I.                                                          ",
"                                                  0X1XD.'.].].1X/.NXU.                                                          ",
"                                                        BX{ [ [ } NX                                                            ",
"                                                          ,XD.D.ZX                                                              ",
"                                                                                                                                ",
"                                                                                                                                ",
"                                                                                                                                ",
"                                                                                                                                ",
"                                                                                                                                ",
"                                                                                                                                "
};
