/* XPM */
static char *_76029e4683445a8d5db019353a0f756TI3idj4qYDLh7r9u[] = {
/* columns rows colors chars-per-pixel */
"64 64 255 2 ",
"   c None",
".  c #3A0B01",
"X  c #3B1508",
"o  c #2D1513",
"O  c #3D1B17",
"+  c #471807",
"@  c #561D0E",
"#  c #481D16",
"$  c #601E06",
"%  c #48220F",
"&  c #5D200B",
"*  c #4B2518",
"=  c #56291B",
"-  c #59301E",
";  c #682A15",
":  c #762F19",
">  c #69311D",
",  c #793419",
"<  c #4F2620",
"1  c #582B22",
"2  c #41322F",
"3  c #563428",
"4  c #462D30",
"5  c #483737",
"6  c #593D38",
"7  c #673927",
"8  c #773A27",
"9  c #7D3C23",
"0  c #613B30",
"q  c #5F443D",
"w  c #6D412D",
"e  c #73432E",
"r  c #7C432C",
"t  c #7B492B",
"y  c #6A4336",
"u  c #744633",
"i  c #7A4736",
"p  c #7C4B34",
"a  c #7D533D",
"s  c #574341",
"d  c #624745",
"f  c #734E42",
"g  c #6D514D",
"h  c #795448",
"j  c #6D5853",
"k  c #775B55",
"l  c #75645C",
"z  c #852817",
"x  c #922A1F",
"c  c #883D1B",
"v  c #853D27",
"b  c #89441B",
"n  c #91431C",
"m  c #8B4223",
"M  c #85462A",
"N  c #8B442C",
"B  c #8B4B2D",
"V  c #964728",
"C  c #934B2B",
"Z  c #87512F",
"A  c #97522D",
"S  c #834432",
"D  c #844C34",
"F  c #8C4C33",
"G  c #894A36",
"H  c #974936",
"J  c #944C34",
"K  c #8C5336",
"L  c #83533A",
"P  c #895539",
"I  c #945333",
"U  c #985937",
"Y  c #94553C",
"T  c #9B543C",
"R  c #9B5A3C",
"E  c #A04A2F",
"W  c #A7532D",
"Q  c #B05C2E",
"!  c #A64C37",
"~  c #A65837",
"^  c #A35D3C",
"/  c #AB5D3C",
"(  c #B25B3A",
")  c #9D613A",
"_  c #A2623D",
"`  c #AB623E",
"'  c #AF683E",
"]  c #B3613E",
"[  c #C8582B",
"{  c #D35A3B",
"}  c #C3673C",
"|  c #8A4B42",
" . c #984241",
".. c #8B5A43",
"X. c #895945",
"o. c #965945",
"O. c #935C44",
"+. c #9C5C42",
"@. c #A35D43",
"#. c #A85945",
"$. c #AA5C45",
"%. c #B65D47",
"&. c #8D614B",
"*. c #946145",
"=. c #9D6344",
"-. c #94654C",
";. c #9C654B",
":. c #8B6656",
">. c #976A57",
",. c #8F705E",
"<. c #9A735C",
"1. c #A36443",
"2. c #AC6442",
"3. c #AB6943",
"4. c #A4654A",
"5. c #AA654A",
"6. c #A56A49",
"7. c #AC6B4C",
"8. c #B46543",
"9. c #B36B44",
"0. c #BA6845",
"q. c #B36D4B",
"w. c #BB6D4B",
"e. c #AB724B",
"r. c #B3724B",
"t. c #B77648",
"y. c #BD724B",
"u. c #A86A52",
"i. c #B36D54",
"p. c #BC6E52",
"a. c #BB6858",
"s. c #A77558",
"d. c #BC7253",
"f. c #B7775A",
"g. c #8E6960",
"h. c #976E62",
"j. c #9B7465",
"k. c #A47865",
"l. c #AA7B64",
"z. c #B77A65",
"x. c #C36C45",
"c. c #C26E4A",
"v. c #C4734C",
"b. c #CA754C",
"n. c #C9784B",
"m. c #D4774C",
"M. c #C76C54",
"N. c #C47452",
"B. c #CA7552",
"V. c #C57953",
"C. c #CC7A53",
"Z. c #C77B5B",
"A. c #D17C54",
"S. c #D67E58",
"D. c #E17C5A",
"F. c #C47C65",
"G. c #D47B65",
"H. c #B9814B",
"J. c #BC8656",
"K. c #AC8569",
"L. c #B98569",
"P. c #BA9060",
"I. c #AE8A77",
"U. c #BA8B78",
"Y. c #B89170",
"T. c #C2804E",
"R. c #D4814F",
"E. c #C78756",
"W. c #CC845C",
"Q. c #D58155",
"!. c #DA8457",
"~. c #D28857",
"^. c #D5825B",
"/. c #DA855B",
"(. c #D28B5B",
"). c #DD8A5C",
"_. c #CA935A",
"`. c #D2965E",
"'. c #E38659",
"]. c #E28D5E",
"[. c #E3915F",
"{. c #D3A45E",
"}. c #C38463",
"|. c #C98867",
" X c #C48B6D",
".X c #D28664",
"XX c #DC8C62",
"oX c #D68A68",
"OX c #CC9866",
"+X c #D49363",
"@X c #DB9364",
"#X c #D39C64",
"$X c #DC946B",
"%X c #D5986B",
"&X c #DB9B6C",
"*X c #C48B73",
"=X c #D98C72",
"-X c #C99478",
";X c #D39573",
":X c #D79977",
">X c #DD9B73",
",X c #DB9C7A",
"<X c #E28D64",
"1X c #E38C68",
"2X c #E49263",
"3X c #E99965",
"4X c #E3956C",
"5X c #EA966C",
"6X c #E79968",
"7X c #EA9B6C",
"8X c #F19F6F",
"9X c #E78B78",
"0X c #E59676",
"qX c #E49C74",
"wX c #EB9C73",
"eX c #E49D7A",
"rX c #F09F71",
"tX c #CCA267",
"yX c #D3A464",
"uX c #D7A66B",
"iX c #DAAC6C",
"pX c #CAA77A",
"aX c #D6A874",
"sX c #DDA27C",
"dX c #DDB373",
"fX c #DBB778",
"gX c #EBA16E",
"hX c #E4A273",
"jX c #ECA374",
"kX c #E4A47C",
"lX c #ECA47B",
"zX c #E7A97C",
"xX c #F1A473",
"cX c #F4A97D",
"vX c #E2BA75",
"bX c #E3B479",
"nX c #B69887",
"mX c #C99B86",
"MX c #D59D84",
"NX c #E49989",
"BX c #F39A88",
"VX c #DBA385",
"CX c #D8BA88",
"ZX c #DBAD95",
"AX c #CCBA96",
"SX c #D4BD95",
"DX c #E7A581",
"FX c #EBAA83",
"GX c #F6AB82",
"HX c #E9BA84",
"JX c #F6BF8D",
"KX c #F0AF9B",
"LX c #F9BB93",
"PX c #FBCB94",
"IX c #D1C2A1",
/* pixels */
"                                                                                                                                ",
"                                                                                                                                ",
"                                                                                                                                ",
"                                                                                                                                ",
"                                                                                                                                ",
"                                                                                                                                ",
"                                                              ZXD.D.,X                                                          ",
"                                                            NX} [ [ { BX                                                        ",
"                                                          U.NX/.1X].].'.D.1X0X                                                  ",
"                                                          I.z..XGXGXGXxXjX9XlXeXeXFX                                            ",
"                                                j d g l k h X.@.eXGXwXm.c.8.%XeX>XeXKX                                          ",
"                                        j g.j.h.j.k.j.h.g.-.X.l.;X+X;X%X%X%X;X>X,X:XMXmXnX                                      ",
"                                  d k h.k.L.z.K.l.l.k.>.s.s.L.,X,XkXsXDXsXzXzXzXaXzXsXsXsXVXmX                                  ",
"                                q ,.k.z.L.L.*XU.L.-X-XMXMXMX:XsX>XzXzXFXzXFXzXkXkXkXaXaX&XsX,XmXI.                              ",
"                            l 6 &.L. X|.;X;X;X:X,XVXVXsXVX>X:X+XhXzXzXzXFXzXzXhX>X>X+X+X&XsXOX;X:XnX                            ",
"                    IXSXAXI.:.z.;X%X>X>X>XeXkXVXFXDXeX:X;X|.+XW.lXjXzXzXFXFXzXhXkXhXhX&X&X%X%X%X%X*XK.I.                        ",
"                  AXCXVXs.Z  X%X>X>XhX$XeXsXkXDXkX,X:X X XE.W.+XhXhXFXFXFXzXDXDXeXqX@X@X&XqX%X>X%XP.L.K.K.                      ",
"                SXCXpXP.U J.>X>X>XqXeXlXkXDXlXeXkXVX Xs.}.|.H.XX6X7XjXGXFXFXFXeX0XoXV.W.oX@X$X&X$X X}.L.L.                      ",
"              SXHXfX_.H.W.%X$X4XqXwXlXzXlXlXzXlXeX XO.f.|.C b .X).6X5XcXlXGXDX4XZ.w.m C A T.E.E.E.|.P.P.K.l.                    ",
"            AXCXCXtX+XW.$X%X$X0XqXlXlXcXlXlXjXjX,Xs.o.*XF.; K |./.].5XjXlXeXwX/.p.V 5.Z.V.r.y.t.' W. X|.P.l.k.                  ",
"          AXCXdXuX#X#X+XXX$X4XqXwXjXlXlXlXgXgXgX;Xo.&.*X X= | d.m.!.5X5XwXwX1Xc.V F f.f.R ^ ` ' y.W.}.}. Xl.l.k.                ",
"        IXCXfXaXuX#X`.$X@X4XqXqXjXlXjXjXlXgXgXgXJ.D D i.f.X i Z.x.b.].<X5X1XG.( H +.f.i.9 C ` V.W.V.J.z. X XU.j.j.              ",
"        SXfXdXtXuX&X(.).@X6XgX7XjXcXcXjXjXxXgX6X}.e 7 u.i.s i p.Q } !.'./.A.} H #.F.z.f.& v N.^..X.Xd.d.}.L.L.L.>.,.            ",
"      AXfXdXyXuXuX&XW.@X2X2X6X6XxXgXjXjXxXgXgX7X7.7 = 5.5.4 u 8.W } m.D.Q.x.( %.z.F.F.F.; > Z.1X4X1X.Xd.q.f.F.s.K.>.<.          ",
"      SXfXvX{.uX#X@X(.].2X3X3X3XxXxXxXxXgXjX7X7X6.= * 6._ o = T W c.m.'.D.} ( Z.|.z.F.=XG G ~ G.5X0X$X.Xq.|.|.z.s.h.,.k.        ",
"      SXvXfXiX#X`.(.XX@X2X6X2X3X3XgXgXxX8XxX7XhX4.- = T ~ X % H ~ C.).'.m.x.!.G.F.z.=X=Xp.KXV.M.G.eXeX$X.XZ.}.*Xf.-.a >.        ",
"      CXvXvXiX_._.(.).2X[.2X3X3X3X7X3XgXgXxXgX7X_ 7 - T ~ # * v 8.^.].'.b.'.5X.Xz.z.F.9Xf.FXzXG.G.0X0XoX.X.XoX*X Xs.X.X.l.      ",
"      CXdXdXyX{.(.(.@XXX[.[.[.3X[.3X3X3XgXgX7X4X+.- 7 @.` $ + N v.).[.<XR.8XcXwX7.u.F.=Xp.LXJXM.9X9X=X.X|..X=X.X}.f.&.a >.      ",
"      CXvXvXdXiXuX%X).].[.[.[.[.3X3X[.2X3X3X7XwXd.- ; 1.` 9 $ H Q.XX7X3X[.7XGXlXY 4.F.9Xp.hXJXM.9X=XoXZ.a.Z.G..X|.J.>.a -.      ",
"      fXfXvXyXyX#X#X@X@X).].[.[.[.[.].[.[.7X7X4XZ.F r +.w./ ` y.XX7XrX7X5XwXlXlXI Y 5.Z.] rXPX(.M.G.G.d.u.f.F.f.f.f.-.X...*.    ",
"      fXvXvXvXtX#X@X@X[.).).).).).].[.[.3X5X7X5X^.2.J A N.v.C.~.7XrX8X7XrXlXGXjXd.I $.p.8.$XHXaX%.G.G.i.o.5.i.d.7.+.;.....*.    ",
"      aXvXvXdX#X`.#X`.@X[.).].).].!.!.!.).<X2X<XXXc./ ~ W.XX<X2XrXxX8X7XcXcXGXwX=X5.T p.%.lXPXPX] M.M.u.o.#.i.i.7.Y ..X.L *.    ",
"      aXfXdXiXOXH.`.6X~.XX).).~.).!.).!.!./.XX^.^.C.N.A.4XgX7XrX5XwX5XrXrXwXwX1X/.}.H %.( oXHXbX_ %.a.o.S ;.5.a.f.;.P ..p L     ",
"      tXiXiXdXtX_.E.`.(./.[.).).!.R.!.!.)./.).)./.1X1X0XwX5X7X5X1X1X1X1X1X1X<XS.n.N.N %.! c.bXzX^ %.%.o.r o.4.i.4.+.K p L L     ",
"      uXiX{.{.#X_.T._.R.^.XX/.)./././.~.).).].1X1X1X1X1X<X/.XX).S.S.A.D.^./.S.M.c.a., #.E C.zXFX/ %.$.Y | T @.u.1.Y P a p p     ",
"      dX{.iX{.OX_.E.R.E.^.^.^.)./.)./.'.).!.).)./.^.A.A.C.v.n.C.c.x.0.c.N.N.B.w.w.i.| $.V v.hXaXA %.$.T G T T @.+.K G 7 e Z     ",
"      aX{.{._._._.T.T.n.A.^.^./.(./.).).!.)./.).^.B.v.8.( W W ( 8.$.` / 8.w.w./ 2., J #.H ~ T.r.V ! #.T N T @.@.Y D u 7 p t     ",
"      pXiX{._.H.E.T.n.C.C.^././.)./.).).!.Q././.^.C.y.` A c c V ~ ^ 2./ ` ` $.~ @.; S T E ! W.r.H H #.T B ^ ^ 4.K p u 7 i t     ",
"      pXaXtXuXH.H.H.y.C.A.^..X/././.Q.!.!.Q.~.S.A.w.$.J N , ; : A / / ` / ' 3.` +.; v  .H C 3.N ! V 5.R F T ^ Y D i 7 0 a       ",
"      pXtX_._.J.H.T.t.n.A.^.^././.Q.R.~.R.A.A.A.n.2.F 8 9 : ; & V ~ ~ ` U ' w.2.F ; 8 J H U r.M  .H T R T C R K u w 7 y e       ",
"        pXtXP.J.J.H.t.C.W.^.^./.^.!.^.A.A.A.C.C.V.+.- - S S @ X , V / ` W V ` 2.9 > > S V 9 .., v T U I B B B e e y w w         ",
"          mXP.H.P.t.t.n.A.A.A./.Q.R.Q.A.A.C.C.C.V.Y 1 = S r # % , m ~ ( ~ C V C 9 9 8 G | @ @ : v T J N 9 F t e 0 7 w           ",
"            Y.H.H.e.t.V.R.A.A.Q.Q.Q.A.C.C.C.n.v.y.D * < G 8 O * v n ] x.] W V V , 9 8 S S . @ S A N F 9 M K p e - u             ",
"              k.e.3.e.t.V.V.A.C.C.C.C.C.n.n.v.y.r.w O * Y N O 1 A c 0.b.b.v.} n m 9 8 r S @ : B C B B B r p u 7 w               ",
"              K.s.e.e.t.v.N.C.V.V.V.V.v.v.w.y.0.q.i * < ;.N O < E c } b.C.m.b.] n , 8 G S 8 B I A C Z r t u u u w               ",
"                K.e.e.t.H.y.v.v.N.y.w.v.y.w.9.0.r.i * # ;.N # * E n v.A.A.C.B.c.E m r D I F B ) A B K Z Z e w e                 ",
"                  K.e.e.t.r.d.d.y.y.y.w.y.9.9.9.w.| = < -.| # * ~ n v.A.A.C.Z.c.0.V 9 M Y U I ) _ _ ) P P u e                   ",
"                    <.s.r.r.q.t.r.q.q.9.9.9.9.8.r.O.- < r T * X C n v.n.C.B.B.x.0.0., ; , b e.' 3.3.P p u h                     ",
"                      <.s.s.e.e.r.q.q.9.' 3.' ' 9.=.7 1 8 Y > . A V x.v.y.d.p.%.8.8.8.8.^ e.r.3.1.K Z p k                       ",
"                        <.s.u.7.7.r.r.q.3.3.3.` 3.4.i 1 i K p + m ) 9.w.p.p.q.] / 2.2.7.` i.3.) I Z a a                         ",
"                            j.>.u.u.7.6.3.3.3.3.3.4.=.7 7 G S r B ) ' _ 3.q.q.$.^ @.^ ^ ) I U P ) ..                            ",
"                              j >.;.1.4.;._ 1.1.1.=.+.p w p D r Z U ) _ _ 6.1.1.@._ _ 1.I ) =.*...                              ",
"                                d h.>.;.;.;.=.=.=.=.O.*.X.L L D D P O.=.;.;.;.;.4.=.1.6.=.;.*.X.                                ",
"                                  q k &.O.*.P O.*.-.;.-.&.:.:.....O.O.+.+.;.4.;.>.*.6.=.-.                                      ",
"                                        s q f f f f h f q 3 3 0 u X...G S | k                                                   ",
"                                              s 5 2 5 2 5     k T v z x  .                                                      ",
"                                                                :.g.h.,.                                                        ",
"                                                                                                                                ",
"                                                                                                                                ",
"                                                                                                                                ",
"                                                                                                                                ",
"                                                                                                                                ",
"                                                                                                                                ",
"                                                                                                                                "
};
