/* XPM */
static char *bace1ffbfb1c4577fb215fd8aa722ce9BrSxDanFpDhFlqr6[] = {
/* columns rows colors chars-per-pixel */
"64 64 256 2 ",
"   c None",
".  c #160F13",
"X  c #2F1410",
"o  c #38261E",
"O  c #171B3C",
"+  c #2C1E23",
"@  c #1E253F",
"#  c #29292B",
"$  c #282B38",
"%  c #333030",
"&  c #38393B",
"*  c #591A22",
"=  c #423E3C",
"-  c #533031",
";  c #6B373C",
":  c #45433C",
">  c #5C5331",
",  c #62413C",
"<  c #1B294A",
"1  c #0A2E55",
"2  c #183858",
"3  c #252846",
"4  c #2D3449",
"5  c #3B3C44",
"6  c #243556",
"7  c #333A5B",
"8  c #09346A",
"9  c #173666",
"0  c #273E70",
"q  c #443C42",
"w  c #7C3D48",
"e  c #104A55",
"r  c #3A454A",
"t  c #2A455B",
"y  c #3A4956",
"u  c #3E5251",
"i  c #0D4D71",
"p  c #3C4966",
"a  c #2B546D",
"s  c #126D79",
"d  c #226F75",
"f  c #464647",
"g  c #544C49",
"h  c #56544C",
"j  c #474A55",
"k  c #485356",
"l  c #595654",
"z  c #6D5947",
"x  c #7A584B",
"c  c #645958",
"v  c #755753",
"b  c #68645C",
"n  c #706653",
"m  c #76655B",
"M  c #4A5668",
"N  c #53556C",
"B  c #755663",
"V  c #51646F",
"C  c #6A6765",
"Z  c #776A68",
"A  c #6F706A",
"S  c #777369",
"D  c #676A76",
"F  c #7C6C76",
"G  c #787676",
"H  c #853830",
"J  c #F8432E",
"K  c #823F50",
"L  c #ED3945",
"P  c #884A56",
"I  c #8B5356",
"U  c #AC5956",
"Y  c #866A5B",
"T  c #93745E",
"R  c #AC6F5C",
"E  c #975563",
"W  c #A55969",
"Q  c #AD5E75",
"!  c #886969",
"~  c #9B6866",
"^  c #887669",
"/  c #98796B",
"(  c #876674",
")  c #857B79",
"_  c #987976",
"`  c #A86B69",
"'  c #B76C64",
"]  c #AB716C",
"[  c #BB7465",
"{  c #B66877",
"}  c #AA7B7A",
"|  c #B97777",
" . c #FF4F4F",
".. c #DC6A5F",
"X. c #E15A68",
"o. c #C36A68",
"O. c #C66E6C",
"+. c #C47978",
"@. c #EF746C",
"#. c #B7815F",
"$. c #87847B",
"%. c #9C8B73",
"&. c #98857A",
"*. c #A2896E",
"=. c #BB886B",
"-. c #A78476",
";. c #B78779",
":. c #BA937C",
">. c #B9AC71",
",. c #C18E6E",
"<. c #C5867A",
"1. c #C5977A",
"2. c #F28D79",
"3. c #C6A27E",
"4. c #C6BB7D",
"5. c #C9C67F",
"6. c #0D5593",
"7. c #13728E",
"8. c #347F94",
"9. c #1450A3",
"0. c #086BAC",
"q. c #1676A3",
"w. c #2A71A4",
"e. c #0C7DC3",
"r. c #8C7D85",
"t. c #987488",
"y. c #9A7591",
"u. c #A16F8A",
"i. c #A57887",
"p. c #BA7D86",
"a. c #A67A96",
"s. c #A07EA1",
"d. c #CF7887",
"f. c #1F9B91",
"g. c #088BB1",
"h. c #3084B5",
"j. c #0BB7B3",
"k. c #32B0B2",
"l. c #428492",
"z. c #798090",
"x. c #4180B5",
"c. c #4CB7B1",
"v. c #35C4BA",
"b. c #53CCBA",
"n. c #2F8DCB",
"m. c #0BA3C3",
"M. c #21ACC9",
"N. c #02BBF3",
"B. c #3DB8FE",
"V. c #4BBFE4",
"C. c #16CDCF",
"Z. c #31D5CE",
"A. c #0BD7F1",
"S. c #03DBF8",
"D. c #2BD0EC",
"F. c #03E9FA",
"G. c #15EAFA",
"H. c #04F5FC",
"J. c #15F2F2",
"K. c #2CF1F2",
"L. c #39FBF8",
"P. c #54CBC4",
"I. c #48D5C9",
"U. c #55D7C7",
"Y. c #6CDEC7",
"T. c #4DE4D3",
"R. c #71F4DD",
"E. c #4DD8EA",
"W. c #79DEEA",
"Q. c #4AF1E8",
"!. c #47FBF2",
"~. c #68F6EA",
"^. c #73F7E7",
"/. c #70EFF4",
"(. c #898686",
"). c #978A87",
"_. c #99948C",
"`. c #998E93",
"'. c #979595",
"]. c #A78884",
"[. c #B98B85",
"{. c #AA9988",
"}. c #B99588",
"|. c #AE8799",
" X c #B78896",
".X c #A79A96",
"XX c #B79A97",
"oX c #9EA09F",
"OX c #BCA58A",
"+X c #A9A499",
"@X c #B8A699",
"#X c #B8B290",
"$X c #9E9FA4",
"%X c #AB89A2",
"&X c #A19CA3",
"*X c #B895A2",
"=X c #A9A6A6",
"-X c #B8AAA7",
";X c #BCB2AA",
":X c #B1ACB1",
">X c #ADB2B5",
",X c #BDB6B3",
"<X c #C58B85",
"1X c #C79986",
"2X c #C69A95",
"3X c #D49B91",
"4X c #EB9496",
"5X c #CAA488",
"6X c #D2A78B",
"7X c #CBB68D",
"8X c #C8A798",
"9X c #D3A997",
"0X c #CDB49B",
"qX c #D6B59A",
"wX c #ECAC9C",
"eX c #C79DA3",
"rX c #C6ABA6",
"tX c #D3ACA7",
"yX c #C4B4AC",
"uX c #D4B8A9",
"iX c #CBADB1",
"pX c #C4B6B3",
"aX c #D5BAB4",
"sX c #E7A8A6",
"dX c #EAB5AD",
"fX c #BDC3BC",
"gX c #C8C38C",
"hX c #CDC8AB",
"jX c #D6C5AC",
"kX c #C8C3B9",
"lX c #D6C6B9",
"zX c #D8D1BA",
"xX c #E6C8B6",
"cX c #9ABAC9",
"vX c #B6BAC2",
"bX c #C1BDC9",
"nX c #82D8E7",
"mX c #8EFCF6",
"MX c #ACF4FF",
"NX c #CBC7C4",
"BX c #D4CBC4",
"VX c #DBD6C8",
"CX c #CCD2D1",
"ZX c #DCDBD6",
"AX c #E3CFCE",
"SX c #E4DBCA",
"DX c #E4DCD3",
"FX c #E9E5D7",
"GX c #F1E8D0",
"HX c #F6EADB",
"JX c #DAE3EA",
"KX c #EAE9E5",
"LX c #F3EDE5",
"PX c #F9F6EA",
"IX c #EEF4F9",
"UX c #FDFCF8",
/* pixels */
"                                                                                                                                ",
"                                                                                                                                ",
"                                          ZXBXBXLXzX-XlXzXBXDXSXSXFXHXDXDXDXFXFXFXJX                                            ",
"                                      CX,XSX{.zX{.#XzXSX;X#XhXVXSXhXVXGXSXDXFXDXGXDXDXDXSXLXVX                                  ",
"                                    kX_.).> %.b hX^ S SX>.%.@XyXyXGXzXVXVXVXSXSXFXSXSXVXhXBXVXZXKX                              ",
"                                ,X_._.A h KXg b b n n c #XHX#X%.#X%.#XhXzX#XhXyXzX_.@XFX^ HXSXVXVXZX                            ",
"                              BXC b b : : : : : h : & b : _.m hXn +X%.GX+X+X^ ;XPXFXkX+X+X{.hXSXzXHXKX                          ",
"                            ) b A f f : # 5 & f & f 5 b b 5 = : h : +Xm +X;X_.zXFXKXb VX+XOX{.hXyXVXVX                          ",
"                        ,X=Xl h % & r & % & & & 5 r k & 5 & f h l S S GX#X_.n GX$.,XPXA S hX^ %.zXVXGXFX                        ",
"                      ,XC h f l & & & & $ & & r q f 5 5 = u f h $.S b (.h ;Xh ;X% b ,X(.$.S {.LXSXzXFXPXFX                      ",
"                    kX).c h = & & & & $ & & r & r f 5 5 g r : h f A k h & A b +X& k : S oXl $.;XFXVXSXHXFX                      ",
"                    $.h f : & & & & % u r 5 & k f & f f g u g b h h h > $.CXVX>XD UXC JXb b +XVXPXVXPXFXHXHX                    ",
"                  S f f = & = & & 5 & r = = 5 & k f & f k f h : f : h l A S : CXA k _.f (.G KXfXVXLXGXPXLXPX                    ",
"                '.h = : & : & & & f f r f j c f k q 5 h = l h h l l Z S S S g ) ZXA A G $.$.>XFXVX=XBXkXPXUX                    ",
"              k k 5 f & : f & 5 f j : q f j g j = g f g l b C m m &.$.&.)..X+X_..X).).(.G vX$.=X>X;XfXCXFXFX                    ",
"              D f f = f : g = g f f b g l f g c c Z C ^ / _ Y ^ _ ^ .X@XXXXX@X@X=X@X-X+X+X=XoX(.b KXBXZXKXUXUX                  ",
"              G h l h g g h c g v n m m g g h ^ ! v _ ;.].}.{.{.-X-XyXyX;X,X,X,X,X;X,X-X-X.X(.G $.C $.=XPXZXUXKX                ",
"              c A c b m _ -.{.^ T _ / -.z m Y %.].OXXXOX@X@X@XrXrX;XpXpXpXpXpXpXpX,XpX,X,X+X`.$.A G _.CX,XLXPXPXKX              ",
"            G Z b c _ ].}.XXXX@XXX@XXX}.&.].}.}.OX@X@XrXrXyXyXyXyX,XpXpXpX,XpX,XkXpXkXkX;X=X_.$.G A (.(.-X_.fX{.FX              ",
"            S _ v T {.XX@X@X;XrXyX;XrX@X@X:.{.OX@X8X;X;X;XyXyXpXpXpXyXpXpXpXpX,XpXkX,XpXpX,XoX(.(.$.A (.oXoX$.b ;XFX            ",
"          D ^ v Y :.@X2XrX;XyXyXyXrX;XrXrX-X}.rXrXyX;XyXyXyX;XpXyXpXyX,X;XpX,XpXfXpXfX,XpX,X-X.Xr.$.) z.'.'.G '.oXNX            ",
"          l XX-./ 5X#X8XrXrXyX;XyX,XyX;XyX;X;X-XyX;XyX-XpXyX,XiX,XpX,XpX,X,XpX,X,XpXpXpX,X,X;X-X).(.G $.z.(.JX'.;XBX            ",
"          c z Y T OX8X8X;XrXyXyX;XiX,X-XyXyX;XyX;XyX;XiX,XiX,XpX,X;X,X,XyX,X,X,X,XpX,X,X,X,X,X;X-X&.(.) '.D k C =XfX            ",
"          ^ m Y T 8X@X8X;XrXrX,X,XiX,XiX,XyX,XiX-XyX,X,X;XiX;XiXpXpX,X,X,X,X;X,X,X:X,X,X,X,X,XpX;XOX$.$.G _.A $.,XZX            ",
"          ! z T / OXOX8X@XyXrX,XiX;X,XyX,XrXpX;X,XpXiX;XiX,X;X,X:X,X:X:X-X:X:X:X:X:X>X,X>X,X,X,XpX,X+X$.S '.G $.'.=X            ",
"          / Y x :.8X@X8X@X-XrXyX,XiX,XiX,XiXrXyXrXyX;XiX-XiX-XiX-X:X*X:X`.(.`.r.`.:X:X'.:X:X,XfXfXpXpX+XA '.oX_.,X>X            ",
"            / x :.OX@X@X@X-XrX-XiX-XrXyXrXrX-XrX].-XeX-X-X-X*X&X`.r.F ) D N V D vXJXIXUXUXIXbX,X:XbXbXbXV z.CXJX'.PX            ",
"            / x }.XXXX.X*X.X*X=XXX@X-X@X-X@XXXXXXXXXXX%X].r.F $ p V y a V d /.~.~.~./.nXM y y y u y M :X&X'.z.G } @XDXHX        ",
"            ].x 5X.X&.G r.r.).r.).r.&.i.].].].].&._ ) b % M s Q.l.p t 2 6 e R.b.c.P.P.U.v.W.y y r $ ,XkX,X) $X{.8XaX@.J dX      ",
"              r M t 6 1 1 2 t y y 4 f g c % y j y j y r 8.k.7.s v.~.MXI.mXY.^.P.P.v.I.I.I.M.W.k r fXkXfXfX`.vX.X2XsXsX .wX      ",
"      p p p MXA.S.S.H.F.F.G.h.h.6.D.r r r r k k k u y i /.d i L.C.~.^.f.U.b.b.c.b.I.Z.Q.j.E.Z.p r NXkXpXbX-XkXaXsXuXxXL 4X      ",
"  j 5 4 z bXcXS.F.S.K.g.q.M.h.9 D.S.H.1 r q c ! _ r u h.i H.J.K.!.mX!.mXR.R.R.R.I.~.~.Q.Q.D./.9 & pXNXkXBXpXkXxXwXsXAXX.        ",
"    p j #X> gXr 0 i q.V.8 i L.H.H.H.H.A.r # g ! _ r f H.H.H.H.H.K.!.Q.mX~.R.U.T.Q.Z.Z.L.j.C.E.2 =X,XkXBXBXBX{.sX2.qXdXwX        ",
"      M gXgX>.c 4 < 6 1 i H.H.H.H.H.H.F.y # , ( i.F u L.H.H.H.H.J.L.!.!.!.!.!.!.K.C.j.K.J.K.7.M pXpXNXBXBXBXkXdX..sXO.          ",
"      5 hXgXgXc 3 4 1 F.H.F.H.H.H.F.H.F.t + c _ u.! # 2 H.H.D.g.C.L.L.L.J.K.J.J.J.H.H.H.F.A.w.j ;XpXBXAXBXAX+X4Xo.uX4X          ",
"        . 5.4.+XA.q.G.F.H.H.H.m.g.H.G.F.r + ( _ i.i.B r V.0.H.H.H.H.H.H.H.J.H.H.H.F.F.F.S.S.7 pXrXpXDXLXZXBXpX3XdX4XaX          ",
"        k &.>.> 7 x.6.L.F.G.q.m.H.G.H.G.# q u.i.u.i.t.( r e.0.n.g.F.H.H.H.H.H.F.F.F.F.S.S.8 r -XiXpXaXAXLXZXBXlXd.sX            ",
"          j z o & 4 9 a q.6.0.e.0.e.G.t # ( t.u.u.u.y.t.Z # 6.6.0.D.H.H.F.F.F.F.F.S.S.A.8 5 iXpXpXpXlXAXPXCXAXaXaXAX            ",
"            M & & $ 3 3 2 8 D.9.9.9.9 + B y.y.a.a.a.a.s.s.( = r 1 B.N.N.C.E.6.A.S.A.8 u XX XiXrXaXaXBXBXPXDXNXaXiX              ",
"              j 4 @ 3 3 6 6 < 8 1 6 + q t.y.i.|. X|.%X%X%Xy.y.B , + M 7 9 1 2 p l # } p.2XeXeXiXiXBXlXkXLXFXBXiXaX              ",
"                eX$ 3 @ O O 3 7 . ` I ( u.].*X2X*X*XeXrX*X%X%X%X X' R =.#.=.1XrXrXrXiXeXeXeXeXiXaXlXlXBXAXKXLXtXsX              ",
"                { ;.<X| [.p.1X=.=.=.] } p.<X}.2XrXrXtXrXtXrXtXrX8XU <.;.,.=.1.5XtXtXtX9XtXtXtXiXaXaXlXaXBXPXbXZX                ",
"                | [.2X2X8X8X1.,.<.<.;.[.[.;.1X9X9XqX9X9X3.R ' R +.<.;.;.:.1.1.,.1X6X9XqXtXtXtXtXaXaXAXlXAXLX                    ",
"                ` +.[.3X6X1.1.1.:.;.;.| ;.[ =.1.1X6X6X3X5X1X3.1.}.}.[.[.[.1X1X1X3.3.5X9X6X9XtXtXaXaXNXaXDX-X                    ",
"                ;.| 1.1X5X,.3.1.;.[.;.} -.;.:.:.3.1X5X1X1X1.;.;.[.[.[.[.2X[.2X5X8X6X6X3.6X6X6X9XuXaXaXlXBXbX                    ",
"                =.+.<.1.,.,.1X1X[.} [.} ].} } ~ ~ ~ ~ ~ ` } ].].XXXXXXeXrX8XrX8X0X7X7X6X1.6X6X9XuXdXaXlXLXDX                    ",
"                  ;.1.1.6X,.1.:.[.:.;.| +.| +.{ o.o.O.O.<Xd.<X2X<X3X1X8X0XtXuX0X9X9X3.3.1.6X6XqXdXuXaXaXaXPX                    ",
"                  *.=.6X1.1.,.=.] ' ` U U U o.O.' +.O.O.<.o.o.[ o.[ [ H - , X * ` <.3.3.R qXqXqXuXuXaXaXDXFX                    ",
"                    =.=.5X1X1.<.W ; - o X 1.7XR jXjX<.jXlXjX6XjXjX5X7XY - o I Q 9XtX1X3.6XqXqXqXjXuXuXaXBX                      ",
"                      1X;.6X;.1.<.E w o + OX7X0XjXjXjXzXzXVXjXjXjX>.*.- w W | uXuX0X6X3.qXqXqXdXqXuXaXaX                        ",
"                        ;.1.9X3.;.[.I K ; + -.*.zXjXzXT hX*.-.x K E W { p.2XuXaXyX0XqX7XqXqXqXqXuXuX{.kX                        ",
"                          ] 1.6X3.[.;.W ~ P w P K P P E P E W Q { p. XeXaXuXuXuXuXuX7XqXqXqXuXqX0XuXyX                          ",
"                            ;.:.5X:.;.[.} Q { Q Q Q Q Q Q { { d.[.rXaXaXuXuXaXuXuX0X0XqXjXuXuXjXjXyX                            ",
"                              -.:.OX-.;.;.[.| +.{ +.{ O.{ +.p.9X9X0XtXuXuXuXuXaXuXuXuXuXjXuX0XaXjX                              ",
"                                  1X:.[.;.:.<X:.1X1X1X1X<X3X3X1X9X9XtXtXuXaXuXaXpXaXuXuXjXqXuX                                  ",
"                                    }.;.[.[.1X<X1X3X1X3X<X2X3XeX8X9XtXyXuXyXaXuXjXaXjXuXuXOX                                    ",
"                                      ].}.}.2X2X2X2X8XeXrXeXrXrXiXrXtXyXuXuXaXhXaXuXuXuX                                        ",
"                                        }.}.}.2XXX@XeXrXeXrX8XrXrXrXtXyXuXuXuXaXuX0X0X                                          ",
"                                          }.<X}.<X2X8X8XrX8XtXeX9X9X0XtXuXaXuX0XOX:.                                            ",
"                                            <X[.<X1X2X2X9XeX9X9X2X9X9X0X0XuX0X:.                                                ",
"                                              :.<X<X2X3X9X9X5X3X3X8X9X0XOX                                                      ",
"                                                  1.1X1X1X6X5X6X6X9X9X                                                          ",
"                                                                                                                                ",
"                                                                                                                                "
};
