/* XPM */
static char *_841383b44ea4dc8b93f3ce69b574e59Wm9MxIQxpi66o10f[] = {
/* columns rows colors chars-per-pixel */
"64 64 256 2 ",
"   c None",
".  c #160F13",
"X  c #2F1410",
"o  c #38261E",
"O  c #171B3C",
"+  c #2C1E23",
"@  c #1E253F",
"#  c #29292B",
"$  c #282B38",
"%  c #333030",
"&  c #38393B",
"*  c #591A22",
"=  c #423E3C",
"-  c #533031",
";  c #6B373C",
":  c #45433C",
">  c #5C5331",
",  c #62413C",
"<  c #1B294A",
"1  c #0A2E55",
"2  c #183858",
"3  c #252846",
"4  c #2D3449",
"5  c #3B3C44",
"6  c #243556",
"7  c #333A5B",
"8  c #09346A",
"9  c #173666",
"0  c #273E70",
"q  c #443C42",
"w  c #7C3D48",
"e  c #104A55",
"r  c #3A454A",
"t  c #2A455B",
"y  c #3A4956",
"u  c #3E5251",
"i  c #0D4D71",
"p  c #3C4966",
"a  c #2B546D",
"s  c #126D79",
"d  c #226F75",
"f  c #464647",
"g  c #544C49",
"h  c #56544C",
"j  c #474A55",
"k  c #485356",
"l  c #595654",
"z  c #6D5947",
"x  c #7A584B",
"c  c #645958",
"v  c #755753",
"b  c #68645C",
"n  c #706653",
"m  c #76655B",
"M  c #4A5668",
"N  c #53556C",
"B  c #755663",
"V  c #51646F",
"C  c #6A6765",
"Z  c #776A68",
"A  c #6F706A",
"S  c #777369",
"D  c #676A76",
"F  c #7C6C76",
"G  c #787676",
"H  c #853830",
"J  c #F8432E",
"K  c #823F50",
"L  c #ED3945",
"P  c #884A56",
"I  c #8B5356",
"U  c #AC5956",
"Y  c #866A5B",
"T  c #93745E",
"R  c #AC6F5C",
"E  c #975563",
"W  c #A55969",
"Q  c #AD5E75",
"!  c #886969",
"~  c #9B6866",
"^  c #887669",
"/  c #98796B",
"(  c #876674",
")  c #857B79",
"_  c #987976",
"`  c #A86B69",
"'  c #B76C64",
"]  c #AB716C",
"[  c #BB7465",
"{  c #B66877",
"}  c #AA7B7A",
"|  c #B97777",
" . c #FF4F4F",
".. c #DC6A5F",
"X. c #E15A68",
"o. c #C36A68",
"O. c #C66E6C",
"+. c #C47978",
"@. c #EF746C",
"#. c #B7815F",
"$. c #87847B",
"%. c #9C8B73",
"&. c #98857A",
"*. c #A2896E",
"=. c #BB886B",
"-. c #A78476",
";. c #B78779",
":. c #BA937C",
">. c #B9AC71",
",. c #C18E6E",
"<. c #C5867A",
"1. c #C5977A",
"2. c #F28D79",
"3. c #C6A27E",
"4. c #C6BB7D",
"5. c #C9C67F",
"6. c #0D5593",
"7. c #13728E",
"8. c #347F94",
"9. c #1450A3",
"0. c #086BAC",
"q. c #1676A3",
"w. c #2A71A4",
"e. c #0C7DC3",
"r. c #8C7D85",
"t. c #987488",
"y. c #9A7591",
"u. c #A16F8A",
"i. c #A57887",
"p. c #BA7D86",
"a. c #A67A96",
"s. c #A07EA1",
"d. c #CF7887",
"f. c #1F9B91",
"g. c #088BB1",
"h. c #3084B5",
"j. c #0BB7B3",
"k. c #32B0B2",
"l. c #428492",
"z. c #798090",
"x. c #4180B5",
"c. c #4CB7B1",
"v. c #35C4BA",
"b. c #53CCBA",
"n. c #2F8DCB",
"m. c #0BA3C3",
"M. c #21ACC9",
"N. c #02BBF3",
"B. c #3DB8FE",
"V. c #4BBFE4",
"C. c #16CDCF",
"Z. c #31D5CE",
"A. c #0BD7F1",
"S. c #03DBF8",
"D. c #2BD0EC",
"F. c #03E9FA",
"G. c #15EAFA",
"H. c #04F5FC",
"J. c #15F2F2",
"K. c #2CF1F2",
"L. c #39FBF8",
"P. c #54CBC4",
"I. c #48D5C9",
"U. c #55D7C7",
"Y. c #6CDEC7",
"T. c #4DE4D3",
"R. c #71F4DD",
"E. c #4DD8EA",
"W. c #79DEEA",
"Q. c #4AF1E8",
"!. c #47FBF2",
"~. c #68F6EA",
"^. c #73F7E7",
"/. c #70EFF4",
"(. c #898686",
"). c #978A87",
"_. c #99948C",
"`. c #998E93",
"'. c #979595",
"]. c #A78884",
"[. c #B98B85",
"{. c #AA9988",
"}. c #B99588",
"|. c #AE8799",
" X c #B78896",
".X c #A79A96",
"XX c #B79A97",
"oX c #9EA09F",
"OX c #BCA58A",
"+X c #A9A499",
"@X c #B8A699",
"#X c #B8B290",
"$X c #9E9FA4",
"%X c #AB89A2",
"&X c #A19CA3",
"*X c #B895A2",
"=X c #A9A6A6",
"-X c #B8AAA7",
";X c #BCB2AA",
":X c #B1ACB1",
">X c #ADB2B5",
",X c #BDB6B3",
"<X c #C58B85",
"1X c #C79986",
"2X c #C69A95",
"3X c #D49B91",
"4X c #EB9496",
"5X c #CAA488",
"6X c #D2A78B",
"7X c #CBB68D",
"8X c #C8A798",
"9X c #D3A997",
"0X c #CDB49B",
"qX c #D6B59A",
"wX c #ECAC9C",
"eX c #C79DA3",
"rX c #C6ABA6",
"tX c #D3ACA7",
"yX c #C4B4AC",
"uX c #D4B8A9",
"iX c #CBADB1",
"pX c #C4B6B3",
"aX c #D5BAB4",
"sX c #E7A8A6",
"dX c #EAB5AD",
"fX c #BDC3BC",
"gX c #C8C38C",
"hX c #CDC8AB",
"jX c #D6C5AC",
"kX c #C8C3B9",
"lX c #D6C6B9",
"zX c #D8D1BA",
"xX c #E6C8B6",
"cX c #9ABAC9",
"vX c #B6BAC2",
"bX c #C1BDC9",
"nX c #82D8E7",
"mX c #8EFCF6",
"MX c #ACF4FF",
"NX c #CBC7C4",
"BX c #D4CBC4",
"VX c #DBD6C8",
"CX c #CCD2D1",
"ZX c #DCDBD6",
"AX c #E3CFCE",
"SX c #E4DBCA",
"DX c #E4DCD3",
"FX c #E9E5D7",
"GX c #F1E8D0",
"HX c #F6EADB",
"JX c #DAE3EA",
"KX c #EAE9E5",
"LX c #F3EDE5",
"PX c #F9F6EA",
"IX c #EEF4F9",
"UX c #FDFCF8",
/* pixels */
"                                                                                                                                ",
"                                                                                                                                ",
"                                            JXFXFXFXDXDXDXHXFXSXSXDXBXzXlX-XzXLXBXBXZX                                          ",
"                                  VXLXSXDXDXDXGXDXFXDXSXGXVXhXSXVXhX#X;XSXzX#X{.zX{.SX,XCX                                      ",
"                              KXZXVXBXhXVXSXSXFXSXSXVXVXVXzXGXyXyX@X%.>.SXS ^ hXb %.> )._.kX                                    ",
"                            ZXVXVXSXHX^ FX@X_.zXyXhX#XzXhX#X%.#X%.#XHX#Xc n n b b g KXh A _._.,X                                ",
"                          KXHXzXSXhX{.+X+XkXFXPX;X^ +X+XGX%.+Xn hXm _.: b & : h : : : : : b b C BX                              ",
"                          VXVXyXhX{.OX+XVXb KXFXzX_.;X+Xm +X: h : = 5 b b 5 f & f & 5 # : f f A b )                             ",
"                        FXGXVXzX%.^ hXS A PX,X$.GXn _.#XGXS S l h f & 5 & k r 5 & & & % & r & % h l =X,X                        ",
"                      FXPXFXzXSXLX{.S $.(.,Xb % ;Xh ;Xh (.b S $.h f u = 5 5 f q r & & $ & & & & l f h C ,X                      ",
"                      FXHXSXVXFX;X$.l oXS : k & +Xb A & h k A f h : r g 5 5 f r & r & & $ & & & & = h c ).kX                    ",
"                    HXHXFXPXVXPXVX+Xb b JXC UXD >XVXCX$.> h h h b g u g f f & f k & 5 r u % & & & & : f h $.                    ",
"                    PXLXPXGXLXVXfXKXG (.f _.k A CX: S A l h : f : h f k f & f k & 5 = = r & 5 & & = & = f f S                   ",
"                    UXPXkXBX=XVXFX>X$.$.G A A ZX) g S S S Z l l h h l = h 5 q k f c j f r f f & & & : & : = h '.                ",
"                    FXFXCXfX;X>X=X$.vXG (.).)..X_.+X.X).&.$.&.m m C b l g f g = j g j f q : j f 5 & f : & f 5 k k               ",
"                  UXUXKXZXBXKXb (.oX=X+X+X-X@X=X@X@XXXXX@X.X^ _ ^ Y _ / ^ C Z c c g f l g b f f g = g : f = f f D               ",
"                KXUXZXPX=X$.C $.G (..X-X-X,X;X,X,X,X,X;XyXyX-X-X{.{.}.].;._ v ! ^ h g g m m n v g c h g g h l h G               ",
"              KXPXPXLX,XCX_.G A $.`.+X,X,XpX,XpXpXpXpXpXpXpX;XrXrX@X@X@XOXXXOX].%.Y m z -./ _ T ^ {.-._ m b c A c               ",
"              FX{.fX_.-X(.(.A G $._.=X;XkXkXpXkX,XpX,XpXpXpX,XyXyXyXyXrXrX@X@XOX}.}.].&.}.XX@XXX@XXXXX}.]._ c b Z G             ",
"            FX;Xb $.oXoX(.A $.(.(.oX,XpXpX,XkXpX,XpXpXpXpXyXpXpXpXyXyX;X;X;X8X@XOX{.:.@X@XrX;XyXrX;X@X@XXX{.T v _ S             ",
"            NXoX'.G '.'.z.) $.r..X-X,XpX,XfXpXfXpX,XpX;X,XyXpXyXpX;XyXyXyX;XyXrXrX}.-XrXrX;XrXyXyXyX;XrX2X@X:.Y v ^ D           ",
"            BX;X'.JX(.z.$.G (.).-X;X,X,XpXpXpX,X,XpX,X,XpX,XpX,XiX,XyXpX-XyX;XyX-X;X;XyX;XyX,XyX;XyXrXrX8X#X5X/ -.XXl           ",
"            fX=XC k D '.) (.&.-X;X,X,X,X,X,XpX,X,X,X,XyX,X,X;X,XpX,XiX,XiX;XyX;XyX;XyXyX-X,XiX;XyXyXrX;X8X8XOXT Y z c           ",
"            ZX,X$.A _.G $.$.OX;XpX,X,X,X,X,X:X,X,X;X,X,X,X,XpXpXiX;XiX;X,X,XyX-XiX,XyX,XiX,XiX,X,XrXrX;X8X@X8XT Y m ^           ",
"            =X'.$.G '.S $.+X,XpX,X,X,X>X,X>X:X:X:X:X:X-X:X:X,X:X,X;X,XiX;XiXpX,X;XpXrX,XyX,X;XiX,XrXyX@X8XOXOX/ T z !           ",
"            >X,X_.oX'.A +XpXpXfXfX,X:X:X'.:X:X`.r.`.(.`.:X*X:X-XiX-XiX-XiX;XyXrXyXrXiX,XiX,XiX,XyXrX-X@X8X@X8X:.x Y /           ",
"            PX'.JXCXz.V bXbXbX:X,XbXIXUXUXIXJXvXD V N D ) F r.`.&X*X-X-X-XeX-X].rX-XrXrXyXrX-XiX-XrX-X@X@X@XOX:.x /             ",
"        HXDX@X} G z.'.&X:XM y u y y y M nX/.~.~.~./.d V a y V p $ F r.].%XXXXXXXXXXX@X-X@X-X@XXX=X*X.X*X.XXXXX}.x /             ",
"      dXJ @.aX8X{.$X) ,XkX,X$ r y y W.v.U.P.P.c.b.R.e 6 2 t p l.Q.s M % b ) _ &.].].].].i.&.r.).r.).r.r.G &..X5Xx ].            ",
"      wX .sXsX2X.XvX`.fXfXkXfXr k W.M.I.I.I.v.P.P.^.Y.mXI.MX~.v.s 7.k.8.r y j y j y % c g f 4 y y t 2 1 1 6 t M r               ",
"      4XL xXuXsXaXkX-XbXpXkXNXr p Z.E.j.Q.Z.I.b.c.b.b.U.f.^.~.C.L.i d /.i y u k k k r r r r D.6.h.h.G.F.F.H.S.S.A.MXp p p       ",
"        X.AXsXwXxXkXpXBXkXNXpX& 9 /.D.Q.Q.~.~.I.R.R.R.R.mX!.mX!.K.J.H.i h.u r _ ! c q r 1 H.S.D.9 h.M.q.g.K.S.F.S.cXbXz 4 5 j   ",
"        wXdXqX2.sX{.BXBXBXkX,X=X2 E.C.j.L.Z.Z.Q.T.U.R.~.mXQ.!.K.H.H.H.H.H.f r _ ! g # r A.H.H.H.H.L.i 8 V.q.i 0 r gX> #Xj p     ",
"          O.sX..dXkXBXBXBXNXpXpXM 7.K.J.K.j.C.K.!.!.!.!.!.!.L.J.H.H.H.H.L.u F i.( , # y F.H.H.H.H.H.H.i 1 6 < 4 c >.gXgXM       ",
"          4XuXo.4X+XAXBXAXBXpX;Xj w.A.F.H.H.H.J.J.J.K.J.L.L.L.C.g.D.H.H.2 # ! u._ c + t F.H.F.H.H.H.F.H.F.1 4 3 c gXgXhX5       ",
"          aX4XdX3XpXBXZXLXDXpXrXpX7 S.S.F.F.F.H.H.H.J.H.H.H.H.H.H.H.0.V.r B i.i._ ( + r F.G.H.g.m.H.H.H.F.G.q.A.+X4.5..         ",
"            sXd.lXBXZXLXAXaXpXiX-Xr 8 S.S.F.F.F.F.H.H.H.H.H.F.g.n.0.e.r ( t.i.u.i.u.q # G.H.G.H.m.q.G.F.L.6.x.7 > >.&.k         ",
"            AXaXaXAXCXPXAXlXpXpXpXiX5 8 A.S.S.F.F.F.F.F.H.H.D.0.6.6.# Z t.y.u.u.u.t.( # t G.e.0.e.0.6.q.a 9 4 & o z j           ",
"              iXaXNXDXPXBXBXaXaXrXiX XXXu 8 A.S.A.6.E.C.N.N.B.1 r = ( s.s.a.a.a.a.y.y.B + 9 9.9.9.D.8 2 3 3 $ & & M             ",
"              aXiXBXFXLXkXlXBXiXiXeXeX2Xp.} # l p 2 1 9 7 M + , B y.y.%X%X%X|. X|.i.y.t.q + 6 1 8 < 6 6 3 3 @ 4 j               ",
"              sXtXLXKXAXBXlXlXaXiXeXeXeXeXiXrXrXrX1X=.#.=.R '  X%X%X%X*XrXeX*X*X2X*X].u.( I ` . 7 3 O O @ 3 $ eX                ",
"                ZXbXPXBXaXlXaXaXiXtXtXtX9XtXtXtX5X1.=.,.;.<.U 8XrXtXrXtXrXtXrXrX2X}.<Xp.} ] =.=.=.1Xp.[.| <X;.{                 ",
"                    LXAXlXAXaXaXtXtXtXtXqX9X6X1X,.1.1.:.;.;.<.+.R ' R 3.9X9XqX9X9X1X;.[.[.;.<.<.,.1.8X8X2X2X[.|                 ",
"                    -XDXaXNXaXaXtXtX9X6X9X5X3.3.1X1X1X[.[.[.}.}.1.3.1X5X3X6X6X1X1.=.[ ;.| ;.;.:.1.1.1.6X3X[.+.`                 ",
"                    bXBXlXaXaXuX9X6X6X6X3.6X6X8X5X2X[.2X[.[.[.[.;.;.1.1X1X5X1X3.:.:.;.-.} ;.[.;.1.3.,.5X1X1.| ;.                ",
"                    DXLXlXaXdXuX9X6X6X1.6X7X7X0X8XrX8XrXeXXXXXXX].].} ` ~ ~ ~ ~ ~ } } ].} [.} [.1X1X,.,.1.<.+.=.                ",
"                    PXaXaXaXuXdXqX6X6X1.3.3.9X9X0XuXtX0X8X1X3X<X2X<Xd.<XO.O.o.o.{ +.| +.| ;.:.[.:.1.,.6X1.1.;.                  ",
"                    FXDXaXaXuXuXqXqXqXR 3.3.<.` * X , - H [ [ o.[ o.o.<.O.O.+.' O.o.U U U ` ' ] =.,.1.1.6X=.*.                  ",
"                      BXaXuXuXjXqXqXqX6X3.1XtX9XQ I o - Y 7X5XjXjX6XjXlXjX<.jXjXR 7X1.X o - ; W <.1.1X5X=.=.                    ",
"                        aXaXuXqXdXqXqXqX3.6X0XuXuX| W w - *.>.jXjXjXVXzXzXjXjXjX0X7XOX+ o w E <.1.;.6X;.1X                      ",
"                        kX{.uXuXqXqXqXqX7XqX0XyXaXuX2Xp.{ W E K x -.*.hXT zXjXzX*.-.+ ; K I [.;.3.9X1.;.                        ",
"                          yXuX0XqXuXqXqXqX7XuXuXuXuXuXaXeX Xp.{ Q W E P E P P K P w P ~ W ;.[.3.6X1.]                           ",
"                            yXjXjXuXuXjXqX0X0XuXuXaXuXuXaXaXrX[.d.{ { Q Q Q Q Q Q { Q } [.;.:.5X:.;.                            ",
"                              jXaX0XuXjXuXuXuXuXaXuXuXuXuXtX0X9X9Xp.+.{ O.{ +.{ +.| [.;.;.-.OX:.-.                              ",
"                                  uXqXjXuXuXaXpXaXuXaXuXtXtX9X9X1X3X3X<X1X1X1X1X:.<X:.;.[.:.1X                                  ",
"                                    OXuXuXjXaXjXuXaXyXuXyXtX9X8XeX3X2X<X3X1X3X1X<X1X[.[.;.}.                                    ",
"                                        uXuXuXaXhXaXuXuXyXtXrXiXrXrXeXrXeX8X2X2X2X2X}.}.].                                      ",
"                                          0X0XuXaXuXuXuXyXtXrXrXrX8XrXeXrXeX@XXX2X}.}.}.                                        ",
"                                            :.OX0XuXaXuXtX0X9X9XeXtX8XrX8X8X2X<X}.<X}.                                          ",
"                                                :.0XuX0X0X9X9X2X9X9XeX9X2X2X1X<X[.<X                                            ",
"                                                      OX0X9X8X3X3X5X9X9X3X2X<X<X:.                                              ",
"                                                          9X9X6X6X5X6X1X1X1X1.                                                  ",
"                                                                                                                                ",
"                                                                                                                                "
};
