/* XPM */
static char *player32[] = {
/* columns rows colors chars-per-pixel */
"32 32 23 1 ",
"  c gray13",
". c #46321C",
"X c #420D22",
"o c #6E4615",
"O c #434343",
"+ c gray39",
"@ c #824F12",
"# c #AD2158",
"$ c #FF3868",
"% c #FF6860",
"& c #FFDA68",
"* c #1A2882",
"= c #387A93",
"- c #5EB1B2",
"; c #7ADAC9",
": c #FF8CA9",
"> c #FFAEA0",
", c #FFA8BF",
"< c #FFE082",
"1 c #FFD1C0",
"2 c gray92",
"3 c white",
"4 c None",
/* pixels */
"44444444444444444444444444444444",
"444444444           444444444444",
"444444444           444444444444",
"44444444 ,,:::::::<<     4444444",
"44444444 ,,:::::::<<     4444444",
"444444  :$$$$$$$$$$$#####  44444",
"444444  :$$$$$$$$$$$#####  44444",
"444444       %%113  %%   4444444",
"4444  OO%OO%%11113  11111  44444",
"4444  OO%OO%%11113  11111  44444",
"4444  OO%OOOO11111OO%%%%111  444",
"4444  OO%OOOO11111OO%%%%111  444",
"4444  OOO>>111111OOOOOOO   44444",
"4444  OOO>>111111OOOOOOO   44444",
"444444   %%>>>>>>1111111 4444444",
"444444   %%>>>>>>1111111 4444444",
"444444XX:$$;;$$$$;$$$$XX44444444",
"4444XX::$$$;;$$$$;$$$$$$X4444444",
"4444XX::$$$;;$$$$;$$$$$$X4444444",
"44XX::$$$$$;;;;;;;--$$$$$XX44444",
"44XX::$$$$$;;;;;;;--$$$$$XX44444",
"44++3333$--33;;;;3--$$333++44444",
"44++3333$--33;;;;3--$$333++44444",
"44++22333--;;;;;;;;;33332++44444",
"4444++22---;;;;;;;;;;;22+4444444",
"4444++22---;;;;;;;;;;;22+4444444",
"444444**=====--**=--;;;;*4444444",
"444444**=====--**=--;;;;*4444444",
"4444..&&@@@oo..44.oo@@@@&  44444",
"4444..&&@@@oo..44.oo@@@@&  44444",
"44..@@@@@@@oo..44.oo@@@@@@@..444",
"44..@@@@@@@oo..44.oo@@@@@@@..444"
};
