/* XPM */
static char *player16[] = {
/* columns rows colors chars-per-pixel */
"16 16 23 1 ",
"  c gray13",
". c #46321C",
"X c #420D22",
"o c #6E4615",
"O c #434343",
"+ c gray39",
"@ c #824F12",
"# c #AD2158",
"$ c #FF3868",
"% c #FF6860",
"& c #FFDA68",
"* c #1A2882",
"= c #387A93",
"- c #5EB1B2",
"; c #7ADAC9",
": c #FF8CA9",
"> c #FFAEA0",
", c #FFA8BF",
"< c #FFE082",
"1 c #FFD1C0",
"2 c gray92",
"3 c white",
"4 c None",
/* pixels */
"44444     444444",
"4444 ,:::<   444",
"444 :$$$$$### 44",
"444    %1 %  444",
"44 O%O%11 111 44",
"44 O%OO11O%%11 4",
"44 OO>111OOO  44",
"444  %>>>111 444",
"44X:$$;$$$$$X444",
"4X:$$$;;;-$$$X44",
"4+33$-3;;-$33+44",
"4+233-;;;;332+44",
"44+2--;;;;;2+444",
"444*===-*-;;*444",
"44.&@@o.4o@@& 44",
"4.@@@@o.4o@@@@.4"
};
