/* XPM */
static char *_7f05088c7864063d90183079580f823aCKkgH9yW5TG8UVI[] = {
/* columns rows colors chars-per-pixel */
"64 64 256 2 ",
"   c #120E0B",
".  c #1B130F",
"X  c #0F0E16",
"o  c #120D11",
"O  c #19141A",
"+  c #2E1A04",
"@  c #341F07",
"#  c #281B17",
"$  c #26200A",
"%  c #2D2219",
"&  c #382817",
"*  c #35261C",
"=  c #2F1F21",
"-  c #2C2629",
";  c #2B2324",
":  c #352628",
">  c #342425",
",  c #342B25",
"<  c #3A2D23",
"1  c #342C2D",
"2  c #3A2C2C",
"3  c #37312A",
"4  c #3B332C",
"5  c #2D2B36",
"6  c #392E38",
"7  c #342D33",
"8  c #363137",
"9  c #3B3234",
"0  c #35323C",
"q  c #3B343B",
"w  c #412A0C",
"e  c #472C14",
"r  c #493419",
"t  c #4D341A",
"y  c #4E391C",
"u  c #563916",
"i  c #52361C",
"p  c #533A1D",
"a  c #5B3D1C",
"s  c #422B27",
"d  c #493A29",
"f  c #43352C",
"g  c #553B27",
"h  c #543C23",
"j  c #5A3E23",
"k  c #463A39",
"l  c #443B34",
"z  c #553F3C",
"x  c #613F27",
"c  c #5E411D",
"v  c #564125",
"b  c #5B4424",
"n  c #55432C",
"m  c #5A432A",
"M  c #5D4A2A",
"N  c #4A4139",
"B  c #574737",
"V  c #534434",
"C  c #5C4B32",
"Z  c #54443B",
"A  c #5A4B3D",
"S  c #59543C",
"D  c #674928",
"F  c #634B2D",
"G  c #6A4E2C",
"H  c #68542F",
"J  c #76552B",
"K  c #674B39",
"L  c #624632",
"P  c #644C33",
"I  c #6A4B32",
"U  c #685537",
"Y  c #6D5434",
"T  c #6C533D",
"R  c #765834",
"E  c #735233",
"W  c #7D5C34",
"Q  c #72553A",
"!  c #745A3C",
"~  c #7C5D3D",
"^  c #7E6137",
"/  c #7C613D",
"(  c #2D2F43",
")  c #373542",
"_  c #463E42",
"`  c #494546",
"'  c #574B45",
"]  c #5C5149",
"[  c #494958",
"{  c #5B4E51",
"}  c #5C5958",
"|  c #624E45",
" . c #665948",
".. c #625343",
"X. c #6C5B43",
"o. c #715741",
"O. c #745C44",
"+. c #7A5D43",
"@. c #735C4A",
"#. c #695A56",
"$. c #725F57",
"%. c #69624F",
"&. c #76654B",
"*. c #7D6244",
"=. c #7C654A",
"-. c #6E645A",
";. c #796655",
":. c #746355",
">. c #7C6B5A",
",. c #7F725B",
"<. c #5E5B62",
"1. c #6A6263",
"2. c #706465",
"3. c #845F39",
"4. c #84693A",
"5. c #856335",
"6. c #83633D",
"7. c #8A663B",
"8. c #8C6B3E",
"9. c #916936",
"0. c #936D3C",
"q. c #996E3D",
"w. c #94713E",
"e. c #9A723D",
"r. c #A3733D",
"t. c #805F41",
"y. c #8A6644",
"u. c #836543",
"i. c #846944",
"p. c #8C6C44",
"a. c #83654A",
"s. c #856A4D",
"d. c #8C6D4A",
"f. c #926D44",
"g. c #9A6E42",
"h. c #936E4B",
"j. c #85704B",
"k. c #8D724C",
"l. c #957344",
"z. c #9C7444",
"x. c #9D7A45",
"c. c #94734B",
"v. c #9B754B",
"b. c #95794C",
"n. c #9D7A4C",
"m. c #876C57",
"M. c #836B53",
"N. c #906D54",
"B. c #8B7859",
"V. c #8C7354",
"C. c #84745D",
"Z. c #8D745A",
"A. c #98735B",
"S. c #947552",
"D. c #9B7653",
"F. c #947955",
"G. c #9D7B53",
"H. c #92755C",
"J. c #947A5C",
"K. c #9B7D5B",
"L. c #AA7741",
"P. c #A27544",
"I. c #A37A45",
"U. c #AA7C45",
"Y. c #A2764A",
"T. c #A47B4B",
"R. c #AA7D4C",
"E. c #B17E47",
"W. c #A47753",
"Q. c #A37D52",
"!. c #AA7E52",
"~. c #A47E5A",
"^. c #B17E51",
"/. c #816F62",
"(. c #887564",
"). c #847364",
"_. c #8C7A64",
"`. c #8C7D6A",
"'. c #977864",
"]. c #947D63",
"[. c #9A7E64",
"{. c #917C6E",
"}. c #837776",
"|. c #A17E66",
" X c #A7803F",
".X c #9D804D",
"XX c #98845F",
"oX c #9E8153",
"OX c #9C825D",
"+X c #A78549",
"@X c #AC8245",
"#X c #A5824D",
"$X c #AC824D",
"%X c #B58349",
"&X c #B3844D",
"*X c #B38A4E",
"=X c #BA894D",
"-X c #B5914F",
";X c #A5895B",
":X c #A58253",
">X c #AC8353",
",X c #AD8955",
"<X c #A4835B",
"1X c #AB855A",
"2X c #AD8A5B",
"3X c #BB8759",
"4X c #B38553",
"5X c #B88654",
"6X c #B48A54",
"7X c #BB8C55",
"8X c #B3865A",
"9X c #B48B5B",
"0X c #BA8C5B",
"qX c #B79154",
"wX c #BC9255",
"eX c #B5915B",
"rX c #BC925C",
"tX c #8D816B",
"yX c #9C8769",
"uX c #9B8363",
"iX c #92826C",
"pX c #9B826C",
"aX c #8C8270",
"sX c #978876",
"dX c #958470",
"fX c #A88969",
"gX c #A28563",
"hX c #AA8662",
"jX c #A48964",
"kX c #AC8B63",
"lX c #A48A6A",
"zX c #B48B67",
"xX c #B38D62",
"cX c #BB8D61",
"vX c #AA9064",
"bX c #AD926C",
"nX c #BB9667",
"mX c #B59261",
"MX c #BC9362",
"NX c #A89272",
"BX c #B49976",
"VX c #C18D54",
"CX c #C18E5B",
"ZX c #CE9F5E",
"AX c #C29356",
"SX c #C3935C",
"DX c #C3995B",
"FX c #C28E62",
"GX c #C89A69",
"HX c #C29362",
"JX c #C99664",
"KX c #C39A64",
"LX c #D19F6A",
"PX c #C8A060",
"IX c #9D9386",
"UX c #AA9D8C",
/* pixels */
"Z.J.M.U F.K.F.].J.H.H.'.A.S.h.V.K.S.S.S.K.K.OXOXgXXXXXyX[.J.K.vXbXhXOXD.J.].XXV.F.K.XXgXjXgXOXG.OXD.h.D.N.J.uXJ.J.H.H.! F.B.C.IX",
"B.n.D G G.l.0.n.n.Q.v.Q.!.zX~.G.~.2X>X$X6X6X,XqXDXrXKXHXHXCXVX=X&X7XCXHXrX4X4X4X4X&X6X+X+XT.#X#X#X!.T.R.w.l.I.T.#X:X#XW p.6.yXsX",
"a.6.v.R v.G.v.Q.:XQ.h.u.a.a.t.a.a.d.W.#X,X2X2X,X,X9XmXMXKXPXAXKXrX$XI.T.Q.Q.T.z.R.$X9X,X.Xw.^ 6.*.u.t./ 3.f.x.#X,XoXQ.W i.6.B.sX",
"! J b.P n P D I L B s k 2.] { ] l & n m m P L L P P K n n M M C C C C n m B B L C P I P F < V 1.{ { } ] * n L M L L L y G.8.D _.",
"V.~.f.y C H D I x K f . O O o o   < K T Q I Q Y Q Y ! U v U H Y H ! R &.F n O.! ! D Q E ! d . O O X X X # P Q G I I Q w i.n.G.pX",
"V.$XT.p / G.0.R.5.D.V..., 3 ; ; ' _.H.oXn.n.1X:X9X4XzX~.t.kX2X0X^.9X8XcXD.8.2X1X1Xg.W.T.:Xj.%.: 7 - ; ] &.c.Q.n.Y.W.Q.u k.>Xn.].",
"S.^.<Xp R v.Y.:X5.n.S.:.1 3 1 ;  .tX_.~.G.l.I.,X9X>XeX~.+.<X>X>X8XmX3XR.:X0.#X$X>Xz.E.R.G.V.>.< 9 8 = #.V.l.e.!.Y.T.Q.h k.$XQ.iX",
"F.$X~.y i.v.Y.W.^ G.K.,., 3 q - ;.sX[.kXQ.w.,X,X>X,XMXOXa.<X9X#X8X9XcX^.~.7.:X,X4XY.4XU.n.V.C.f 9 ` , ).V.oXP.W.T.T.~.i j.>X:XiX",
"F.^.G.y a.T.!.G.y.<XOXC.l 4 8 1 ;.yX~.zX<X0.*X*XI.6X>X<X=.hX,X9X,X8X0X9X~.I 1XnX1X!.^.$X$XF.B.N - 7 2 (.d.#X,X>X^.@XG.t k.9XQ.iX",
"OX8X~.y i.Y.!.~.p.;XOX`.f 1 7 9 &.jXhXzX:Xe.&X,X6X>X9XG.M.<X#XMX4XcX8X3X~.I hXnX>X>X8X*X6Xb._.l 5 1 f _.f.!.>X9X&X Xh.h i.$Xn.`.",
"uX4XQ.h u.Y.!.:X7.:XK.dX3 7 0 7 =.jX8XxX>Xe.%XwX6X$XKXS.s.kX>XrX9X9X4X3XA.E xXcXT.T.1X4XcXb.).q ( 7 < Z.f.Y.$X4X*X Xf.h u.e.n.`.",
"F.Y.b.y ! >X!.#X5.<XF./.0 - 6 ; X.kXcX8XeXr.qXeX$X9XGXD.=.kXcXMX1X4X6XCXD.E nX9XU.6X>X8X6XD.).q 5 q , =.f.T.:X$X@X@Xc.t i.r.:X`.",
"k.R.n.y / >XY.>X8.K.S.;.0 ) q - X.vX4X6X6XI.eX2XY.9XKXS.m.zXcXnXQ.6XAX&XD.R zX6X$X$X*X4XcXS.$.8 0 [ 5 T l.:X>X$X@X>XD.t i.R.~.iX",
"S.R.Q.p / !.I.>X8.D.D.;.5 [ ` 1 T 1XE.CXeXe.#X9XQ.!.HXc.m.hXcX9XY.6XwXR.v.p.>X6X5X$XrX0XrXN.:.7 8 ( 8 O.b.#Xn.#X*X#XG.p j.$XQ.iX",
"K.4Xn.y u.:X4X#X7.<XG.Z.5 ( ( 7 X.n.%XJX,Xz.:X2XT.T.HXc.V.hXrX4Xz.9X6XI.h.v.8X8X5X6XSXrX3XD.>.9 7 0 q s.T.Q.>X>X@X>XG.p V.$XQ.dX",
"V.^.b.p u.!.,XT.f.~.W.'.4 ( 5 3 @.~.E.GXqXl.2X1XR.9XJXG.k.~.rX,X>X0XU.^.oXc.9X4X5X>X0XJX3Xc.;.l 0 5 3 J.n.Q.,X$X*X:XG.p k.P.n.iX",
"k.^.oXv i.#X4X>Xc.k.W.|.k q _ l A oX^.LX!.n.1X2Xv.6XMXn.F.hXwXqXcXrX&XR.G.oX0X0X8X8X8XJX3XQ.Z.Z q [ N gXz.>XQ.,X*X>XG.p F.x.n.iX",
"S.4XQ.b j.T.4X2X7.d.!.K.' k _ ' L K.FXGX>Xg.2X1XY.9XGXh.V.mX9X6XMXcX4X4Xp..XrX$X!.R.4XFXCXn.].-.2 7 T fXd.2XQ.9X&X#XD.p d.$Xn.`.",
"S.$XoXM p.I.>X,X8.c.T.G.&.1 2 :.*.~.FXFX>X7.kX2XW.,XAXN.F.KXHX8XFXcX0X8Xh.T.rXrXR.>X$X5X5Xg.[.(.3 1 =.jXN.2X,X2X6Xx.S.j p.T.b.aX",
"K.$X2XM p.T.>XT.f.h.n.Q.Z.q 1 >.m.8XHX7X>Xz.2XxXY.8X6XN.jXeXFXHX4X3XcX8X8.oX*X4X>X9X4X5X5Xw.G.dXN 2 B.zXd.:X,X>X>XU.D.j c.I.F.`.",
"J.$X1XM p.#X,XU.f.k.T.Q.F.N f >.k.8X0XSX8Xx.<X9X!.>X*XA.jXeXT.cX0X4XcX^.f.2XwX6XcXR.4X7XR.T.G.K...s A.:XA.T.6X8X4X>XG.a h.I.b.aX",
"F.+X:XM k.!.$X$Xc.S.v.$X~.+.I V.p.cX5XwX$Xn.,XeX>X4XU.A.F.,XT.8X3XMXcXcXG.2X6X4XT.$XE.VXR.6X2X1Xa.I !.!.h.,X@X8X8X4Xn.c c.I.b.`.",
"K.R.Q.M p.I.#XE.h.k.v.R.8XW.W.G.5.,XHX7XrX>X2X,XQ.>XU.A.XX+X9X0X4XcXcX3Xc..X+X0XT.5X%X&X$XT.,X9XT.W.E.$XD.2X@X8X4X^.T.a h.+XG.).",
"K.>X.XM 4.Y.:XT.8.d.n.!.>XP.R.,XW ,XDXwXrX#XeX6X@X$XY.G.D.xX$X$XR.9X9X4X5.n.rX8X8X0X6XU.5XY.1X0X%X&XP.>Xn.,X&XR.6X$X:Xu k.R.<X`.",
"K.>XoXM 4.x.Q.:Xf.p.n.:X4X#X0X8Xp.mXZXDXrX#X,X*XrX*XG.<XOXnX6X6X8X^.cX&Xb.l.KX4XcX8XxX%X5XT.xXHX=XSXR.0X:XeX*XT.R.*Xv.a p.I.<X_.",
"[.4XoXm 4.T.Q..Xf.h.D.>X>X>X4X>Xd.2XDXKXKX.XeX6X*X4XxX<XhXmXrXqX0X!.HX6XG.b.rXcXcX$XeXCXCX:XxX*XE.7X9XnX:XeX,X1X4X4Xb.a i.P.<X(.",
"K.1X.Xm 4.#XW.n.8.D..X>X4X,XU.>Xd.,XAXwX,Xl.9X$X&XrX1X~.hXxXeX6X>X>X0X6Xn.l.DXrX8X4X>XSXVXQ.;X9XE.0X,X1X7.mX,X>X4X$XG.p u.Y.1X`.",
"F.9X:Xv 4.#XG.x.7.F.:XQ.!.9XP.8Xp.9XAX7X#Xb.mXKXU.$XW.d.<X2XHX6XR.!.9X@Xl.x.wX7X0X6X0XCXE.v.n.6X7X>X!..XG 2XeX8X!.R.v.j u.R.<X`.",
"S.9X2Xv 8.>Xv.x.7.b.D.T.$X9XI.8Xc.mX=X&X,Xf.>XGXR.,X2Xp.<X2XGX6XMX8X9XR.v..X-XHX9XU.mXSXE.Q.l.0X*X4XxXkXJ :X,XcX8XT.p.j d.$X1XaX",
"S.6X+Xm c.W.v.l.5.v.v.T.6X0XR.2Xw.rXwX4X4Xw.2XKX!.4X9Xv.jXmXDXCXFX0X5X^.n.oXMXHX9X!.!.cX4X#Xn.xX>X4XmXxXJ kX$XcX>XP.h.c f.#X<X`.",
"b.6X#Xn 8.Q.h.x.5.v.l.T.$X6XP.,Xz.rXwX3XY.w.MX9XW.8X0Xn.bXmXDXJX7XSX5X^.v.<XMXHX4X!.9X0Xz.T.T.mX$X4XMXxXW 2X,X8X4XP.D.a f..XoX{.",
"b.,X.Xm W R.f.x.8.z.f.T.x.$XR.#X#XHXAX9X8X0.9XrX4XcX6X#XbX2X5X=XHXFX5X^.l.<XMX0X0XT.8X8Xw.T.#XMX$X9XcX>X3.>X$XT.4Xg.v.a c.e.oX{.",
"b.R..Xg 6.>XT.x.5.v.0.Q.r.4X>XT.T.HXwX9XcXw.0XMXT.0XwXoXBXxXSX&XCXJXFX3Xp.<XeX3XHXT.Y.4XT.z.Q.nX$X4XHXcXe.>XR.,X&X0.D.c p.x.oX{.",
"S.>X:Xm 7.!.#Xx.7.v.l.#XU.U.>X>Xx.rXCXHX9Xx.8XGXR.eXJX;XBXzXHXSXCXFXCX4Xf.oX9XHX8X!.Y.>X>Xx.T.9X5X5X9XJX>XR.>XcXR.P.~.a p.z.<X{.",
"b.R.oXg 6.T.#Xx.8.b.v.!.>XR.8XxXz.HXDXHX0Xv.>XcX4XqX7XmXbXkX7XCXCX3XHX^.v.:XrXKX!.9X9XR.Q.I.:X9X&XSX6XrXR.8X$X6XR.R.~.a f.x.<X`.",
"b.r.v.j 6.R.P.Y.8.b..X4X>X$X4X2XY.0X7X6XcXn.xX4X0X9X3X1XBX9X=XJX7X3X3XR.Q.mXqXKX8X2X8X!.T.Q.1XmX&X7X-X$XI.9X>X>X^.#Xc.a p.Q.:X_.",
"b.U.n.p 6.T.Y.v.8.x.n.#X&XR.!.1Xz.>XwX$X0Xv.eXR.6X4X^.D.jXnXAXLX7X4X5XR.D.2X-XqX9XxX!.1XW.Y.~.>X4X4XU.@XY.>X>X4XR.T.c.a p.Q.~.].",
"n.&X~.v t.Y.P.n.f.x.v.#X^.q.>XQ.T.6XSXI.cXz.9X>X6XT.CXv.bXmXAXJX5X^.3X^.c.:XDX4X>X>XW.>X!.T.9X:XHX>XR.8XQ.2XR.0XT.T.f.a i.l.D.].",
"oX&Xv.p 6.Y.P.Y.p.l..XT.I.r.!.8XT.0XSXr.cXn.nX8XHX$X5Xc.BXnXAXSX3X5X3X^.f.4XDXrX8X8XT.^.:XP.mX9XHXrX^.2XY.0X>X0XR.Y.k.u 8.p.G.].",
";X&XQ.i t.Y.z.z.8.l..XT.Y.Y.8X2X:XcXwXR.0Xv.nX6XHX8XCXh.bXMXCXVXCXCX^.^.y.eXwXCXcX8X8X$XT.z.mX,XwX6X4XcXw.,X4X$X4XT.c.u 6.l.G.].",
"b.7XW.y 6.P.g.z.8.p.,X$XT.R.T.1Xx.0X$X5X9Xn.nX$X^.0X^.7.hXKX=X=X^.&X5XP.f.9XAX7XJX8X0X4Xz.g.,X6X@X=X9X4X0.wX8XU.!.!.f.u i.P.G.`.",
"G.%Xn.j y.Y.g.r.p.! n.P.Y.>X!.,X0.>X&X4XqXI.KXE.&X3X5Xc.OXrXE.L.5Xr.>XR.8.>XwX8X3X=XAX&X!.Y.0XqX%X5XcX9Xz.KX9XP.$XT.d.a 8.r.T.tX",
"v.L.Q.b ~ T.T.P.p.R v.P.z.Y.8X:Xl.qX0X&X6Xx.rX$X^.5X3XY.vX>X=XL.&Xq.^.!.c.2X@X*X4X^.VX&X8X!.8X@X*XU.3XcXP.0X:Xq.4Xv.h.c p.r.n.`.",
"n.L.n.x u.Y.R.P.8.R n.R.g.Y.T.#Xl.>X&XI.6X#X$X$X5XU.5Xc.bX2XwX4X$XP.>X$Xc.2X*XHXcXU.&XE.^.!.T.R.VXU.8X8XI.4XT.R.>Xg.h.a p.r.P.`.",
"n.U.v.m u.R.T.P.y.G c.^.9.Y.!.1Xx.eX6X$X9XI.+X4X7XU.5Xc.lX<X4X>XQ.T.9X>Xc.;X+X0X8XI.&X4X5X^.R.!.DXE.0X8XI.$X#XP.T.Y.p.a f.e.Y.tX",
"v.L.Q.p h.Y.R.P.d./ n.^.0.T.>X,Xw.9X7X4XwXx.6X7X4X^.4XG.NXkX1X<X1X>XMX0Xc.;X*X9X~.I.6X7X7X$XT.8XSX&XFX8XT.9X8Xg.R.!.D.c p.r.#XdX",
"l.L.Q.p d.Y.R.Y.l.b.G.6X0.Y.Y.1X0.6XwXrXMX0.6XqX$X&X6XG.lXgXG.~.<X:XxX1Xy.oX*X>X^.z.4X&X%Xe.P.CX=XR.cX9XP.!.eXI.4X>XD.b p.r.>XdX",
"b.U.Q.b 8.P.U.#Xl.8.c.8Xe.Y.Y.>Xw.9X=XwX0Xf.9X&X4X,X1XS.+.@.o.O.@.! =.*.o.<X*X^.T.P.!.E.%Xq.x.=X&X&XrX6Xx.$X!.!.R.I.v.j d.r.T.iX",
"c.%X1Xb y.z.R.!.w.8.f.>XT.&XR.T.l.$X&X=X1Xg.eX&X8X;XOXH.d V k > s z | s @.oX$X$XY.T.$XU.%Xz.R.CX6X5X6X,Xg.#X#X>X!.4XQ.j p.E.Q.iX",
"b.&X,Xb p.z.R.#Xz.4.f.Q.R.^.T.Q.v.>XE.U.9Xl.6X$X1X;XJ.M.< Z k > : z ] * @.OX$XR.Y.Y.:XL.E.l.#X&XE.4X6XR.0.>X4X8X>X$Xv.j 6.$XT.iX",
".X&XQ.b p.P.$X#Xw.8.c.x.$XE.T.!.T.>XU.&XcXv.,X@XT.gX].C.< # % # % % * * @.K.+X!.!.Q.1X@X*Xl.Q.&X$X*X4XI.w.6X#XR.!.R.G.i u.5X>XiX",
"oX&X:Xb p.P.>XT.l.l.v.T.T.=X$XQ.Y.>XR.&X8Xg.qX6X!.jXJ.(.* _ #.s < #.| < X.F.,X!.1X:XkX^.6Xl.G.5X*X$X4X6X9.>XR.!.R.$XQ.a i.E.Q._.",
"n.wX,XM d.I.4X#Xw.c.n.T.z.6XR.Q.l.>X^.&XQ.0.>X*XI.gXpX$.-.` : # # * s #...B.;XR.!.Q.9X$X0X0.e.$X6XR.*X6X9.+X+X,XR.>Xn.c i.R.#X`.",
"v.=XxXF j.T.6X#Xl.f.Q.T.z.&X>Xl.l.2X6X6X#X8.2XqXU.hX(.$.; ' ` > = z { > ' X.1X>XR.x.^.$X$Xq.x.eX6X$X,X*Xe.+X6X#XP.+Xc.a k.U.2XtX",
".X=X2XM i.$X6X#Xl.8.n.T.R.&X,Xv.l.6X&X4X>X8.,X6XU.gX;.| # < 1 = # : 6 = ' &.k.>XI.T.>XE.R.q.e.qX$X4XeXqXx.+XeX,XP.+Xl.x k.&X2XtX",
",X%X:Xb k.T.6X#Xw.7.v.!.#X6XT.:Xc.>XR.U.,X0.#X,X^.K./.#.A z A Z ..d V V ;.C.*.n.T.$X7X$XR.q.9.>X@X4XKXeXn.:X,X8X$X+Xb.L c.$X2XtX",
":X%X;Xb 8.x.>X#Xx.p.G.!.x.5XT.n.l.8X@X@X$Xw.x.$XY.j.;.$.H.pXpXuXNXM.XX].>.>.O.gX>X@XDXqX&Xz.9.>XI.$XMX2Xl.Q.Q.9X6XI.D.h d.I.2XiX",
":X=X2Xv ^ x.!.#X#X8.v.>Xx.$XT.v.l.4X6X@X+Xw.Q.,Xv.Z.m.:.].[.yXlXlXJ.uXuX(.).O.OX.X X7X*X&XR.0.1XU.$XrX!.8.v.v.>X*X+Xh.e k.U.2XtX",
"oXqX,Xc / k.l.b.k.^ 8.n.b.n.l.8.4.,Xl.n.oX8.G.<XOX&.>.T H.V.uXXXj.s.].pX:.:.T J.c..X;X:XoXb.^ oXn.v.2XoXR h.G.<X.Xv.F.w S.:XvXtX",
"b.I.oXp y b b j v t h M M b j u e p t y i r i w @ $ A < f n V B d & n C f 1.f B d n v M M b y Y H H m v r p v j p p & + p.:XvXiX",
"/ J b.R ! i.^ ! O.Q ! a.d.s./ ~ *.u./ a.t.a.a.=.*.=. .} ` X.P Z ..S  .S N #.....K o.+.Q Q ~ +.*.i.=.j.j.*.*.s.*.s.a.+.P c.n.R B.",
"d.>Xv.W oX<X!.Y.z.z.z.+X$X,X$XI.>X$XR.>X:X4X>X9X6XvXB.%. .&.S.k.Z.yX`.:.O.u.hXzX2X1X6XR.R.6X6XqXDX=XE.7X&Xr.U.$X2X#Xn.7.i.p.S.tX",
"].f.E 6.oXv.Y.Q.x..Xx.#X#X$XT.x.$X,XT.>XI.$X#X>X!.n.K.XX&.>.;.*.M.m.>.@.6.mXmXMX9XE.R.$XR.7XMXrXSXVX7XCXCXCXrX9X2X2X2Xw./ G jXdX",
"'.[.dX,.B.Z.Z.].m.m.s.V.B.m.Z.Z.Z.Z.].].H.].H.[.[.yXXXXX,.1.<.1.}. .X.C.J.yXjXK.fX|.K.K.[.gX[.gXgXjXfXOXlXgXOX[._.,.].V.N.K.XXUX"
};
