/* XPM */
static char *wall32[] = {
/* columns rows colors chars-per-pixel */
"32 32 4 1 ",
"  c #B76D1B",
". c #733600",
"X c #421F00",
"o c #9C4A00",
/* pixels */
"            ..XX            ..XX",
"            ..XX            ..XX",
"  oooooooooo..XX  oooooooooo..XX",
"  oooooooooo..XX  oooooooooo..XX",
"..............XX..............XX",
"..............XX..............XX",
"XXXXXXXXXXXXXXXXXXXXXXXXXXXXXXXX",
"XXXXXXXXXXXXXXXXXXXXXXXXXXXXXXXX",
"    ..XX            ..XX        ",
"    ..XX            ..XX        ",
"oooo..XX  oooooooooo..XX  oooooo",
"oooo..XX  oooooooooo..XX  oooooo",
"......XX..............XX........",
"......XX..............XX........",
"XXXXXXXXXXXXXXXXXXXXXXXXXXXXXXXX",
"XXXXXXXXXXXXXXXXXXXXXXXXXXXXXXXX",
"            ..XX            ..XX",
"            ..XX            ..XX",
"  oooooooooo..XX  oooooooooo..XX",
"  oooooooooo..XX  oooooooooo..XX",
"..............XX..............XX",
"..............XX..............XX",
"XXXXXXXXXXXXXXXXXXXXXXXXXXXXXXXX",
"XXXXXXXXXXXXXXXXXXXXXXXXXXXXXXXX",
"    ..XX            ..XX        ",
"    ..XX            ..XX        ",
"oooo..XX  oooooooooo..XX  oooooo",
"oooo..XX  oooooooooo..XX  oooooo",
"......XX..............XX........",
"......XX..............XX........",
"XXXXXXXXXXXXXXXXXXXXXXXXXXXXXXXX",
"XXXXXXXXXXXXXXXXXXXXXXXXXXXXXXXX"
};
