/* XPM */
static char *wall16[] = {
/* columns rows colors chars-per-pixel */
"16 16 4 1 ",
"  c #B76D1B",
". c #733600",
"X c #421F00",
"o c #9C4A00",
/* pixels */
"      .X      .X",
" ooooo.X ooooo.X",
".......X.......X",
"XXXXXXXXXXXXXXXX",
"  .X      .X    ",
"oo.X ooooo.X ooo",
"...X.......X....",
"XXXXXXXXXXXXXXXX",
"      .X      .X",
" ooooo.X ooooo.X",
".......X.......X",
"XXXXXXXXXXXXXXXX",
"  .X      .X    ",
"oo.X ooooo.X ooo",
"...X.......X....",
"XXXXXXXXXXXXXXXX"
};
