/* XPM */
static char *coin64[] = {
/* columns rows colors chars-per-pixel */
"64 64 4 1 ",
"  c #725B31",
". c #EDDB39",
"X c #FFF9C3",
"o c None",
/* pixels */
"oooooooooooooooooooooooo                oooooooooooooooooooooooo",
"oooooooooooooooooooooooo                oooooooooooooooooooooooo",
"oooooooooooooooooooooooo                oooooooooooooooooooooooo",
"oooooooooooooooooooooooo                oooooooooooooooooooooooo",
"oooooooooooooooooooo    ................        oooooooooooooooo",
"oooooooooooooooooooo    ................        oooooooooooooooo",
"oooooooooooooooooooo    ................        oooooooooooooooo",
"oooooooooooooooooooo    ................        oooooooooooooooo",
"oooooooooooooooo    ........................        oooooooooooo",
"oooooooooooooooo    ........................        oooooooooooo",
"oooooooooooooooo    ........................        oooooooooooo",
"oooooooooooooooo    ........................        oooooooooooo",
"oooooooooooooooo    ........XXXXXXXX........        oooooooooooo",
"oooooooooooooooo    ........XXXXXXXX........        oooooooooooo",
"oooooooooooooooo    ........XXXXXXXX........        oooooooooooo",
"oooooooooooooooo    ........XXXXXXXX........        oooooooooooo",
"oooooooooooo    ........XXXX........    ........        oooooooo",
"oooooooooooo    ........XXXX........    ........        oooooooo",
"oooooooooooo    ........XXXX........    ........        oooooooo",
"oooooooooooo    ........XXXX........    ........        oooooooo",
"oooooooooooo    ........XXXX........    ........        oooooooo",
"oooooooooooo    ........XXXX........    ........        oooooooo",
"oooooooooooo    ........XXXX........    ........        oooooooo",
"oooooooooooo    ........XXXX........    ........        oooooooo",
"oooooooooooo    ........XXXX........    ........        oooooooo",
"oooooooooooo    ........XXXX........    ........        oooooooo",
"oooooooooooo    ........XXXX........    ........        oooooooo",
"oooooooooooo    ........XXXX........    ........        oooooooo",
"oooooooooooo    ........XXXX........    ........        oooooooo",
"oooooooooooo    ........XXXX........    ........        oooooooo",
"oooooooooooo    ........XXXX........    ........        oooooooo",
"oooooooooooo    ........XXXX........    ........        oooooooo",
"oooooooooooo    ........XXXX........    ........        oooooooo",
"oooooooooooo    ........XXXX........    ........        oooooooo",
"oooooooooooo    ........XXXX........    ........        oooooooo",
"oooooooooooo    ........XXXX........    ........        oooooooo",
"oooooooooooo    ........XXXX........    ........        oooooooo",
"oooooooooooo    ........XXXX........    ........        oooooooo",
"oooooooooooo    ........XXXX........    ........        oooooooo",
"oooooooooooo    ........XXXX........    ........        oooooooo",
"oooooooooooo    ........XXXX........    ........        oooooooo",
"oooooooooooo    ........XXXX........    ........        oooooooo",
"oooooooooooo    ........XXXX........    ........        oooooooo",
"oooooooooooo    ........XXXX........    ........        oooooooo",
"oooooooooooo    ........XXXX........    ........        oooooooo",
"oooooooooooo    ........XXXX........    ........        oooooooo",
"oooooooooooo    ........XXXX........    ........        oooooooo",
"oooooooooooo    ........XXXX........    ........        oooooooo",
"oooooooooooooooo    ........        ........        oooooooooooo",
"oooooooooooooooo    ........        ........        oooooooooooo",
"oooooooooooooooo    ........        ........        oooooooooooo",
"oooooooooooooooo    ........        ........        oooooooooooo",
"oooooooooooooooo    ........................        oooooooooooo",
"oooooooooooooooo    ........................        oooooooooooo",
"oooooooooooooooo    ........................        oooooooooooo",
"oooooooooooooooo    ........................        oooooooooooo",
"oooooooooooooooooooo    ................        oooooooooooooooo",
"oooooooooooooooooooo    ................        oooooooooooooooo",
"oooooooooooooooooooo    ................        oooooooooooooooo",
"oooooooooooooooooooo    ................        oooooooooooooooo",
"oooooooooooooooooooooooo                oooooooooooooooooooooooo",
"oooooooooooooooooooooooo                oooooooooooooooooooooooo",
"oooooooooooooooooooooooo                oooooooooooooooooooooooo",
"oooooooooooooooooooooooo                oooooooooooooooooooooooo"
};
