/* XPM */
static char *enemy64[] = {
/* columns rows colors chars-per-pixel */
"64 64 12 1 ",
"  c black",
". c gray24",
"X c #444363",
"o c #505080",
"O c #6B6BAB",
"+ c #8181CE",
"@ c #9797F0",
"# c #C5C5C5",
"$ c gray83",
"% c gray88",
"& c white",
"* c None",
/* pixels */
"****************************************************************",
"****************************************************************",
"****************************************************************",
"************************XXXXXXXXXXXXXXX*************************",
"************************XXXXXXXXXXXXXXX*************************",
"************************XXXXXXXXXXXXXXX*************************",
"************************XXXXXXXXXXXXXXX*************************",
"*********************XXX@@@@@@@@@@@@@@@XXX**********************",
"*********************XXX@@@@@@@@@@@@@@@XXX**********************",
"*********************XXX@@@@@@@@@@@@@@@XXX**********************",
"*****************XXXX@@@++++++++++++++++++XXXX******************",
"*****************XXXX@@@++++++++++++++++++XXXX******************",
"*****************XXXX@@@++++++++++++++++++XXXX******************",
"*****************XXXX@@@++++++++++++++++++XXXX******************",
"**************XXX@@@@+++OOOOOOOOOOOOOOOOOOOOOOXXX***************",
"**************XXX@@@@+++OOOOOOOOOOOOOOOOOOOOOOXXX***************",
"**************XXX@@@@+++OOOOOOOOOOOOOOOOOOOOOOXXX***************",
"**********XXXX@@@++++OOOOOOOOOOOOOOOOOOOOOOOOOOOOXXXX***********",
"**********XXXX@@@++++OOOOOOOOOOOOOOOOOOOOOOOOOOOOXXXX***********",
"**********XXXX@@@++++OOOOOOOOOOOOOOOOOOOOOOOOOOOOXXXX***********",
"**********XXXX@@@++++OOOOOOOOOOOOOOOOOOOOOOOOOOOOXXXX***********",
"*******XXX@@@@XXXXXXXOOOOOOOOOOOOOOOOOOOOOXXXXXXXOOOOXXX********",
"*******XXX@@@@XXXXXXXOOOOOOOOOOOOOOOOOOOOOXXXXXXXOOOOXXX********",
"*******XXX@@@@XXXXXXXOOOOOOOOOOOOOOOOOOOOOXXXXXXXOOOOXXX********",
"***XXXX@@@++++OOO$$$$XXXOOOOOOOOOOOOOOOXXX&&&&OOOOOOOOOOXXXX****",
"***XXXX@@@++++OOO$$$$XXXOOOOOOOOOOOOOOOXXX&&&&OOOOOOOOOOXXXX****",
"***XXXX@@@++++OOO$$$$XXXOOOOOOOOOOOOOOOXXX&&&&OOOOOOOOOOXXXX****",
"***XXXX@@@++++OOO$$$$XXXOOOOOOOOOOOOOOOXXX&&&&OOOOOOOOOOXXXX****",
"***XXXX@@@++++OOO$$$$   XXXXXXXXXXXXXXX   &&&&OOOOOOOOOOXXXX****",
"***XXXX@@@++++OOO$$$$   XXXXXXXXXXXXXXX   &&&&OOOOOOOOOOXXXX****",
"***XXXX@@@++++OOO$$$$   XXXXXXXXXXXXXXX   &&&&OOOOOOOOOOXXXX****",
"***XXXX@@@++++OOO$$$$   XXXXXXXXXXXXXXX   &&&&OOOOOOOOOOXXXX****",
"XXX@@@@+++OOOOOOO$$$$   &&&&OOOOOOO$$$$   &&&&OOOOOOOOOOooooXXXX",
"XXX@@@@+++OOOOOOO$$$$   &&&&OOOOOOO$$$$   &&&&OOOOOOOOOOooooXXXX",
"XXX@@@@+++OOOOOOO$$$$   &&&&OOOOOOO$$$$   &&&&OOOOOOOOOOooooXXXX",
"XXX@@@@+++OOOOOOO$$$$&&&&&&&OOOOOOO$$$$&&&&&&&OOOOOOOOOOooooXXXX",
"XXX@@@@+++OOOOOOO$$$$&&&&&&&OOOOOOO$$$$&&&&&&&OOOOOOOOOOooooXXXX",
"XXX@@@@+++OOOOOOO$$$$&&&&&&&OOOOOOO$$$$&&&&&&&OOOOOOOOOOooooXXXX",
"XXX@@@@+++OOOOOOO$$$$&&&&&&&OOOOOOO$$$$&&&&&&&OOOOOOOOOOooooXXXX",
"XXX@@@@+++OOOOOOOOOOOOOOOOOOOOOOOOOOOOOOOOOOOOOOOOOOOoooooooXXXX",
"XXX@@@@+++OOOOOOOOOOOOOOOOOOOOOOOOOOOOOOOOOOOOOOOOOOOoooooooXXXX",
"XXX@@@@+++OOOOOOOOOOOOOOOOOOOOOOOOOOOOOOOOOOOOOOOOOOOoooooooXXXX",
"***XXXX+++++++OOOOOOO#####################ooooooooooooooXXXX****",
"***XXXX+++++++OOOOOOO#####################ooooooooooooooXXXX****",
"***XXXX+++++++OOOOOOO#####################ooooooooooooooXXXX****",
"***XXXX+++++++OOOOOOO#####################ooooooooooooooXXXX****",
"*******XXXXXXXXXX#######%%%%%%%%%%%&&&&&&&####XXXXXXXXXX********",
"*******XXXXXXXXXX#######%%%%%%%%%%%&&&&&&&####XXXXXXXXXX********",
"*******XXXXXXXXXX#######%%%%%%%%%%%&&&&&&&####XXXXXXXXXX********",
"**************...####%%%&&&&&&&&&&&&&&&&&&..............********",
"**************...####%%%&&&&&&&&&&&&&&&&&&..............********",
"**************...####%%%&&&&&&&&&&&&&&&&&&..............********",
"**************...####%%%&&&&&&&&&&&&&&&&&&..............********",
"**********....       %%%&&&&&&&&&&&&&&&...              ....****",
"**********....       %%%&&&&&&&&&&&&&&&...              ....****",
"**********....       %%%&&&&&&&&&&&&&&&...              ....****",
"**********....          &&&&&&&&&&&....                 ....****",
"**********....          &&&&&&&&&&&....                 ....****",
"**********....          &&&&&&&&&&&....                 ....****",
"**********....          &&&&&&&&&&&....                 ....****",
"**************...           *******                  ...********",
"**************...           *******                  ...********",
"**************...           *******                  ...********",
"**************...           *******                  ...********"
};
