/* XPM */
static char *grass64[] = {
/* columns rows colors chars-per-pixel */
"64 64 101 2 ",
"   c #5EA642",
".  c #61A944",
"X  c #61AA44",
"o  c #419E38",
"O  c #349933",
"+  c #349A34",
"@  c #3D952B",
"#  c #498E1E",
"$  c #439124",
"%  c #339933",
"&  c #389A35",
"*  c #3C942A",
"=  c #488D1D",
"-  c #429023",
";  c #389B35",
":  c #4CA13C",
">  c #4EA33D",
",  c #45A03A",
"<  c #429E38",
"1  c #419D38",
"2  c #489830",
"3  c #529124",
"4  c #51972C",
"5  c #50A742",
"6  c #52A742",
"7  c #53A53F",
"8  c #5FA843",
"9  c #61A13C",
"0  c #669933",
"q  c #71A540",
"w  c #8FC562",
"e  c #89C15E",
"r  c #78BA56",
"t  c #5E9E38",
"y  c #599933",
"u  c #53982D",
"i  c #51972A",
"p  c #50962A",
"a  c #4B972E",
"s  c #459933",
"d  c #499D37",
"f  c #53A843",
"g  c #51A742",
"h  c #429D38",
"j  c #6CA03A",
"k  c #519123",
"l  c #3F9226",
"z  c #87C15E",
"x  c #699E38",
"c  c #639831",
"v  c #509023",
"b  c #488D1E",
"n  c #488E1E",
"m  c #409327",
"M  c #349934",
"N  c #359A34",
"B  c #458F20",
"V  c #3A952C",
"C  c #349932",
"Z  c #4BA03A",
"A  c #5DA541",
"S  c #5EA742",
"D  c #5FA943",
"F  c #5EA843",
"G  c #5CA642",
"H  c #62A945",
"J  c #8CC460",
"K  c #8CC360",
"L  c #39952D",
"P  c #4BA03B",
"I  c #60A944",
"U  c #64AA46",
"Y  c #60A238",
"T  c #66A53A",
"R  c #429C35",
"E  c #5CA43D",
"W  c #59A037",
"Q  c #56A139",
"!  c #50A23D",
"~  c #54A440",
"^  c #71B653",
"/  c #85BD58",
"(  c #4EA641",
")  c #559C33",
"_  c #59A039",
"`  c #87C05C",
"'  c #66A641",
"]  c #559933",
"[  c #4A9C36",
"{  c #3E9A33",
"}  c #409830",
"|  c #4FA13D",
" . c #4EA03A",
".. c #419124",
"X. c #88C05D",
"o. c #72A641",
"O. c #499933",
"+. c #3F9C37",
"@. c #5BA33E",
"#. c #85BD5A",
"$. c #8CC15E",
/* pixels */
"                  . X X X X X X X X o O O O O O O O O O + + + + + + + + @ # # # # # # # # $ % % % % % % % % &                   ",
"                  . X X X X X X X X o % % % % % % % % % % % % % % % % % * = = = = = = = = - % % % % % % % % ;                   ",
"                  . X X X X X X X X o % % % % % % % % % % % % % % % % % * = = = = = = = = - % % % % % % % % ;                   ",
"                  . X X X X X X X X o % % % % % % % % % % % % % % % % % * = = = = = = = = - % % % % % % % % ;                   ",
"                  . X X X X X X X X o % % % % % % % % % % % % % % % % % * = = = = = = = = - % % % % % % % % ;                   ",
"                  . X X X X X X X X o % % % % % % % % % % % % % % % % % * = = = = = = = = - % % % % % % % % ;                   ",
"                  . X X X X X X X X o % % % % % % % % % % % % % % % % % * = = = = = = = = - % % % % % % % % ;                   ",
"                  . X X X X X X X X o % % % % % % % % % % % % % % % % % * = = = = = = = = - % % % % % % % % ;                   ",
"                  . X X X X X X X X o % % % % % % % % % % % % % % % % % * = = = = = = = = - % % % % % % % % ;                   ",
"                  . X X X X X X X X o % % % % % % % % % % % % % % % % % * = = = = = = = = - % % % % % % % % ;                   ",
": : : : : : : : : > > > > > > > > > , < < < < < < < < o 1 1 1 1 1 1 1 1 2 3 3 3 3 3 3 3 3 4 5 5 5 5 5 5 5 5 6                   ",
"% % % % % % % % % % % % % % % % % % 7 X X X X X X X X 8                 9 0 0 0 0 0 0 0 0 q w w w w w w w w e                   ",
"% % % % % % % % % % % % % % % % % % 7 X X X X X X X X 8                 9 0 0 0 0 0 0 0 0 q w w w w w w w w e                   ",
"% % % % % % % % % % % % % % % % % % 7 X X X X X X X X 8                 9 0 0 0 0 0 0 0 0 q w w w w w w w w e                   ",
"% % % % % % % % % % % % % % % % % % 7 X X X X X X X X 8                 9 0 0 0 0 0 0 0 0 q w w w w w w w w e                   ",
"% % % % % % % % % % % % % % % % % % 7 X X X X X X X X 8                 9 0 0 0 0 0 0 0 0 q w w w w w w w w e                   ",
"% % % % % % % % % % % % % % % % % % 7 X X X X X X X X 8                 9 0 0 0 0 0 0 0 0 q w w w w w w w w e                   ",
"% % % % % % % % % % % % % % % % % % 7 X X X X X X X X 8                 9 0 0 0 0 0 0 0 0 q w w w w w w w w e                   ",
"% % % % % % % % % % % % % % % % % % 7 X X X X X X X X 8                 9 0 0 0 0 0 0 0 0 q w w w w w w w w e                   ",
"% % % % % % % % % % % % % % % % % % 7 X X X X X X X X 8                 9 0 0 0 0 0 0 0 0 q w w w w w w w w e                   ",
"% % % % % % % % % % % % % % % % % % 7 X X X X X X X X 8                 9 0 0 0 0 0 0 0 0 q w w w w w w w w e                   ",
"r r r r r r r r r t y y y y y y y y u i i i i i i i i p p p p p p p p p a s s s s s s s s d f f f f f f f f g h h h h h h h h h ",
"w w w w w w w w w j 0 0 0 0 0 0 0 0 k = = = = = = = = = = = = = = = = = l % % % % % % % % % % % % % % % % % % % % % % % % % % % ",
"w w w w w w w w w j 0 0 0 0 0 0 0 0 k = = = = = = = = = = = = = = = = = l % % % % % % % % % % % % % % % % % % % % % % % % % % % ",
"w w w w w w w w w j 0 0 0 0 0 0 0 0 k = = = = = = = = = = = = = = = = = l % % % % % % % % % % % % % % % % % % % % % % % % % % % ",
"w w w w w w w w w j 0 0 0 0 0 0 0 0 k = = = = = = = = = = = = = = = = = l % % % % % % % % % % % % % % % % % % % % % % % % % % % ",
"w w w w w w w w w j 0 0 0 0 0 0 0 0 k = = = = = = = = = = = = = = = = = l % % % % % % % % % % % % % % % % % % % % % % % % % % % ",
"w w w w w w w w w j 0 0 0 0 0 0 0 0 k = = = = = = = = = = = = = = = = = l % % % % % % % % % % % % % % % % % % % % % % % % % % % ",
"w w w w w w w w w j 0 0 0 0 0 0 0 0 k = = = = = = = = = = = = = = = = = l % % % % % % % % % % % % % % % % % % % % % % % % % % % ",
"w w w w w w w w w j 0 0 0 0 0 0 0 0 k = = = = = = = = = = = = = = = = = l % % % % % % % % % % % % % % % % % % % % % % % % % % % ",
"w w w w w w w w w j 0 0 0 0 0 0 0 0 k = = = = = = = = = = = = = = = = = l % % % % % % % % % % % % % % % % % % % % % % % % % % % ",
"z z z z z z z z z x c c c c c c c c v = = = = = = = = b n n n n n n n n m O O O O O O O O O O O O O O O O O M N N N N N N N N N ",
"% % % % % % % % % B = = = = = = = = V C C C C C C C C Z A A A A A A A A S D D D D D D D D F G G G G G G G G H J K K K K K K K J ",
"% % % % % % % % % B = = = = = = = = L % % % % % % % % P                 8 X X X X X X X X I                 U w w w w w w w w w ",
"% % % % % % % % % B = = = = = = = = L % % % % % % % % P                 8 X X X X X X X X I                 U w w w w w w w w w ",
"% % % % % % % % % B = = = = = = = = L % % % % % % % % P                 8 X X X X X X X X I                 U w w w w w w w w w ",
"% % % % % % % % % B = = = = = = = = L % % % % % % % % P                 8 X X X X X X X X I                 U w w w w w w w w w ",
"% % % % % % % % % B = = = = = = = = L % % % % % % % % P                 8 X X X X X X X X I                 U w w w w w w w w w ",
"% % % % % % % % % B = = = = = = = = L % % % % % % % % P                 8 X X X X X X X X I                 U w w w w w w w w w ",
"% % % % % % % % % B = = = = = = = = L % % % % % % % % P                 8 X X X X X X X X I                 U w w w w w w w w w ",
"% % % % % % % % % B = = = = = = = = L % % % % % % % % P                 8 X X X X X X X X I                 U w w w w w w w w w ",
"% % % % % % % % % B = = = = = = = = L % % % % % % % % P                 8 X X X X X X X X I                 U w w w w w w w w w ",
"* * * * * * * * * Y T T T T T T T T R % % % % % % % % P                 E W W W W W W W W Q ! ! ! ! ! ! ! ! ~ ^ ^ ^ ^ ^ ^ ^ ^ ^ ",
"= = = = = = = = = / w w w w w w w w ( % % % % % % % % P                 ) = = = = = = = = - % % % % % % % % % % % % % % % % % % ",
"= = = = = = = = = / w w w w w w w w ( % % % % % % % % P                 ) = = = = = = = = - % % % % % % % % % % % % % % % % % % ",
"= = = = = = = = = / w w w w w w w w ( % % % % % % % % P                 ) = = = = = = = = - % % % % % % % % % % % % % % % % % % ",
"= = = = = = = = = / w w w w w w w w ( % % % % % % % % P                 ) = = = = = = = = - % % % % % % % % % % % % % % % % % % ",
"= = = = = = = = = / w w w w w w w w ( % % % % % % % % P                 ) = = = = = = = = - % % % % % % % % % % % % % % % % % % ",
"= = = = = = = = = / w w w w w w w w ( % % % % % % % % P                 ) = = = = = = = = - % % % % % % % % % % % % % % % % % % ",
"= = = = = = = = = / w w w w w w w w ( % % % % % % % % P                 ) = = = = = = = = - % % % % % % % % % % % % % % % % % % ",
"= = = = = = = = = / w w w w w w w w ( % % % % % % % % P                 ) = = = = = = = = - % % % % % % % % % % % % % % % % % % ",
"= = = = = = = = = / w w w w w w w w ( % % % % % % % % P                 ) = = = = = = = = - % % % % % % % % % % % % % % % % % % ",
"= = = = = = = = = / w w w w w w w w ( % % % % % % % % P                 ) = = = = = = = = - % % % % % % % % % % % % % % % % % % ",
"_ _ _ _ _ _ _ _ _ ` w w w w w w w w ' ] ] ] ] ] ] ] ] [ < < < < < < < < { V V V V V V V V } | | | | | | | |  ...................",
"                  X.w w w w w w w w o.0 0 0 0 0 0 0 0 O.% % % % % % % % % % % % % % % % % +.                @.= = = = = = = = = ",
"                  X.w w w w w w w w o.0 0 0 0 0 0 0 0 O.% % % % % % % % % % % % % % % % % +.                @.= = = = = = = = = ",
"                  X.w w w w w w w w o.0 0 0 0 0 0 0 0 O.% % % % % % % % % % % % % % % % % +.                @.= = = = = = = = = ",
"                  X.w w w w w w w w o.0 0 0 0 0 0 0 0 O.% % % % % % % % % % % % % % % % % +.                @.= = = = = = = = = ",
"                  X.w w w w w w w w o.0 0 0 0 0 0 0 0 O.% % % % % % % % % % % % % % % % % +.                @.= = = = = = = = = ",
"                  X.w w w w w w w w o.0 0 0 0 0 0 0 0 O.% % % % % % % % % % % % % % % % % +.                @.= = = = = = = = = ",
"                  X.w w w w w w w w o.0 0 0 0 0 0 0 0 O.% % % % % % % % % % % % % % % % % +.                @.= = = = = = = = = ",
"                  X.w w w w w w w w o.0 0 0 0 0 0 0 0 O.% % % % % % % % % % % % % % % % % +.                @.= = = = = = = = = ",
"                  X.w w w w w w w w o.0 0 0 0 0 0 0 0 O.% % % % % % % % % % % % % % % % % +.                @.= = = = = = = = = ",
"                  #.$.$.$.$.$.$.$.$.q 0 0 0 0 0 0 0 0 O.% % % % % % % % % % % % % % % % % +.                @.= = = = = = = = = "
};
