/* XPM */
static char *e9a6e1bf21734c748f42343ea7307363PENdfqrKg6YlVqSN[] = {
/* columns rows colors chars-per-pixel */
"64 64 256 2 ",
"   c None",
".  c #050602",
"X  c #160C08",
"o  c #0B1604",
"O  c #17190B",
"+  c #1E0A10",
"@  c #191C13",
"#  c #380B07",
"$  c #23140C",
"%  c #381B0D",
"&  c #271816",
"*  c #361C16",
"=  c #14260C",
"-  c #0E3403",
";  c #16320B",
":  c #1B2C15",
">  c #1C3417",
",  c #23250E",
"<  c #38210F",
"1  c #252818",
"2  c #35261A",
"3  c #243A1B",
"4  c #343B1E",
"5  c #2D1B22",
"6  c #2E292C",
"7  c #3B2A27",
"8  c #2A3A23",
"9  c #363726",
"0  c #3D2D31",
"q  c #373934",
"w  c #462A1A",
"e  c #51321E",
"r  c #442C27",
"t  c #45342A",
"y  c #573A26",
"u  c #422E32",
"i  c #483935",
"p  c #533E3C",
"a  c #164607",
"s  c #28441F",
"d  c #334D1E",
"f  c #31591D",
"g  c #2B4522",
"h  c #2A4726",
"j  c #2D4A24",
"k  c #354B26",
"l  c #2F5225",
"z  c #36542A",
"x  c #3B5B2C",
"c  c #394A36",
"v  c #3D5932",
"b  c #3C622B",
"n  c #3D6233",
"m  c #444828",
"M  c #5A422C",
"N  c #435B2C",
"B  c #4B4536",
"V  c #56463B",
"C  c #455836",
"Z  c #56593A",
"A  c #62452F",
"S  c #674B39",
"D  c #67533D",
"F  c #7A593F",
"G  c #44662E",
"H  c #446432",
"J  c #496A36",
"K  c #51683B",
"L  c #4B7337",
"P  c #52763A",
"I  c #537C3B",
"U  c #4D3D43",
"Y  c #513E42",
"T  c #4A4647",
"R  c #584846",
"E  c #4C5D45",
"W  c #5A5647",
"Q  c #5D4E52",
"!  c #5D5A5A",
"~  c #654C46",
"^  c #645349",
"/  c #795B45",
"(  c #634F54",
")  c #685857",
"_  c #735B58",
"`  c #456148",
"'  c #576848",
"]  c #587C44",
"[  c #5C6754",
"{  c #5C7056",
"}  c #666746",
"|  c #7E624B",
" . c #66794B",
".. c #6A6757",
"X. c #65765A",
"o. c #76755C",
"O. c #695B60",
"+. c #666764",
"@. c #786667",
"#. c #6B7669",
"$. c #74776A",
"%. c #7F6D71",
"&. c #777774",
"*. c #85684E",
"=. c #866B54",
"-. c #8D735C",
";. c #95765B",
":. c #806E6F",
">. c #877766",
",. c #9A7D63",
"<. c #887778",
"1. c #A17E62",
"2. c #45812E",
"3. c #498336",
"4. c #55823C",
"5. c #58863D",
"6. c #5A933C",
"7. c #5B8443",
"8. c #5D8B42",
"9. c #5D9346",
"0. c #638C49",
"q. c #629346",
"w. c #64944A",
"e. c #659B49",
"r. c #659A4B",
"t. c #699C4D",
"y. c #688956",
"u. c #6B9A54",
"i. c #719B59",
"p. c #69A44D",
"a. c #73A44E",
"s. c #6DA353",
"d. c #6DA856",
"f. c #71A555",
"g. c #73A959",
"h. c #74AB5B",
"j. c #6DB356",
"k. c #76B659",
"l. c #75B45B",
"z. c #7BBB5D",
"x. c #768863",
"c. c #759961",
"v. c #7D827A",
"b. c #799675",
"n. c #78A764",
"m. c #7CB463",
"M. c #7BB667",
"N. c #7DBC64",
"B. c #7FC05D",
"V. c #81BD5F",
"C. c #9D8064",
"Z. c #80986B",
"A. c #8D8871",
"S. c #9A8775",
"D. c #8F967D",
"F. c #959071",
"G. c #A58669",
"H. c #A48D78",
"J. c #AF957E",
"K. c #B69577",
"L. c #82AD69",
"P. c #82BC64",
"I. c #84BC6B",
"U. c #86BB6D",
"Y. c #88BC71",
"T. c #94BE7C",
"R. c #C19F7E",
"E. c #84C15E",
"W. c #84C263",
"Q. c #84C16B",
"!. c #8AC26E",
"~. c #8BC96C",
"^. c #8CC474",
"/. c #8EC777",
"(. c #91C677",
"). c #92CA7A",
"_. c #887D81",
"`. c #8B8588",
"'. c #988787",
"]. c #8B9588",
"[. c #9F8F90",
"{. c #9A9A99",
"}. c #A18F8F",
"|. c #A89786",
" X c #B39C87",
".X c #A69799",
"XX c #94A287",
"oX c #9ABD81",
"OX c #9BA29A",
"+X c #BCA38A",
"@X c #AAA798",
"#X c #B7A897",
"$X c #A9B39C",
"%X c #BBB997",
"&X c #A29FA0",
"*X c #B29FA1",
"=X c #A8A7A5",
"-X c #B7A9AA",
";X c #ACB4AF",
":X c #B5BAA9",
">X c #BEAEB1",
",X c #AFB3B0",
"<X c #B7B4B7",
"1X c #C7AC8E",
"2X c #C4AD95",
"3X c #CEB89B",
"4X c #D4BA9D",
"5X c #C0AEAC",
"6X c #C8B9A6",
"7X c #D9BDA3",
"8X c #C7BABA",
"9X c #9ACA84",
"0X c #98D185",
"qX c #A4CC89",
"wX c #A7C791",
"eX c #B5D49B",
"rX c #B0C4A2",
"tX c #BAC5B8",
"yX c #D9C6A6",
"uX c #C4D4A8",
"iX c #C6C0BB",
"pX c #DBCBBA",
"aX c #C1DABB",
"sX c #E3CBAB",
"dX c #E9D0AE",
"fX c #E7CFB0",
"gX c #EAD4B5",
"hX c #C9E4AE",
"jX c #F3E2BD",
"kX c #BEBFC2",
"lX c #C6BEC0",
"zX c #CAC6C6",
"xX c #D4C9CA",
"cX c #CED5CB",
"vX c #D2DACE",
"bX c #CECDD1",
"nX c #D8CDD0",
"mX c #CDD2D1",
"MX c #DAD7D6",
"NX c #E2D8CD",
"BX c #F0DCC4",
"VX c #E4DADB",
"CX c #D8ECC7",
"ZX c #D8E3D6",
"AX c #EBE4C7",
"SX c #F7EACD",
"DX c #EEEDD8",
"FX c #F5ECDA",
"GX c #FAF2DA",
"HX c #E9DFE1",
"JX c #ECE4E6",
"KX c #F4EBED",
"LX c #F7F3ED",
"PX c #F7EEF0",
"IX c #F9F3F4",
"UX c #F8F4F6",
/* pixels */
"                                                                                                                                ",
"                                                n.g.g.h.g.g.h.g.f.i.u.t.t.s.f.f.g.                                              ",
"                                          U.m.m.I.m.U.U.U.L.m.m.n.h.k.s.f.g.f.f.g.g.g.h.                                        ",
"                                    (.~.Q.U.U.U.Q.!.I.!.P.U.U.U.U.m.L.h.g.n.f.s.s.d.i.g.g.s.L.                                  ",
"                                qX/.!.!.Y.Q.Y.^.!.^.!.^.!.Y.Y.U.I.I.I.m.m.g.f.g.f.s.d.s.s.d.f.g.U.                              ",
"                              ).~.^.^.Y.^.!.^.(././.!./.^.!.!.!.I.Y.P.I.m.M.h.h.f.s.s.u.s.s.s.s.g.h.i.W                         ",
"                          9X/./.^./.^.^./.^././././././.^.^.!.^.Y.I.I.m.U.P.m.h.f.s.t.t.s.t.t.s.d.h.h.y.@ Y                     ",
"                      uXqX)././.^.!.^././.).).).).).)./././.!.^.!.!.U.U.I.P.m.m.h.f.d.t.t.t.t.p.f.d.k.i.k i ^                   ",
"                <.t DXeX0X/./.^././.)././.).).).).).)./././.^.!.Y.!.Y.!.U.I.m.m.h.g.s.t.t.r.r.t.u.s.d.d.w.1 T p                 ",
"              H.t DXCX9X~./.^./././.)./.).).).9X).).).).).^.(.(.^.!.!.Y.U.U.m.m.m.h.f.t.t.r.w.r.r.r.t.s.g.i., 0 R               ",
"            :.i $XhXqX(.^./.(./.^././.).).).).).)././././././.^.^.Y.Y.U.!.P.P.U.m.m.h.f.t.t.t.e.w.e.r.s.a.m.y.8 0 >.            ",
"          }.B C wX9X(.~.~.~./././././././.).).).)././././.^.(.^.^.^.!.Y.U.U.U.U.I.P.m.h.a.u.q.q.w.q.8.u.s.a.L.y.1 t             ",
"          @.$ oXqX).~.(.(.).(./.^./.)././././.^././.)./.^.^.Y.Y.Y.^.^.Y.!.!.!.!.!.U.U.m.h.f.t.w.w.8.q.q.t.a.a.g.k * :.          ",
"        |.p x.(./.!././.).)./.).).^.)./././././.)././.^.^.^.!.!.^.U.^.!.^.Y./.Y.U.U.I.m.m.g.t.t.q.8.5.8.q.t.a.u.C 2 V           ",
"        '.O T.(././.).).).).)./.^./.^.^.^.^.^.^.^.Y.Y.^.Y.Y.Y.Y.!.Y.U.Q.Y.^.^.Y.!.!.!.P.m.n.a.u.8.7.4.I 5.r.r.w.P 1 Q _.        ",
"        :.1 (./.^.^.).)./.).)./././.^./.^.Q.Y.!.Q.Y.I.I.I.^.Q.I.I.I.U.!.U.U.!.!./.^.!.I.m.h.a.t.8.I I I 4.0.t.q.P 1 R A.        ",
"      ) _ y.(./.I./././.).).).)./././.^.Q.Q.Q.Y.Y.U.U.Q.U.P.U.I.m.N.N.m.V.I.P.Q.!.~.!.W.m.a.t.0.7.P J J I q.t.w.P 1 X }.        ",
"      S.p oXY.I.U.^.Q.Q./.n.L.Y.T.T./.T./.Y.Y.Q.N.M.m.M.M.k.m.m.n.c.y. .K H Z } m 4 }  .w.8.7.4.P L G b J 4.0.w.5.g i '.        ",
"      ^ i T.m.n.M.M.M.i.C i ( Q R U q B R W c v Y.M.M.m.g.g.C 9 R ~ ) R i V ^ Y t 7 u 2 4 ] J J J G N N G P 5.8.8.4 R ^         ",
"      r 9 m.u.s.d.s.f.c 0 u q 9 8 C v k 9 c z 7.t.g.g.g.r.t.w.y.k N v c c z z x 9 8 1 @ @ z N H G J N b x J I 5.I 3 R ^         ",
"      i B s.u.p.u.q.w.G n n ` s - L.Y.).w.a b J I 4.9.r.e.8.4.G s ; 0.W.z.a.u.L - j l z z z G L I I J H N J I I P 4 p V         ",
"      ( W h.u.p.s.r.e.q.3.G h h ' o 8 T n 0.J x ] u.M.t.8.4.b z I q.c . U zX. v.8 h j l L 7.s.r.8.9.P L G P I I J 9 B )         ",
"      ) p n.d.d.l.p.p.p.j.d.r.3.n.C > @ [ tX` h d.Q.I.l.d.5.x g s tXrXk n ' ] J n G r.j.k.l.j.d.p.q.8.3.I 4.4.4.L i i           ",
"      ( ~ n.l.l.M.l.z.k.k.j.d.d.2.w.s.5.4.w.9.6.N.Q.N.l.d.r.p.d.j.d.p.w.9.3.4.9.r.t.z.j.k.k.k.d.g.a.e.4.4.5.5.7.L 7 t           ",
"      p ~ n.m.M.Y./.).).!.Q.l.j.k.k.j.j.j.j.k.z.N.Q.N.N.l.j.j.j.j.B.k.z.k.j.k.j.k.k.B.B.E.V.V.V.P.V.f.q.8.q.5.5.J i t           ",
"      7 ~ 0.M.Q.^.).)././.^.Q.Q.N.N.N.j.k.l.M.N.W.~.Q.Q.z.z.z.z.z.z.z.B.k.z.B.B.W.W.W.E.E.P.P.P.P.V.k.t.6.w.8.5.K t 7           ",
"      ( * m M.I.Q././.(.^.Y.Y.Y.Y.Q.Q.M.N.N.Q.Q.Q.!.~.W.W.N.P.E.B.N.N.N.N.B.B.W.B.E.W.W.E.Q.E.P.V.z.d.e.8.q.8.5.K 7 V           ",
"        5 4 M.d.m.Y.Y.^.^.I.Y.I.I.M.l.M.l.N.N.N.Q.P.Q.Q.N.N.z.k.z.k.z.N.N.B.B.W.W.W.W.W.W.~.P.V.z.k.e.8.5.8.8.4.H 7             ",
"          M h.u.s.d.M.M.L.M.M.n.l.h.h.d.7.] 7.] 0.r.L.m.n.t.] P H x L r.d.m.z.M.k.z.z.N.W.V.z.k.d.e.5.P 3.7.5.I J t             ",
"            Z.8.7.9.w.u.u.u.s.u. .k B B ^ V i 7 & & 2 9 r i V p i R V B t 8 d ] 9.p.p.j.d.g.a.e.6.4.G b J 5.I I 4.b.            ",
"              7.7.4.I 4.7.I C 4 2 Y ^ V B @.~ * V B * R * 7 V i r ~ R V & p V ~ Y 4 k L G L L L G n z z J L I 4.I D.            ",
"              y.I 4.L I P H 9 t t _ >.V t B ^ V t V & V 9 2 t ^ r y V B X _ 2 * 7 & 2 4 j l n n b x z l G G P 4. .iX            ",
"                ] 8.G L 4.4 r r $ 2 7 } ~ D W ....Z Z A.Z V W o.$.V R ^ r S W & $ X $ $ k k z J x z l l H J L 4.} 2X            ",
"                K 8.0.P ] t r & 9 , . @ 0 q 9 1 X = o . o . o O O O o o O i & , X X . + 4 N x ] z k l v H G K n D H.            ",
"                XXL 0.w.5.N m J n.y.@ {.KXLXUXUXIXJXMXnXzXzXzXxX8XxXzX8X8X8X$XX.K f x., k x b 0.x l j v b H v 8 D >.8X          ",
"                :Xv L h.5.q.h.P.9X(.!.] q q O.+.! <.v.$.&.&.&.O.` W ..C X.i.i.I Y.~.m.q.P n u.7.j j j x n b 4 2 D >.#X          ",
"                6X} f ] U.9.t.U.0XQ.s.I.~.^./.^.(.).~.(.~.~.~.^.U.U.d.5.L G b d.!.m.s.7.P f c.z j j j z v j 1 2 D >. X          ",
"                6X%Xz x ] u.q.u.I.I.f.L i.h.P.I.L.g.t.w.q.0.9.0.7.K N z k G y.n.g.s.8.I G i.z h j h z x l g , 7 D >.|.          ",
"                6X+X' z v P 5.7.0.t.r.] x > ; ; = o o o o o = = : > s j x G I 5.0.7.P J J z s j j g z j h 3 & r V -.H.          ",
"                6X+XF.k N G L P 7.8.] CXtX$.9 > = = = = = = : > 8 q h k z J P I I L G x z j g g g j z g 3 : & r V =.S.          ",
"                FXGXAXo.j v H H J L I cXJXZXmXzXtX,X=X&XOX{.=X<X<XkXzXtXv K L J H N v z j s s s s s g 3 > $ % w M *.H.          ",
"                KXGXGXSX4 k x H J L L n ZXZXZXMXMXvXvXzXcXmXvXvXZXZXcXZX#.b x x z l g s s 3 3 8 s g > > 2 # % 4 >.sX1X          ",
"                NXSXGXGXAX> s g N N J K ' ZXMXMXE v ].MXMXZXC z ` bXbXbX$Xz l k k s 3 3 3 3 3 3 > > = , % *.yXgXfX4XH.          ",
"                  SXSXSXSXBXm > 3 g z x c mXbXbX{ z { mXbXmXC z z zX<XkX,Xg s g 3 3 > > > > > > : o m 2XgXdXsX4X2X#X            ",
"                  gXBXjXjXjX4X@X:X#.3 g 3 ,X<X<X].s c ;X,X;X[ g g =X{.{.OX8 3 > 3 3 > > > : o o B 4XdXgXsX4X+X X                ",
"                    pXsXsXgXLXPXHX-X&.: ` =X{.{.{.3 h ].`.`.+.: > #.`._.v.#.c > ; : : ; o o o.6XsXgXsX7X+X|.                    ",
"                      6XpXLXUXKXlX.X%.. . q ! +.&.v.1 &.&.&.&.#.q q +.! ! ! c @ O o o o B yXgXgXdXyX1X|.                        ",
"                        UXUXJXxX.X@.`.VXKXUXnX{.T 6 @ : 6 q 6 q : o : @ o o @ {.IX`.. x.yXdXdXsX4X+X|.                          ",
"                        VXnX5X'.( KXUXUXUXUXUXUXUXUXUXJXkX&X&.T . . . . . . MXPXUXUX#X7XdXsX3X+XS.                              ",
"                      lX=X<.@.u MXKXUXUXUXUXUXUXUXUXUXUXUXlXbXHXUXUXUXPXMX-XlXVXKXUXLX>.1XJ.-.*.                                ",
"                        i u $ O.nXVXHXJXPXUXPXKXnXVXUXUXUXUXUXUXUXUXUXUXUXKXVXzXVXJXJXnXV D S D                                 ",
"                              }.8XzXxXnXVXJXIXIXUXUXIXKXVXPXUXUXUXUXUXKXJXHXMX8X8X8XxX8X>Xw / J.                                ",
"                                *X-X>XzXJXJXHXMXxX.XQ & ) HXUXUXPXJXHXVXMXzX8X-X:.}.`.`.}. XC.G.                                ",
"                                  '.'..XR R Y i + 0 <.MXPXKXUXJXVXMXzX8X8X-X}.'.<.R p u O.|.1XR.S.                              ",
"                                  >XHXnX>X<..XnXKXUXIXUXUXUXHXnXlX-X*X*X.X<.<.<.<.* * 7 S *.C.H.G.                              ",
"                                  KXIXPXUXIXUXUXIXIXUXUXIXVXxXlX-X*X.X'.<.:.%.%.%.  % e S =.1.G.G.                              ",
"                                MXzXnXVXHXHXJXJXMX8X_.@.%.%.8X}.[.'._.:.@._ @.@.    * e S *.,.G.G.H.                            ",
"                                    0 7 6 0 & + + 5 U _.VXxX_.:.<.@.@._ O.)         % w A | ;.1.G.H.                            ",
"                                    PXHXKXKXJXVXJXIXIXHX>XO.Q Y R R ( ( Q 5X        * w A F -.,.G.G.J.                          ",
"                                      -XlXxXVXHXMX>XQ & 5 0 ) @.%.O.Y ) <.'.          < y D *.;.G.G.,.                          ",
"                                          u u 5 5 5 0 Y @.<.R U R <.%.                e y S *.-.,.G.,.=.                        ",
"                                          H.7 u U ) <.`.~ u     5 p                   y e S | -.;.G.1.=.                        ",
"                                          2X XS.w 5 + p =./                           S e A F =.;.G.1.;.M                       ",
"                                          6XK.K.K.+XR.G.*./                           S e A / *.;.1.1.-.M                       "
};
