/* XPM */
static char *player64[] = {
/* columns rows colors chars-per-pixel */
"64 64 23 1 ",
"  c gray13",
". c #46321C",
"X c #420D22",
"o c #6E4615",
"O c #434343",
"+ c gray39",
"@ c #824F12",
"# c #AD2158",
"$ c #FF3868",
"% c #FF6860",
"& c #FFDA68",
"* c #1A2882",
"= c #387A93",
"- c #5EB1B2",
"; c #7ADAC9",
": c #FF8CA9",
"> c #FFAEA0",
", c #FFA8BF",
"< c #FFE082",
"1 c #FFD1C0",
"2 c gray92",
"3 c white",
"4 c None",
/* pixels */
"4444444444444444444444444444444444444444444444444444444444444444",
"4444444444444444444444444444444444444444444444444444444444444444",
"4444444444444444444444444444444444444444444444444444444444444444",
"44444444444444444                      4444444444444444444444444",
"44444444444444444                      4444444444444444444444444",
"44444444444444444                      4444444444444444444444444",
"44444444444444444                      4444444444444444444444444",
"44444444444444   ,,,,::::::::::::::<<<<          444444444444444",
"44444444444444   ,,,,::::::::::::::<<<<          444444444444444",
"44444444444444   ,,,,::::::::::::::<<<<          444444444444444",
"4444444444    :::$$$$$$$$$$$$$$$$$$$$$$##########    44444444444",
"4444444444    :::$$$$$$$$$$$$$$$$$$$$$$##########    44444444444",
"4444444444    :::$$$$$$$$$$$$$$$$$$$$$$##########    44444444444",
"4444444444    :::$$$$$$$$$$$$$$$$$$$$$$##########    44444444444",
"4444444444              %%%%1111333    %%%       444444444444444",
"4444444444              %%%%1111333    %%%       444444444444444",
"4444444444              %%%%1111333    %%%       444444444444444",
"4444444   OOOO%%%OOOO%%%11111111333    1111111111    44444444444",
"4444444   OOOO%%%OOOO%%%11111111333    1111111111    44444444444",
"4444444   OOOO%%%OOOO%%%11111111333    1111111111    44444444444",
"4444444   OOOO%%%OOOO%%%11111111333    1111111111    44444444444",
"4444444   OOOO%%%OOOOOOO11111111111OOOO%%%%%%%1111111   44444444",
"4444444   OOOO%%%OOOOOOO11111111111OOOO%%%%%%%1111111   44444444",
"4444444   OOOO%%%OOOOOOO11111111111OOOO%%%%%%%1111111   44444444",
"4444444   OOOOOOO>>>>11111111111OOOOOOOOOOOOOO       44444444444",
"4444444   OOOOOOO>>>>11111111111OOOOOOOOOOOOOO       44444444444",
"4444444   OOOOOOO>>>>11111111111OOOOOOOOOOOOOO       44444444444",
"4444444   OOOOOOO>>>>11111111111OOOOOOOOOOOOOO       44444444444",
"4444444444       %%%%>>>>>>>>>>>11111111111111   444444444444444",
"4444444444       %%%%>>>>>>>>>>>11111111111111   444444444444444",
"4444444444       %%%%>>>>>>>>>>>11111111111111   444444444444444",
"4444444444       %%%%>>>>>>>>>>>11111111111111   444444444444444",
"4444444444XXXX:::$$$$;;;$$$$$$$$;;;$$$$$$$XXXX444444444444444444",
"4444444444XXXX:::$$$$;;;$$$$$$$$;;;$$$$$$$XXXX444444444444444444",
"4444444444XXXX:::$$$$;;;$$$$$$$$;;;$$$$$$$XXXX444444444444444444",
"4444444XXX::::$$$$$$$;;;$$$$$$$$;;;$$$$$$$$$$$XXX444444444444444",
"4444444XXX::::$$$$$$$;;;$$$$$$$$;;;$$$$$$$$$$$XXX444444444444444",
"4444444XXX::::$$$$$$$;;;$$$$$$$$;;;$$$$$$$$$$$XXX444444444444444",
"4444444XXX::::$$$$$$$;;;$$$$$$$$;;;$$$$$$$$$$$XXX444444444444444",
"444XXXX:::$$$$$$$$$$$;;;;;;;;;;;;;;----$$$$$$$$$$XXXX44444444444",
"444XXXX:::$$$$$$$$$$$;;;;;;;;;;;;;;----$$$$$$$$$$XXXX44444444444",
"444XXXX:::$$$$$$$$$$$;;;;;;;;;;;;;;----$$$$$$$$$$XXXX44444444444",
"444++++3333333$$$----333;;;;;;;;333----$$$3333333++++44444444444",
"444++++3333333$$$----333;;;;;;;;333----$$$3333333++++44444444444",
"444++++3333333$$$----333;;;;;;;;333----$$$3333333++++44444444444",
"444++++3333333$$$----333;;;;;;;;333----$$$3333333++++44444444444",
"444++++2223333333----;;;;;;;;;;;;;;;;;;3333333222++++44444444444",
"444++++2223333333----;;;;;;;;;;;;;;;;;;3333333222++++44444444444",
"444++++2223333333----;;;;;;;;;;;;;;;;;;3333333222++++44444444444",
"4444444+++2222-------;;;;;;;;;;;;;;;;;;;;;2222+++444444444444444",
"4444444+++2222-------;;;;;;;;;;;;;;;;;;;;;2222+++444444444444444",
"4444444+++2222-------;;;;;;;;;;;;;;;;;;;;;2222+++444444444444444",
"4444444+++2222-------;;;;;;;;;;;;;;;;;;;;;2222+++444444444444444",
"4444444444****==========----****===----;;;;;;;***444444444444444",
"4444444444****==========----****===----;;;;;;;***444444444444444",
"4444444444****==========----****===----;;;;;;;***444444444444444",
"4444444...&&&&@@@@@@@ooo....4444...oooo@@@@@@@&&&    44444444444",
"4444444...&&&&@@@@@@@ooo....4444...oooo@@@@@@@&&&    44444444444",
"4444444...&&&&@@@@@@@ooo....4444...oooo@@@@@@@&&&    44444444444",
"4444444...&&&&@@@@@@@ooo....4444...oooo@@@@@@@&&&    44444444444",
"444....@@@@@@@@@@@@@@ooo....4444...oooo@@@@@@@@@@@@@@...44444444",
"444....@@@@@@@@@@@@@@ooo....4444...oooo@@@@@@@@@@@@@@...44444444",
"444....@@@@@@@@@@@@@@ooo....4444...oooo@@@@@@@@@@@@@@...44444444",
"444....@@@@@@@@@@@@@@ooo....4444...oooo@@@@@@@@@@@@@@...44444444"
};
