/* XPM */
static char *wall64[] = {
/* columns rows colors chars-per-pixel */
"64 64 4 1 ",
"  c #B76D1B",
". c #733600",
"X c #421F00",
"o c #9C4A00",
/* pixels */
"                        ....XXXX                        ....XXXX",
"                        ....XXXX                        ....XXXX",
"                        ....XXXX                        ....XXXX",
"                        ....XXXX                        ....XXXX",
"    oooooooooooooooooooo....XXXX    oooooooooooooooooooo....XXXX",
"    oooooooooooooooooooo....XXXX    oooooooooooooooooooo....XXXX",
"    oooooooooooooooooooo....XXXX    oooooooooooooooooooo....XXXX",
"    oooooooooooooooooooo....XXXX    oooooooooooooooooooo....XXXX",
"............................XXXX............................XXXX",
"............................XXXX............................XXXX",
"............................XXXX............................XXXX",
"............................XXXX............................XXXX",
"XXXXXXXXXXXXXXXXXXXXXXXXXXXXXXXXXXXXXXXXXXXXXXXXXXXXXXXXXXXXXXXX",
"XXXXXXXXXXXXXXXXXXXXXXXXXXXXXXXXXXXXXXXXXXXXXXXXXXXXXXXXXXXXXXXX",
"XXXXXXXXXXXXXXXXXXXXXXXXXXXXXXXXXXXXXXXXXXXXXXXXXXXXXXXXXXXXXXXX",
"XXXXXXXXXXXXXXXXXXXXXXXXXXXXXXXXXXXXXXXXXXXXXXXXXXXXXXXXXXXXXXXX",
"        ....XXXX                        ....XXXX                ",
"        ....XXXX                        ....XXXX                ",
"        ....XXXX                        ....XXXX                ",
"        ....XXXX                        ....XXXX                ",
"oooooooo....XXXX    oooooooooooooooooooo....XXXX    oooooooooooo",
"oooooooo....XXXX    oooooooooooooooooooo....XXXX    oooooooooooo",
"oooooooo....XXXX    oooooooooooooooooooo....XXXX    oooooooooooo",
"oooooooo....XXXX    oooooooooooooooooooo....XXXX    oooooooooooo",
"............XXXX............................XXXX................",
"............XXXX............................XXXX................",
"............XXXX............................XXXX................",
"............XXXX............................XXXX................",
"XXXXXXXXXXXXXXXXXXXXXXXXXXXXXXXXXXXXXXXXXXXXXXXXXXXXXXXXXXXXXXXX",
"XXXXXXXXXXXXXXXXXXXXXXXXXXXXXXXXXXXXXXXXXXXXXXXXXXXXXXXXXXXXXXXX",
"XXXXXXXXXXXXXXXXXXXXXXXXXXXXXXXXXXXXXXXXXXXXXXXXXXXXXXXXXXXXXXXX",
"XXXXXXXXXXXXXXXXXXXXXXXXXXXXXXXXXXXXXXXXXXXXXXXXXXXXXXXXXXXXXXXX",
"                        ....XXXX                        ....XXXX",
"                        ....XXXX                        ....XXXX",
"                        ....XXXX                        ....XXXX",
"                        ....XXXX                        ....XXXX",
"    oooooooooooooooooooo....XXXX    oooooooooooooooooooo....XXXX",
"    oooooooooooooooooooo....XXXX    oooooooooooooooooooo....XXXX",
"    oooooooooooooooooooo....XXXX    oooooooooooooooooooo....XXXX",
"    oooooooooooooooooooo....XXXX    oooooooooooooooooooo....XXXX",
"............................XXXX............................XXXX",
"............................XXXX............................XXXX",
"............................XXXX............................XXXX",
"............................XXXX............................XXXX",
"XXXXXXXXXXXXXXXXXXXXXXXXXXXXXXXXXXXXXXXXXXXXXXXXXXXXXXXXXXXXXXXX",
"XXXXXXXXXXXXXXXXXXXXXXXXXXXXXXXXXXXXXXXXXXXXXXXXXXXXXXXXXXXXXXXX",
"XXXXXXXXXXXXXXXXXXXXXXXXXXXXXXXXXXXXXXXXXXXXXXXXXXXXXXXXXXXXXXXX",
"XXXXXXXXXXXXXXXXXXXXXXXXXXXXXXXXXXXXXXXXXXXXXXXXXXXXXXXXXXXXXXXX",
"        ....XXXX                        ....XXXX                ",
"        ....XXXX                        ....XXXX                ",
"        ....XXXX                        ....XXXX                ",
"        ....XXXX                        ....XXXX                ",
"oooooooo....XXXX    oooooooooooooooooooo....XXXX    oooooooooooo",
"oooooooo....XXXX    oooooooooooooooooooo....XXXX    oooooooooooo",
"oooooooo....XXXX    oooooooooooooooooooo....XXXX    oooooooooooo",
"oooooooo....XXXX    oooooooooooooooooooo....XXXX    oooooooooooo",
"............XXXX............................XXXX................",
"............XXXX............................XXXX................",
"............XXXX............................XXXX................",
"............XXXX............................XXXX................",
"XXXXXXXXXXXXXXXXXXXXXXXXXXXXXXXXXXXXXXXXXXXXXXXXXXXXXXXXXXXXXXXX",
"XXXXXXXXXXXXXXXXXXXXXXXXXXXXXXXXXXXXXXXXXXXXXXXXXXXXXXXXXXXXXXXX",
"XXXXXXXXXXXXXXXXXXXXXXXXXXXXXXXXXXXXXXXXXXXXXXXXXXXXXXXXXXXXXXXX",
"XXXXXXXXXXXXXXXXXXXXXXXXXXXXXXXXXXXXXXXXXXXXXXXXXXXXXXXXXXXXXXXX"
};
